<svg width="106" height="93" viewBox="0 0 106 93" fill="none" xmlns="http://www.w3.org/2000/svg">
<path d="M80.5 32.6509C80.5 30.6196 80.3177 28.6665 79.9792 26.7915H53V37.8853H68.4167C67.7396 41.453 65.7083 44.4738 62.6615 46.505V53.7186H71.9583C77.375 48.7186 80.5 41.3748 80.5 32.6509Z" fill="#4285F4"/>
<path d="M53.0002 60.6458C60.7345 60.6458 67.2189 58.0938 71.9585 53.7188L62.6616 46.5052C60.1095 48.224 56.8543 49.2656 53.0002 49.2656C45.5522 49.2656 39.2241 44.2396 36.9585 37.4688H27.4272V44.8646C32.1408 54.2135 41.8022 60.6458 53.0002 60.6458Z" fill="#34A853"/>
<path d="M36.9582 37.4429C36.3853 35.7241 36.0467 33.9012 36.0467 32.0002C36.0467 30.0991 36.3853 28.2762 36.9582 26.5575V19.1616H27.4269C25.4738 23.0158 24.354 27.3647 24.354 32.0002C24.354 36.6356 25.4738 40.9845 27.4269 44.8387L34.8488 39.0575L36.9582 37.4429Z" fill="#FBBC05"/>
<path d="M53.0002 14.7603C57.2189 14.7603 60.9689 16.2186 63.9637 19.0311L72.1668 10.828C67.1929 6.19255 60.7345 3.354 53.0002 3.354C41.8022 3.354 32.1408 9.7863 27.4272 19.1613L36.9585 26.5571C39.2241 19.7863 45.5522 14.7603 53.0002 14.7603Z" fill="#EA4335"/>
<path d="M10.3283 72.6018C10.6041 72.0468 11.3959 72.0468 11.6717 72.6018L13.9239 77.1348C14.0331 77.3546 14.243 77.5071 14.4857 77.543L19.4929 78.2843C20.106 78.375 20.3506 79.1281 19.908 79.5619L16.2928 83.1046C16.1175 83.2764 16.0374 83.5231 16.0782 83.7651L16.9205 88.7562C17.0237 89.3674 16.3831 89.8328 15.8338 89.5458L11.3472 87.2024C11.1297 87.0887 10.8703 87.0887 10.6528 87.2024L6.16623 89.5458C5.61688 89.8328 4.97632 89.3674 5.07946 88.7562L5.92179 83.7651C5.96263 83.5231 5.88248 83.2764 5.70719 83.1046L2.09202 79.5619C1.64937 79.1281 1.89404 78.375 2.50713 78.2843L7.51426 77.543C7.75705 77.5071 7.96689 77.3546 8.07609 77.1348L10.3283 72.6018Z" fill="#FCD503"/>
<path d="M31.3283 72.6018C31.6041 72.0468 32.3959 72.0468 32.6717 72.6018L34.9239 77.1348C35.0331 77.3546 35.243 77.5071 35.4857 77.543L40.4929 78.2843C41.106 78.375 41.3506 79.1281 40.908 79.5619L37.2928 83.1046C37.1175 83.2764 37.0374 83.5231 37.0782 83.7651L37.9205 88.7562C38.0237 89.3674 37.3831 89.8328 36.8338 89.5458L32.3472 87.2024C32.1297 87.0887 31.8703 87.0887 31.6528 87.2024L27.1662 89.5458C26.6169 89.8328 25.9763 89.3674 26.0795 88.7562L26.9218 83.7651C26.9626 83.5231 26.8825 83.2764 26.7072 83.1046L23.092 79.5619C22.6494 79.1281 22.894 78.375 23.5071 78.2843L28.5143 77.543C28.757 77.5071 28.9669 77.3546 29.0761 77.1348L31.3283 72.6018Z" fill="#FCD503"/>
<path d="M52.3283 72.6018C52.6041 72.0468 53.3959 72.0468 53.6717 72.6018L55.9239 77.1348C56.0331 77.3546 56.243 77.5071 56.4857 77.543L61.4929 78.2843C62.106 78.375 62.3506 79.1281 61.908 79.5619L58.2928 83.1046C58.1175 83.2764 58.0374 83.5231 58.0782 83.7651L58.9205 88.7562C59.0237 89.3674 58.3831 89.8328 57.8338 89.5458L53.3472 87.2024C53.1297 87.0887 52.8703 87.0887 52.6528 87.2024L48.1662 89.5458C47.6169 89.8328 46.9763 89.3674 47.0795 88.7562L47.9218 83.7651C47.9626 83.5231 47.8825 83.2764 47.7072 83.1046L44.092 79.5619C43.6494 79.1281 43.894 78.375 44.5071 78.2843L49.5143 77.543C49.757 77.5071 49.9669 77.3546 50.0761 77.1348L52.3283 72.6018Z" fill="#FCD503"/>
<path d="M73.3283 72.6018C73.6041 72.0468 74.3959 72.0468 74.6717 72.6018L76.9239 77.1348C77.0331 77.3546 77.243 77.5071 77.4857 77.543L82.4929 78.2843C83.106 78.375 83.3506 79.1281 82.908 79.5619L79.2928 83.1046C79.1175 83.2764 79.0374 83.5231 79.0782 83.7651L79.9205 88.7562C80.0237 89.3674 79.3831 89.8328 78.8338 89.5458L74.3472 87.2024C74.1297 87.0887 73.8703 87.0887 73.6528 87.2024L69.1662 89.5458C68.6169 89.8328 67.9763 89.3674 68.0795 88.7562L68.9218 83.7651C68.9626 83.5231 68.8825 83.2764 68.7072 83.1046L65.092 79.5619C64.6494 79.1281 64.894 78.375 65.5071 78.2843L70.5143 77.543C70.757 77.5071 70.9669 77.3546 71.0761 77.1348L73.3283 72.6018Z" fill="#FCD503"/>
<path d="M94.3283 72.6018C94.6041 72.0468 95.3959 72.0468 95.6717 72.6018L97.9239 77.1348C98.0331 77.3546 98.243 77.5071 98.4857 77.543L103.493 78.2843C104.106 78.375 104.351 79.1281 103.908 79.5619L100.293 83.1046C100.118 83.2764 100.037 83.5231 100.078 83.7651L100.921 88.7562C101.024 89.3674 100.383 89.8328 99.8338 89.5458L95.3472 87.2024C95.1297 87.0887 94.8703 87.0887 94.6528 87.2024L90.1662 89.5458C89.6169 89.8328 88.9763 89.3674 89.0795 88.7562L89.9218 83.7651C89.9626 83.5231 89.8825 83.2764 89.7072 83.1046L86.092 79.5619C85.6494 79.1281 85.894 78.375 86.5071 78.2843L91.5143 77.543C91.757 77.5071 91.9669 77.3546 92.0761 77.1348L94.3283 72.6018Z" fill="#FCD503"/>
</svg>
