<svg width="184" height="51" viewBox="0 0 184 51" fill="none" xmlns="http://www.w3.org/2000/svg">
<path d="M61.9587 27.6521C61.9587 28.4205 61.8162 29.1409 61.531 29.8133C61.2459 30.4857 60.8589 31.0689 60.3701 31.5628C59.8813 32.0568 59.3008 32.4445 58.6287 32.7258C57.9566 33.0071 57.2404 33.1477 56.48 33.1477C55.9505 33.1477 55.4345 33.0722 54.9321 32.9213C54.4297 32.7704 53.9681 32.5577 53.5472 32.2832V33.0036H50.7976V18.5957L53.5879 17.9782V23.1239C54.0088 22.8083 54.4739 22.5647 54.983 22.3932C55.4922 22.2217 56.0184 22.1359 56.5615 22.1359C57.3083 22.1359 58.0109 22.28 58.6695 22.5682C59.328 22.8563 59.9017 23.2474 60.3905 23.7414C60.8793 24.2354 61.2629 24.8186 61.5412 25.4909C61.8196 26.1633 61.9587 26.8837 61.9587 27.6521ZM56.1134 24.5441C55.611 24.5441 55.1426 24.6299 54.7081 24.8014C54.2736 24.9729 53.9002 25.2233 53.5879 25.5527V29.7721C53.8866 30.074 54.2566 30.3142 54.6979 30.4925C55.1392 30.6709 55.611 30.7601 56.1134 30.7601C56.9824 30.7601 57.7156 30.4617 58.313 29.8648C58.9105 29.2679 59.2092 28.5303 59.2092 27.6521C59.2092 26.7739 58.9071 26.0364 58.3029 25.4395C57.6986 24.8426 56.9688 24.5441 56.1134 24.5441ZM65.0545 21.0039C64.62 21.0039 64.2467 20.8461 63.9344 20.5305C63.6221 20.2149 63.4659 19.8375 63.4659 19.3984C63.4659 18.9593 63.6221 18.582 63.9344 18.2664C64.2467 17.9508 64.62 17.793 65.0545 17.793C65.489 17.793 65.8624 17.9508 66.1747 18.2664C66.487 18.582 66.6432 18.9593 66.6432 19.3984C66.6432 19.8375 66.487 20.2149 66.1747 20.5305C65.8624 20.8461 65.489 21.0039 65.0545 21.0039ZM63.6696 22.28H66.4599V33.0036H63.6696V22.28ZM77.1322 33.0036H68.0892V31.0071L73.4254 24.647H68.13V22.28H77.01V24.2765L71.6331 30.6366H77.1322V33.0036ZM81.5926 33.0036H78.8023V22.28H81.5926V23.1239C81.9999 22.7809 82.4514 22.5201 82.947 22.3418C83.4426 22.1634 83.9823 22.0742 84.5662 22.0742C85.7882 22.0742 86.793 22.4721 87.5805 23.268C88.368 24.0638 88.7618 25.0861 88.7618 26.3348V33.0036H85.9715V26.7465C85.9715 26.0741 85.7712 25.5321 85.3707 25.1204C84.9701 24.7088 84.4372 24.5029 83.7719 24.5029C83.3102 24.5029 82.8927 24.5956 82.5193 24.7808C82.1459 24.9661 81.837 25.2302 81.5926 25.5733V33.0036ZM98.5583 29.978L100.391 31.6658C99.7396 32.2009 99.0709 32.592 98.3852 32.839C97.6995 33.086 96.9358 33.2095 96.0939 33.2095C95.2928 33.2095 94.5426 33.0654 93.8434 32.7772C93.1441 32.4891 92.5399 32.098 92.0307 31.604C91.5215 31.11 91.121 30.5234 90.829 29.8442C90.5371 29.165 90.3912 28.4343 90.3912 27.6521C90.3912 26.8837 90.5303 26.1599 90.8087 25.4806C91.087 24.8014 91.4706 24.2114 91.9594 23.7105C92.4482 23.2097 93.0287 22.8152 93.7008 22.527C94.3729 22.2388 95.0891 22.0948 95.8495 22.0948C96.5963 22.0948 97.2922 22.2423 97.9371 22.5373C98.5821 22.8323 99.1388 23.2337 99.6072 23.7414C100.076 24.2491 100.442 24.8563 100.707 25.563C100.972 26.2696 101.104 27.0346 101.104 27.8579V28.5989H93.2018C93.3919 29.2713 93.7585 29.8133 94.3016 30.225C94.8447 30.6366 95.4829 30.8425 96.2161 30.8425C96.6778 30.8425 97.1123 30.767 97.5196 30.616C97.927 30.4651 98.2732 30.2524 98.5583 29.978ZM95.7884 24.4206C95.1502 24.4206 94.6003 24.6162 94.1387 25.0072C93.677 25.3983 93.3579 25.9232 93.1814 26.5818H98.375C98.1985 25.9506 97.876 25.4326 97.4076 25.0278C96.9392 24.623 96.3994 24.4206 95.7884 24.4206ZM102.021 31.7275L103.406 29.8545C104.03 30.2661 104.621 30.5714 105.178 30.7704C105.734 30.9694 106.291 31.0689 106.848 31.0689C107.472 31.0689 107.971 30.9659 108.345 30.7601C108.718 30.5543 108.905 30.2798 108.905 29.9368C108.905 29.6624 108.8 29.4428 108.589 29.2782C108.379 29.1135 108.043 28.9969 107.581 28.9282L105.544 28.6195C104.499 28.4548 103.701 28.1118 103.151 27.5904C102.601 27.0689 102.326 26.376 102.326 25.5115C102.326 24.4824 102.727 23.6591 103.528 23.0416C104.329 22.4241 105.402 22.1154 106.746 22.1154C107.52 22.1154 108.273 22.2286 109.007 22.455C109.74 22.6814 110.439 23.0141 111.104 23.4532L109.76 25.2645C109.176 24.9215 108.62 24.6642 108.09 24.4927C107.561 24.3211 107.024 24.2354 106.481 24.2354C105.979 24.2354 105.575 24.3314 105.269 24.5235C104.964 24.7156 104.811 24.9695 104.811 25.2851C104.811 25.5733 104.923 25.7962 105.147 25.954C105.371 26.1118 105.741 26.2251 106.257 26.2937L108.294 26.6024C109.326 26.7533 110.123 27.0964 110.687 27.6315C111.25 28.1667 111.532 28.8459 111.532 29.6692C111.532 30.1769 111.413 30.6469 111.176 31.0792C110.938 31.5114 110.616 31.8853 110.208 32.2009C109.801 32.5165 109.312 32.7635 108.742 32.9419C108.172 33.1203 107.554 33.2095 106.888 33.2095C105.924 33.2095 105.021 33.0825 104.18 32.8287C103.338 32.5748 102.618 32.2078 102.021 31.7275Z" fill="white"/>
<path d="M120.697 29.978L122.53 31.6657C121.879 32.2009 121.21 32.592 120.524 32.839C119.839 33.086 119.075 33.2094 118.233 33.2094C117.432 33.2094 116.682 33.0654 115.982 32.7772C115.283 32.4891 114.679 32.098 114.17 31.604C113.661 31.11 113.26 30.5234 112.968 29.8442C112.676 29.1649 112.53 28.4342 112.53 27.6521C112.53 26.8837 112.669 26.1598 112.948 25.4806C113.226 24.8014 113.61 24.2113 114.099 23.7105C114.587 23.2097 115.168 22.8151 115.84 22.527C116.512 22.2388 117.228 22.0947 117.989 22.0947C118.735 22.0947 119.431 22.2423 120.076 22.5373C120.721 22.8323 121.278 23.2337 121.746 23.7414C122.215 24.2491 122.581 24.8563 122.846 25.5629C123.111 26.2696 123.243 27.0346 123.243 27.8579V28.5989H115.341C115.531 29.2713 115.898 29.8133 116.441 30.2249C116.984 30.6366 117.622 30.8424 118.355 30.8424C118.817 30.8424 119.251 30.767 119.659 30.616C120.066 30.4651 120.412 30.2524 120.697 29.978ZM117.928 24.4206C117.289 24.4206 116.739 24.6161 116.278 25.0072C115.816 25.3983 115.497 25.9232 115.321 26.5818H120.514C120.338 25.9506 120.015 25.4326 119.547 25.0278C119.078 24.623 118.539 24.4206 117.928 24.4206ZM126.135 33.0036H123.019L127.093 27.5492L123.121 22.28H126.36L128.702 25.4703L131.024 22.28H134.16L130.25 27.508L134.404 33.0036H131.146L128.641 29.5869L126.135 33.0036ZM138.254 37.3054H135.464V22.28H138.213V23.1651C138.634 22.822 139.102 22.5647 139.618 22.3932C140.134 22.2217 140.671 22.1359 141.227 22.1359C141.974 22.1359 142.677 22.28 143.335 22.5681C143.994 22.8563 144.568 23.2474 145.056 23.7414C145.545 24.2354 145.929 24.8185 146.207 25.4909C146.486 26.1633 146.625 26.8837 146.625 27.6521C146.625 28.4205 146.482 29.1409 146.197 29.8133C145.912 30.4857 145.525 31.0688 145.036 31.5628C144.547 32.0568 143.967 32.4445 143.295 32.7258C142.623 33.0071 141.906 33.1477 141.146 33.1477C140.63 33.1477 140.124 33.0757 139.629 32.9316C139.133 32.7875 138.675 32.5782 138.254 32.3038V37.3054ZM140.779 24.5441C140.277 24.5441 139.809 24.6299 139.374 24.8014C138.94 24.9729 138.566 25.2233 138.254 25.5526V29.7721C138.553 30.074 138.923 30.3141 139.364 30.4925C139.805 30.6709 140.277 30.7601 140.779 30.7601C141.648 30.7601 142.382 30.4616 142.979 29.8647C143.576 29.2678 143.875 28.5303 143.875 27.6521C143.875 26.7739 143.573 26.0363 142.969 25.4394C142.365 24.8425 141.635 24.5441 140.779 24.5441ZM156.095 29.978L157.928 31.6657C157.277 32.2009 156.608 32.592 155.922 32.839C155.237 33.086 154.473 33.2094 153.631 33.2094C152.83 33.2094 152.08 33.0654 151.38 32.7772C150.681 32.4891 150.077 32.098 149.568 31.604C149.059 31.11 148.658 30.5234 148.366 29.8442C148.074 29.1649 147.928 28.4342 147.928 27.6521C147.928 26.8837 148.067 26.1598 148.346 25.4806C148.624 24.8014 149.008 24.2113 149.496 23.7105C149.985 23.2097 150.566 22.8151 151.238 22.527C151.91 22.2388 152.626 22.0947 153.387 22.0947C154.133 22.0947 154.829 22.2423 155.474 22.5373C156.119 22.8323 156.676 23.2337 157.144 23.7414C157.613 24.2491 157.979 24.8563 158.244 25.5629C158.509 26.2696 158.641 27.0346 158.641 27.8579V28.5989H150.739C150.929 29.2713 151.296 29.8133 151.839 30.2249C152.382 30.6366 153.02 30.8424 153.753 30.8424C154.215 30.8424 154.649 30.767 155.057 30.616C155.464 30.4651 155.81 30.2524 156.095 29.978ZM153.325 24.4206C152.687 24.4206 152.137 24.6161 151.676 25.0072C151.214 25.3983 150.895 25.9232 150.718 26.5818H155.912C155.736 25.9506 155.413 25.4326 154.945 25.0278C154.476 24.623 153.936 24.4206 153.325 24.4206ZM163.142 33.0036H160.352V22.28H163.142V23.4532C163.482 22.9867 163.893 22.6333 164.375 22.3932C164.857 22.1531 165.39 22.033 165.973 22.033C166.245 22.0467 166.472 22.0707 166.656 22.105C166.839 22.1393 166.999 22.1977 167.134 22.28V24.7499C166.931 24.6539 166.707 24.5818 166.462 24.5338C166.218 24.4858 165.967 24.4618 165.709 24.4618C165.166 24.4618 164.667 24.599 164.212 24.8734C163.757 25.1479 163.4 25.5458 163.142 26.0672V33.0036ZM170.25 29.978V24.647H168.071V22.28H170.25V19.5425L173.041 18.9044V22.28H176.055V24.647H173.041V29.4016C173.041 29.9093 173.149 30.2661 173.367 30.4719C173.584 30.6778 173.964 30.7807 174.507 30.7807C174.765 30.7807 175.01 30.7635 175.24 30.7292C175.471 30.6949 175.722 30.6297 175.994 30.5337V32.839C175.695 32.935 175.335 33.0139 174.915 33.0757C174.494 33.1374 174.134 33.1683 173.835 33.1683C172.654 33.1683 171.761 32.8973 171.157 32.3553C170.553 31.8132 170.25 31.0208 170.25 29.978Z" fill="#FF0000"/>
<path d="M26.551 3.78467V25.5064L45.1527 36.3635L45.1589 14.6364L26.551 3.78467Z" fill="#FF0000"/>
<path d="M7.94971 36.3678L26.5641 47.2286L45.1688 36.3769L26.5527 25.5081L7.94971 36.3678Z" fill="#DF0707"/>
<path d="M14.0198 11.096L20.0456 7.58177L26.5529 3.78711V25.5088L7.95129 36.3659L7.94507 14.6388L14.0198 11.096Z" fill="#FD5353"/>
<path d="M29.5668 16.0905L26.5532 10.8157L14.0213 18.1278L17.0349 23.4027L29.5668 16.0905Z" fill="white"/>
<path d="M39.0876 32.8181L36.074 27.5432L23.542 34.8554L26.5556 40.1303L39.0876 32.8181Z" fill="white"/>
<path d="M17.0288 27.5504L14.0151 32.8253L26.5471 40.1375L29.5607 34.8626L17.0288 27.5504Z" fill="white"/>
<path d="M39.0795 18.1337H33.0522V32.8226H39.0795V18.1337Z" fill="white"/>
<path d="M26.5478 10.8243L23.5342 16.0991L36.0661 23.4113L39.0797 18.1364L26.5478 10.8243Z" fill="white"/>
<path d="M14.0188 11.064L20.0534 7.54297L20.0568 32.4301L14.0188 32.814V11.064Z" fill="white"/>
</svg>
