<svg width="16" height="17" viewBox="0 0 16 17" fill="none" xmlns="http://www.w3.org/2000/svg">
<path d="M7.99987 10.4833C7.91098 10.4833 7.82498 10.4666 7.74187 10.4333C7.65831 10.4 7.58876 10.3555 7.5332 10.3L4.46654 7.2333C4.34431 7.11108 4.2832 6.95553 4.2832 6.76664C4.2832 6.57775 4.34431 6.42219 4.46654 6.29997C4.58876 6.17775 4.74431 6.11664 4.9332 6.11664C5.12209 6.11664 5.27765 6.17775 5.39987 6.29997L7.99987 8.89997L10.5999 6.29997C10.7221 6.17775 10.8776 6.11664 11.0665 6.11664C11.2554 6.11664 11.411 6.17775 11.5332 6.29997C11.6554 6.42219 11.7165 6.57775 11.7165 6.76664C11.7165 6.95553 11.6554 7.11108 11.5332 7.2333L8.46654 10.3C8.39987 10.3666 8.32765 10.4137 8.24987 10.4413C8.17209 10.4693 8.08876 10.4833 7.99987 10.4833Z" fill="white"/>
</svg>
