<svg width="170" height="45" viewBox="0 0 170 45" fill="none" xmlns="http://www.w3.org/2000/svg">
<path d="M54.9587 24.6521C54.9587 25.4205 54.8162 26.1409 54.531 26.8133C54.2459 27.4857 53.8589 28.0689 53.3701 28.5628C52.8813 29.0568 52.3008 29.4445 51.6287 29.7258C50.9566 30.0071 50.2404 30.1477 49.48 30.1477C48.9505 30.1477 48.4345 30.0722 47.9321 29.9213C47.4297 29.7704 46.9681 29.5577 46.5472 29.2832V30.0036H43.7976V15.5957L46.5879 14.9782V20.1239C47.0088 19.8083 47.4739 19.5647 47.983 19.3932C48.4922 19.2217 49.0184 19.1359 49.5615 19.1359C50.3083 19.1359 51.0109 19.28 51.6695 19.5682C52.328 19.8563 52.9017 20.2474 53.3905 20.7414C53.8793 21.2354 54.2629 21.8186 54.5412 22.4909C54.8196 23.1633 54.9587 23.8837 54.9587 24.6521ZM49.1134 21.5441C48.611 21.5441 48.1426 21.6299 47.7081 21.8014C47.2736 21.9729 46.9002 22.2233 46.5879 22.5527V26.7721C46.8866 27.074 47.2566 27.3142 47.6979 27.4925C48.1392 27.6709 48.611 27.7601 49.1134 27.7601C49.9824 27.7601 50.7156 27.4617 51.313 26.8648C51.9105 26.2679 52.2092 25.5303 52.2092 24.6521C52.2092 23.7739 51.9071 23.0364 51.3029 22.4395C50.6986 21.8426 49.9688 21.5441 49.1134 21.5441ZM58.0545 18.0039C57.62 18.0039 57.2467 17.8461 56.9344 17.5305C56.6221 17.2149 56.4659 16.8375 56.4659 16.3984C56.4659 15.9593 56.6221 15.582 56.9344 15.2664C57.2467 14.9508 57.62 14.793 58.0545 14.793C58.489 14.793 58.8624 14.9508 59.1747 15.2664C59.487 15.582 59.6432 15.9593 59.6432 16.3984C59.6432 16.8375 59.487 17.2149 59.1747 17.5305C58.8624 17.8461 58.489 18.0039 58.0545 18.0039ZM56.6696 19.28H59.4599V30.0036H56.6696V19.28ZM70.1322 30.0036H61.0892V28.0071L66.4254 21.647H61.13V19.28H70.01V21.2765L64.6331 27.6366H70.1322V30.0036ZM74.5926 30.0036H71.8023V19.28H74.5926V20.1239C74.9999 19.7809 75.4514 19.5201 75.947 19.3418C76.4426 19.1634 76.9823 19.0742 77.5662 19.0742C78.7882 19.0742 79.793 19.4721 80.5805 20.268C81.368 21.0638 81.7618 22.0861 81.7618 23.3348V30.0036H78.9715V23.7465C78.9715 23.0741 78.7712 22.5321 78.3707 22.1204C77.9701 21.7088 77.4372 21.5029 76.7719 21.5029C76.3102 21.5029 75.8927 21.5956 75.5193 21.7808C75.1459 21.9661 74.837 22.2302 74.5926 22.5733V30.0036ZM91.5583 26.978L93.3914 28.6658C92.7396 29.2009 92.0709 29.592 91.3852 29.839C90.6995 30.086 89.9358 30.2095 89.0939 30.2095C88.2928 30.2095 87.5426 30.0654 86.8434 29.7772C86.1441 29.4891 85.5399 29.098 85.0307 28.604C84.5215 28.11 84.121 27.5234 83.829 26.8442C83.5371 26.165 83.3912 25.4343 83.3912 24.6521C83.3912 23.8837 83.5303 23.1599 83.8087 22.4806C84.087 21.8014 84.4706 21.2114 84.9594 20.7105C85.4482 20.2097 86.0287 19.8152 86.7008 19.527C87.3729 19.2388 88.0891 19.0948 88.8495 19.0948C89.5963 19.0948 90.2922 19.2423 90.9371 19.5373C91.5821 19.8323 92.1388 20.2337 92.6072 20.7414C93.0757 21.2491 93.4423 21.8563 93.7071 22.563C93.9718 23.2696 94.1042 24.0346 94.1042 24.8579V25.5989H86.2018C86.3919 26.2713 86.7585 26.8133 87.3016 27.225C87.8447 27.6366 88.4829 27.8425 89.2161 27.8425C89.6778 27.8425 90.1123 27.767 90.5196 27.616C90.927 27.4651 91.2732 27.2524 91.5583 26.978ZM88.7884 21.4206C88.1502 21.4206 87.6003 21.6162 87.1387 22.0072C86.677 22.3983 86.3579 22.9232 86.1814 23.5818H91.375C91.1985 22.9506 90.876 22.4326 90.4076 22.0278C89.9392 21.623 89.3994 21.4206 88.7884 21.4206ZM95.0207 28.7275L96.4057 26.8545C97.0303 27.2661 97.6209 27.5714 98.1776 27.7704C98.7343 27.9694 99.291 28.0689 99.8477 28.0689C100.472 28.0689 100.971 27.9659 101.345 27.7601C101.718 27.5543 101.905 27.2798 101.905 26.9368C101.905 26.6624 101.8 26.4428 101.589 26.2782C101.379 26.1135 101.043 25.9969 100.581 25.9282L98.5442 25.6195C97.4987 25.4548 96.701 25.1118 96.1511 24.5904C95.6012 24.0689 95.3262 23.376 95.3262 22.5115C95.3262 21.4824 95.7268 20.6591 96.5279 20.0416C97.329 19.4241 98.4017 19.1154 99.7459 19.1154C100.52 19.1154 101.273 19.2286 102.007 19.455C102.74 19.6814 103.439 20.0141 104.104 20.4532L102.76 22.2645C102.176 21.9215 101.62 21.6642 101.09 21.4927C100.561 21.3211 100.024 21.2354 99.4811 21.2354C98.9787 21.2354 98.5748 21.3314 98.2693 21.5235C97.9638 21.7156 97.811 21.9695 97.811 22.2851C97.811 22.5733 97.9231 22.7962 98.1471 22.954C98.3711 23.1118 98.7411 23.2251 99.2571 23.2937L101.294 23.6024C102.326 23.7533 103.123 24.0964 103.687 24.6315C104.25 25.1667 104.532 25.8459 104.532 26.6692C104.532 27.1769 104.413 27.6469 104.176 28.0792C103.938 28.5114 103.616 28.8853 103.208 29.2009C102.801 29.5165 102.312 29.7635 101.742 29.9419C101.172 30.1203 100.554 30.2095 99.8885 30.2095C98.9244 30.2095 98.0215 30.0825 97.1796 29.8287C96.3378 29.5748 95.6182 29.2078 95.0207 28.7275Z" fill="black"/>
<path d="M113.697 26.978L115.53 28.6658C114.879 29.2009 114.21 29.592 113.524 29.839C112.839 30.086 112.075 30.2095 111.233 30.2095C110.432 30.2095 109.682 30.0654 108.982 29.7772C108.283 29.4891 107.679 29.098 107.17 28.604C106.66 28.11 106.26 27.5234 105.968 26.8442C105.676 26.165 105.53 25.4343 105.53 24.6521C105.53 23.8837 105.669 23.1599 105.948 22.4806C106.226 21.8014 106.61 21.2114 107.098 20.7105C107.587 20.2097 108.168 19.8152 108.84 19.527C109.512 19.2389 110.228 19.0948 110.988 19.0948C111.735 19.0948 112.431 19.2423 113.076 19.5373C113.721 19.8323 114.278 20.2337 114.746 20.7414C115.215 21.2491 115.581 21.8563 115.846 22.563C116.111 23.2696 116.243 24.0346 116.243 24.858V25.5989H108.341C108.531 26.2713 108.897 26.8133 109.441 27.225C109.984 27.6366 110.622 27.8425 111.355 27.8425C111.817 27.8425 112.251 27.767 112.659 27.616C113.066 27.4651 113.412 27.2524 113.697 26.978ZM110.927 21.4206C110.289 21.4206 109.739 21.6162 109.278 22.0072C108.816 22.3983 108.497 22.9232 108.32 23.5818H113.514C113.337 22.9506 113.015 22.4326 112.547 22.0278C112.078 21.623 111.538 21.4206 110.927 21.4206ZM119.135 30.0036H116.019L120.093 24.5492L116.121 19.28H119.359L121.702 22.4704L124.023 19.28H127.16L123.249 24.508L127.404 30.0036H124.146L121.64 26.5869L119.135 30.0036ZM131.254 34.3054H128.463V19.28H131.213V20.1651C131.634 19.822 132.102 19.5647 132.618 19.3932C133.134 19.2217 133.671 19.1359 134.227 19.1359C134.974 19.1359 135.677 19.28 136.335 19.5682C136.994 19.8563 137.567 20.2474 138.056 20.7414C138.545 21.2354 138.929 21.8186 139.207 22.4909C139.485 23.1633 139.625 23.8837 139.625 24.6521C139.625 25.4205 139.482 26.1409 139.197 26.8133C138.912 27.4857 138.525 28.0689 138.036 28.5628C137.547 29.0568 136.967 29.4445 136.295 29.7258C135.622 30.0071 134.906 30.1477 134.146 30.1477C133.63 30.1477 133.124 30.0757 132.628 29.9316C132.133 29.7875 131.675 29.5783 131.254 29.3038V34.3054ZM133.779 21.5441C133.277 21.5441 132.808 21.6299 132.374 21.8014C131.939 21.9729 131.566 22.2233 131.254 22.5527V26.7721C131.552 27.074 131.922 27.3142 132.364 27.4925C132.805 27.6709 133.277 27.7601 133.779 27.7601C134.648 27.7601 135.381 27.4617 135.979 26.8648C136.576 26.2679 136.875 25.5303 136.875 24.6521C136.875 23.7739 136.573 23.0364 135.969 22.4395C135.364 21.8426 134.635 21.5441 133.779 21.5441ZM149.095 26.978L150.928 28.6658C150.277 29.2009 149.608 29.592 148.922 29.839C148.236 30.086 147.473 30.2095 146.631 30.2095C145.83 30.2095 145.08 30.0654 144.38 29.7772C143.681 29.4891 143.077 29.098 142.568 28.604C142.058 28.11 141.658 27.5234 141.366 26.8442C141.074 26.165 140.928 25.4343 140.928 24.6521C140.928 23.8837 141.067 23.1599 141.346 22.4806C141.624 21.8014 142.008 21.2114 142.496 20.7105C142.985 20.2097 143.566 19.8152 144.238 19.527C144.91 19.2389 145.626 19.0948 146.386 19.0948C147.133 19.0948 147.829 19.2423 148.474 19.5373C149.119 19.8323 149.676 20.2337 150.144 20.7414C150.613 21.2491 150.979 21.8563 151.244 22.563C151.509 23.2696 151.641 24.0346 151.641 24.858V25.5989H143.739C143.929 26.2713 144.295 26.8133 144.839 27.225C145.382 27.6366 146.02 27.8425 146.753 27.8425C147.215 27.8425 147.649 27.767 148.057 27.616C148.464 27.4651 148.81 27.2524 149.095 26.978ZM146.325 21.4206C145.687 21.4206 145.137 21.6162 144.676 22.0072C144.214 22.3983 143.895 22.9232 143.718 23.5818H148.912C148.735 22.9506 148.413 22.4326 147.945 22.0278C147.476 21.623 146.936 21.4206 146.325 21.4206ZM156.142 30.0036H153.352V19.28H156.142V20.4532C156.482 19.9867 156.892 19.6333 157.374 19.3932C157.856 19.1531 158.389 19.033 158.973 19.033C159.245 19.0467 159.472 19.0708 159.656 19.1051C159.839 19.1394 159.998 19.1977 160.134 19.28V21.7499C159.931 21.6539 159.706 21.5819 159.462 21.5338C159.218 21.4858 158.966 21.4618 158.708 21.4618C158.165 21.4618 157.666 21.599 157.212 21.8734C156.757 22.1479 156.4 22.5458 156.142 23.0672V30.0036ZM163.25 26.978V21.647H161.071V19.28H163.25V16.5425L166.041 15.9044V19.28H169.055V21.647H166.041V26.4016C166.041 26.9094 166.149 27.2661 166.367 27.472C166.584 27.6778 166.964 27.7807 167.507 27.7807C167.765 27.7807 168.009 27.7636 168.24 27.7292C168.471 27.6949 168.722 27.6298 168.994 27.5337V29.839C168.695 29.935 168.335 30.0139 167.914 30.0757C167.493 30.1374 167.134 30.1683 166.835 30.1683C165.654 30.1683 164.761 29.8973 164.157 29.3553C163.552 28.8133 163.25 28.0208 163.25 26.978Z" fill="#FF0000"/>
<path d="M19.5509 0.784672V22.5064L38.1526 33.3635L38.1588 11.6364L19.5509 0.784672Z" fill="#FF0000"/>
<path d="M0.949554 33.3678L19.5639 44.2286L38.1687 33.3769L19.5526 22.5081L0.949554 33.3678Z" fill="#DF0707"/>
<path d="M7.01979 8.09594L13.0456 4.58171L19.5529 0.787052V22.5087L0.951262 33.3659L0.945038 11.6387L7.01979 8.09594Z" fill="#FD5353"/>
<path d="M22.5669 13.0905L19.5533 7.81564L7.02131 15.1278L10.0349 20.4027L22.5669 13.0905Z" fill="white"/>
<path d="M32.0876 29.818L29.074 24.5432L16.542 31.8553L19.5556 37.1302L32.0876 29.818Z" fill="white"/>
<path d="M10.0287 24.5504L7.01511 29.8253L19.547 37.1375L22.5607 31.8626L10.0287 24.5504Z" fill="white"/>
<path d="M32.0795 15.1337H26.0522V29.8227H32.0795V15.1337Z" fill="white"/>
<path d="M19.5478 7.82422L16.5342 13.0991L29.0661 20.4113L32.0797 15.1364L19.5478 7.82422Z" fill="white"/>
<path d="M7.01865 8.0641L13.0532 4.54302L13.0566 29.4302L7.01865 29.8141V8.0641Z" fill="white"/>
</svg>
