<svg width="19" height="32" viewBox="0 0 19 32" fill="none" xmlns="http://www.w3.org/2000/svg">
<path d="M18.0833 0.833252C18.5 1.24992 18.7083 1.74325 18.7083 2.31325C18.7083 2.88214 18.5 3.37492 18.0833 3.79158L5.87501 15.9999L18.125 28.2499C18.5139 28.6388 18.7083 29.1249 18.7083 29.7083C18.7083 30.2916 18.5 30.7916 18.0833 31.2083C17.6667 31.6249 17.1733 31.8333 16.6033 31.8333C16.0345 31.8333 15.5417 31.6249 15.125 31.2083L1.12501 17.1666C0.958342 16.9999 0.84001 16.8194 0.77001 16.6249C0.70112 16.4305 0.666676 16.2221 0.666676 15.9999C0.666676 15.7777 0.70112 15.5694 0.77001 15.3749C0.84001 15.1805 0.958342 14.9999 1.12501 14.8333L15.1667 0.791586C15.5556 0.402697 16.0345 0.208252 16.6033 0.208252C17.1733 0.208252 17.6667 0.416586 18.0833 0.833252Z" fill="#A7A7A7"/>
</svg>
