<svg width="571" height="540" viewBox="0 0 571 540" fill="none" xmlns="http://www.w3.org/2000/svg">
<path d="M286.334 519.511C404.799 519.511 500.834 464.956 500.834 397.658C500.834 330.361 404.799 275.805 286.334 275.805C167.868 275.805 71.8336 330.361 71.8336 397.658C71.8336 464.956 167.868 519.511 286.334 519.511Z" fill="#F5F5F5"/>
<path d="M375.595 474.489L215.479 382.038C214.071 381.226 212.901 380.058 212.088 378.65C211.274 377.243 210.846 375.646 210.846 374.02C210.846 372.395 211.274 370.798 212.088 369.39C212.901 367.983 214.071 366.815 215.479 366.003L231.274 356.043C234.001 354.473 237.092 353.646 240.239 353.646C243.385 353.646 246.476 354.473 249.203 356.043L409.34 448.505C410.749 449.316 411.919 450.485 412.732 451.892C413.546 453.3 413.974 454.897 413.974 456.522C413.974 458.148 413.546 459.745 412.732 461.152C411.919 462.56 410.749 463.728 409.34 464.539L393.545 474.489C390.818 476.067 387.722 476.899 384.57 476.899C381.419 476.899 378.323 476.067 375.595 474.489Z" fill="#E0E0E0"/>
<path d="M132.14 390.201C151.33 390.201 166.886 381.268 166.886 370.248C166.886 359.228 151.33 350.295 132.14 350.295C112.949 350.295 97.3928 359.228 97.3928 370.248C97.3928 381.268 112.949 390.201 132.14 390.201Z" fill="#E6E6E6"/>
<path d="M432.374 394.774L447.614 403.537C447.614 403.537 439.831 379.077 443.978 354.421C445.546 345.103 448.909 340.477 450.085 337.984C451.261 335.491 460.372 320.088 452.262 313.034C444.152 305.98 425.288 320.164 426.311 358.122C426.776 370.547 428.814 382.862 432.374 394.774Z" fill="#DF0707"/>
<path opacity="0.5" d="M432.374 394.774L447.614 403.537C447.614 403.537 439.831 379.077 443.978 354.421C445.546 345.103 448.909 340.477 450.085 337.984C451.261 335.491 460.372 320.088 452.262 313.034C444.152 305.98 425.288 320.164 426.311 358.122C426.776 370.547 428.814 382.862 432.374 394.774Z" fill="black"/>
<path d="M439.461 399.39C439.35 399.392 439.241 399.36 439.149 399.297C439.057 399.235 438.988 399.145 438.949 399.041C438.895 398.878 433.071 382.963 433.256 357.382C433.441 331.801 446.885 317.911 447.015 317.781C447.066 317.73 447.126 317.689 447.192 317.661C447.259 317.634 447.33 317.62 447.402 317.62C447.474 317.62 447.545 317.634 447.611 317.661C447.677 317.689 447.738 317.73 447.788 317.781C447.839 317.831 447.88 317.891 447.907 317.958C447.935 318.024 447.949 318.095 447.949 318.167C447.949 318.239 447.935 318.31 447.907 318.376C447.88 318.443 447.839 318.503 447.788 318.553C447.658 318.684 434.53 332.16 434.344 357.393C434.159 382.626 439.907 398.519 439.972 398.671C440.021 398.807 440.014 398.957 439.953 399.087C439.892 399.218 439.781 399.319 439.646 399.368C439.586 399.386 439.523 399.394 439.461 399.39Z" fill="white"/>
<path d="M438.731 398.518L459.566 410.492C461.737 411.776 464.312 412.194 466.777 411.663C469.243 411.132 471.418 409.692 472.868 407.629C474.248 405.484 474.829 402.922 474.512 400.39C473.511 389.57 468.808 387.077 474.567 382.255C480.325 377.433 481.827 377.095 481.501 372.458C481.174 367.821 478.006 365.796 476.504 363.967C475.002 362.139 470.844 358.307 473.674 352.646C476.504 346.986 480.369 341.51 474.512 339.007C471.018 337.505 465.194 339.508 461.362 343.666C457.531 347.824 454.374 350.818 450.705 351.819C447.037 352.821 439.395 352.984 439.722 359.308C440.049 365.633 441.725 367.799 440.223 370.618C437.392 375.887 425.081 378.881 438.731 398.518Z" fill="#DF0707"/>
<path d="M449.029 404.963C448.893 404.958 448.764 404.906 448.664 404.814C448.564 404.722 448.5 404.597 448.485 404.462C448.485 404.092 445.284 366.733 470.974 341.87C471.08 341.783 471.215 341.739 471.352 341.747C471.49 341.755 471.619 341.814 471.714 341.913C471.809 342.012 471.863 342.144 471.865 342.281C471.867 342.419 471.817 342.552 471.725 342.654C446.406 367.157 449.541 403.994 449.573 404.364C449.585 404.507 449.541 404.649 449.449 404.759C449.357 404.869 449.226 404.938 449.083 404.952L449.029 404.963Z" fill="white"/>
<path d="M453.155 372.807C453.018 372.807 452.885 372.756 452.785 372.663C452.684 372.57 452.621 372.443 452.611 372.306C452.383 369.411 451.567 366.593 450.214 364.023C448.861 361.453 446.998 359.186 444.74 357.36C444.681 357.319 444.631 357.267 444.593 357.206C444.554 357.145 444.528 357.077 444.516 357.007C444.504 356.936 444.506 356.863 444.522 356.793C444.538 356.723 444.568 356.657 444.61 356.598C444.65 356.54 444.701 356.49 444.761 356.452C444.821 356.413 444.888 356.387 444.958 356.375C445.028 356.363 445.099 356.365 445.169 356.381C445.238 356.397 445.303 356.426 445.361 356.468C447.767 358.376 449.751 360.763 451.186 363.479C452.622 366.194 453.477 369.178 453.699 372.241C453.711 372.386 453.665 372.531 453.572 372.643C453.478 372.755 453.344 372.826 453.198 372.84L453.155 372.807Z" fill="white"/>
<path d="M451.38 379.218C451.249 379.22 451.121 379.173 451.021 379.088C450.913 378.992 450.847 378.857 450.837 378.712C450.827 378.568 450.873 378.425 450.967 378.315C451.228 378.01 457.661 370.913 472.738 372.796C472.881 372.815 473.01 372.89 473.098 373.004C473.186 373.118 473.224 373.263 473.206 373.406C473.187 373.549 473.112 373.68 472.999 373.769C472.885 373.859 472.74 373.9 472.596 373.885C458.119 372.067 451.838 378.968 451.772 379.033C451.723 379.089 451.662 379.134 451.595 379.166C451.528 379.198 451.455 379.215 451.38 379.218Z" fill="white"/>
<path d="M370.719 463.439L229.903 382.135C219.964 376.398 211.909 361.006 211.909 347.759V46.2284C211.909 32.9807 219.964 26.8957 229.903 32.6324L370.719 113.937C380.657 119.673 388.712 135.066 388.712 148.313V449.843C388.712 463.08 380.657 469.176 370.719 463.439Z" fill="#455A64"/>
<path d="M386.938 104.456L246.112 23.1515C241.866 20.7022 237.969 20.4192 234.889 21.9214C234.511 22.1103 234.148 22.3249 233.8 22.5637L218.016 31.7402C221.195 29.8352 225.353 29.9767 229.914 32.611L370.73 113.915C380.668 119.652 388.723 135.044 388.723 148.292V449.822C388.723 456.832 386.47 461.796 382.878 464.147L398.455 455.08C402.428 452.968 404.986 447.797 404.986 440.384V138.854C404.986 125.585 396.877 110.192 386.938 104.456Z" fill="#37474F"/>
<path d="M388.712 148.291V449.821C388.712 456.832 386.459 461.796 382.867 464.147L398.455 455.079C402.428 452.967 404.986 447.797 404.986 440.384V138.854L388.767 148.27L388.712 148.291Z" fill="#263238"/>
<path d="M404.932 162.247L388.713 171.609V178.924L404.932 169.551V162.247Z" fill="#37474F"/>
<path d="M397.824 210.895C396.376 211.733 395.2 210.84 395.2 208.913V193.184C395.215 192.2 395.46 191.234 395.916 190.363C396.371 189.491 397.025 188.739 397.824 188.165C399.272 187.327 400.447 188.165 400.447 190.147V205.876C400.432 206.86 400.187 207.826 399.732 208.697C399.276 209.569 398.623 210.321 397.824 210.895Z" fill="#37474F"/>
<path d="M395.189 208.957V193.184C395.204 192.201 395.449 191.235 395.905 190.363C396.36 189.492 397.014 188.739 397.813 188.166C398.052 187.999 398.33 187.897 398.62 187.87C398.91 187.843 399.202 187.893 399.467 188.013L397.497 187.001C397.228 186.871 396.929 186.815 396.631 186.838C396.332 186.861 396.046 186.962 395.799 187.132C394.999 187.705 394.345 188.457 393.887 189.329C393.43 190.2 393.182 191.166 393.165 192.15V207.869C393.124 208.266 393.184 208.667 393.34 209.034C393.497 209.401 393.743 209.723 394.057 209.97L396.115 211.058C395.787 210.822 395.529 210.503 395.366 210.134C395.203 209.764 395.142 209.358 395.189 208.957Z" fill="#455A64"/>
<path d="M397.824 248.961C396.376 249.799 395.2 248.961 395.2 246.98V231.25C395.216 230.267 395.461 229.301 395.917 228.43C396.372 227.559 397.025 226.806 397.824 226.232C399.272 225.394 400.447 226.232 400.447 228.224V243.943C400.434 244.927 400.19 245.893 399.734 246.765C399.278 247.637 398.624 248.389 397.824 248.961Z" fill="#37474F"/>
<path d="M395.189 246.98V231.25C395.205 230.267 395.45 229.301 395.906 228.43C396.361 227.559 397.014 226.806 397.813 226.232C398.053 226.068 398.331 225.968 398.62 225.941C398.91 225.915 399.201 225.962 399.467 226.08L397.497 225.057C397.229 224.921 396.929 224.862 396.63 224.885C396.33 224.908 396.043 225.012 395.799 225.187C394.997 225.759 394.341 226.511 393.884 227.382C393.426 228.254 393.18 229.221 393.165 230.205V245.968C393.123 246.365 393.183 246.766 393.339 247.134C393.495 247.501 393.742 247.823 394.057 248.069L396.115 249.157C395.774 248.916 395.507 248.584 395.343 248.2C395.18 247.815 395.127 247.393 395.189 246.98Z" fill="#455A64"/>
<path d="M365.798 122.395L227.421 42.4733C226.844 42.141 226.189 41.9656 225.523 41.9644C224.857 41.9631 224.202 42.1361 223.623 42.4662C223.044 42.7963 222.562 43.272 222.224 43.8461C221.886 44.4202 221.703 45.0727 221.695 45.7389V347.759C221.695 357.839 228.847 370.216 237.577 375.256L372.558 453.229C373.198 453.597 373.924 453.791 374.663 453.79C375.401 453.79 376.127 453.595 376.766 453.226C377.406 452.856 377.937 452.325 378.307 451.686C378.676 451.046 378.871 450.321 378.872 449.582V145.07C378.926 136.753 373.026 126.553 365.798 122.395Z" fill="#DF0707"/>
<path opacity="0.9" d="M365.798 122.395L227.421 42.4733C226.844 42.141 226.189 41.9656 225.523 41.9644C224.857 41.9631 224.202 42.1361 223.623 42.4662C223.044 42.7963 222.562 43.272 222.224 43.8461C221.886 44.4202 221.703 45.0727 221.695 45.7389V347.759C221.695 357.839 228.847 370.216 237.577 375.256L372.558 453.229C373.198 453.597 373.924 453.791 374.663 453.79C375.401 453.79 376.127 453.595 376.766 453.226C377.406 452.856 377.937 452.325 378.307 451.686C378.676 451.046 378.871 450.321 378.872 449.582V145.07C378.926 136.753 373.026 126.553 365.798 122.395Z" fill="white"/>
<path d="M268.808 63.3403L270.952 72.3645L316.824 98.8164L324.749 94.5928L268.808 63.3403Z" fill="#455A64"/>
<path d="M282.295 72.0604C282.295 73.5626 281.207 74.1613 279.944 73.4211C279.266 72.971 278.703 72.3683 278.3 71.6612C277.898 70.9541 277.666 70.1625 277.625 69.3499C277.625 67.8585 278.714 67.249 279.977 68.0001C280.654 68.4478 281.217 69.0485 281.62 69.7538C282.023 70.4591 282.254 71.2492 282.295 72.0604Z" fill="#263238"/>
<path d="M313.199 91.1641C312.948 91.1621 312.702 91.0986 312.481 90.9791L289.055 77.9164C288.724 77.7222 288.483 77.4063 288.382 77.0363C288.281 76.6662 288.328 76.2714 288.514 75.936C288.701 75.6007 289.01 75.3514 289.378 75.2414C289.745 75.1314 290.141 75.1695 290.481 75.3474L313.918 88.4101C314.203 88.5684 314.427 88.817 314.555 89.1167C314.683 89.4164 314.708 89.7502 314.626 90.0655C314.543 90.3809 314.359 90.66 314.1 90.8589C313.842 91.0578 313.525 91.1652 313.199 91.1641Z" fill="#263238"/>
<path d="M250.716 105.326C249.29 104.499 248.256 105.218 248.256 107.036C248.256 107.945 248.481 108.84 248.91 109.641C249.339 110.442 249.96 111.125 250.716 111.629C251.121 111.875 251.586 112.005 252.061 112.005C252.535 112.005 253 111.875 253.405 111.629L255.68 115.744C254.88 116.186 253.972 116.396 253.059 116.352C252.146 116.308 251.263 116.011 250.509 115.494C248.661 114.363 247.12 112.794 246.023 110.926C244.925 109.057 244.305 106.947 244.218 104.782C244.218 100.744 246.928 99.3394 250.662 101.517C252.77 102.874 254.498 104.748 255.68 106.959L253.405 108.766C252.844 107.393 251.913 106.203 250.716 105.326Z" fill="#DF0707"/>
<path d="M268.775 118.966C268.775 123.037 266.021 124.408 262.244 122.231C260.343 121.095 258.752 119.507 257.613 117.608C256.473 115.709 255.82 113.558 255.713 111.346C255.713 107.274 258.467 105.903 262.244 108.08C264.15 109.211 265.744 110.798 266.884 112.698C268.024 114.598 268.674 116.752 268.775 118.966ZM259.751 113.773C259.77 114.708 260.011 115.624 260.454 116.448C260.897 117.271 261.529 117.977 262.298 118.508C263.648 119.292 264.737 118.508 264.737 116.658C264.733 115.744 264.51 114.845 264.085 114.036C263.661 113.227 263.048 112.532 262.298 112.01C260.927 111.215 259.751 111.89 259.751 113.773Z" fill="#DF0707"/>
<path d="M273.162 114.645L277.865 124.442V117.388L281.424 119.445V133.172L278.159 131.278L273.478 121.568V128.578L269.897 126.51V112.75L273.162 114.645Z" fill="#DF0707"/>
<path d="M293.061 126.129V129.721L289.665 127.761V137.907L285.735 135.632V125.486L282.36 123.538V119.957L293.061 126.129Z" fill="#DF0707"/>
<path d="M300.724 142.348L296.261 139.768L295.652 141.357L291.624 139.028L296.642 128.197L300.681 130.526L305.514 147.051L301.323 144.634L300.724 142.348ZM299.756 138.538L298.536 133.846L297.285 137.112L299.756 138.538Z" fill="#DF0707"/>
<path d="M311.752 140.563C310.326 139.746 309.291 140.454 309.291 142.283C309.293 143.191 309.519 144.086 309.948 144.887C310.377 145.688 310.996 146.371 311.752 146.876C312.16 147.12 312.626 147.249 313.101 147.249C313.577 147.249 314.043 147.12 314.451 146.876L316.726 150.991C315.922 151.428 315.014 151.635 314.101 151.591C313.187 151.547 312.303 151.253 311.545 150.741C309.695 149.609 308.153 148.038 307.055 146.168C305.958 144.298 305.339 142.185 305.253 140.019C305.253 135.98 307.974 134.576 311.697 136.753C313.803 138.117 315.532 139.989 316.726 142.196L314.451 143.992C313.878 142.626 312.945 141.441 311.752 140.563Z" fill="#DF0707"/>
<path d="M327.46 145.995V149.576L324.063 147.617V157.795L320.134 155.519V145.374L316.759 143.426V139.844L327.46 145.995Z" fill="#DF0707"/>
<path d="M339.074 162.846C340.043 163.401 340.783 162.966 340.783 161.605V153.691L344.724 155.955V163.869C344.724 167.516 342.547 168.604 339.063 166.612C337.385 165.68 335.974 164.333 334.966 162.7C333.958 161.066 333.386 159.201 333.305 157.283V149.37L337.246 151.645V159.559C337.261 160.214 337.435 160.855 337.754 161.428C338.072 162.001 338.526 162.488 339.074 162.846Z" fill="#DF0707"/>
<path d="M351.07 162.889C350.624 162.639 350.341 162.628 350.341 163.042C350.341 164.762 356.491 167.243 356.491 172.218C356.491 175.266 354.173 175.277 351.495 173.731C349.141 172.289 347.113 170.372 345.54 168.103L346.999 165.534C348.196 167.388 349.732 168.998 351.527 170.28C352.104 170.618 352.474 170.618 352.474 170.128C352.474 168.343 346.313 165.97 346.313 161.148C346.313 158.404 348.316 157.882 351.408 159.624C353.399 160.828 355.152 162.389 356.578 164.228L355.152 166.862C353.974 165.362 352.602 164.026 351.07 162.889Z" fill="#DF0707"/>
<path d="M230.915 172.969C235.332 167.545 237.555 160.662 237.146 153.678C236.738 146.695 233.726 140.118 228.707 135.246C223.687 130.374 217.024 127.56 210.031 127.359C203.039 127.159 196.225 129.586 190.934 134.162C185.644 138.739 182.26 145.132 181.452 152.08C180.643 159.029 182.468 166.028 186.566 171.697C190.665 177.366 196.739 181.293 203.591 182.703C210.443 184.114 217.574 182.905 223.578 179.316L237.207 185.237L230.915 172.969Z" fill="#DF0707"/>
<path opacity="0.4" d="M230.915 172.969C235.332 167.545 237.555 160.662 237.146 153.678C236.738 146.695 233.726 140.118 228.707 135.246C223.687 130.374 217.024 127.56 210.031 127.359C203.039 127.159 196.225 129.586 190.934 134.162C185.644 138.739 182.26 145.132 181.452 152.08C180.643 159.029 182.468 166.028 186.566 171.697C190.665 177.366 196.739 181.293 203.591 182.703C210.443 184.114 217.574 182.905 223.578 179.316L237.207 185.237L230.915 172.969Z" fill="black"/>
<path d="M198.868 153.811C198.868 153.386 198.563 153.147 198.008 153.147C196.72 153.316 195.518 153.883 194.568 154.769L193.022 151.764C194.65 150.54 196.615 149.848 198.65 149.783C201.263 149.783 203.244 151.155 203.244 153.201C203.244 154.66 202.155 156.064 200.762 157.468L198.814 159.395H203.418V162.596H193.523V159.972L197.932 155.411C198.407 154.991 198.735 154.43 198.868 153.811Z" fill="white"/>
<path d="M211.474 149.968L208.469 157.174H209.699V154.747H213.487V157.174H214.924V160.146H213.487V162.596H209.699V160.146H204.311V157.447L207.577 149.968H211.474Z" fill="white"/>
<path d="M226.616 156.314V162.595H222.566V157.479C222.589 157.312 222.577 157.143 222.529 156.981C222.481 156.82 222.399 156.671 222.289 156.544C222.178 156.417 222.042 156.315 221.889 156.246C221.736 156.176 221.57 156.14 221.401 156.14C220.607 156.14 220.106 156.761 220.106 157.718V162.595H216.057V149.25H220.106V154.159C220.423 153.658 220.864 153.248 221.387 152.97C221.91 152.691 222.496 152.553 223.089 152.57C223.574 152.557 224.056 152.647 224.505 152.834C224.953 153.021 225.357 153.3 225.689 153.653C226.022 154.007 226.277 154.426 226.436 154.885C226.596 155.343 226.657 155.831 226.616 156.314Z" fill="white"/>
<path d="M358.657 257.463V392.716C358.66 394.246 358.259 395.749 357.495 397.075C356.732 398.401 355.633 399.502 354.309 400.268C352.984 401.033 351.482 401.437 349.952 401.438C348.422 401.438 346.919 401.036 345.595 400.271L272.748 358.209L259.838 350.763C255.393 348.193 251.7 344.5 249.128 340.055C246.557 335.61 245.198 330.568 245.186 325.433V190.169C245.184 188.639 245.585 187.135 246.348 185.81C247.111 184.484 248.211 183.383 249.535 182.617C250.859 181.851 252.362 181.448 253.891 181.447C255.421 181.447 256.924 181.849 258.249 182.614L344.027 232.132C348.475 234.699 352.168 238.391 354.736 242.837C357.304 247.284 358.657 252.328 358.657 257.463Z" fill="#DF0707"/>
<path opacity="0.5" d="M358.657 257.463V392.716C358.66 394.246 358.259 395.749 357.495 397.075C356.732 398.401 355.633 399.502 354.309 400.268C352.984 401.033 351.482 401.437 349.952 401.438C348.422 401.438 346.919 401.036 345.595 400.271L272.748 358.209L259.838 350.763C255.393 348.193 251.7 344.5 249.128 340.055C246.557 335.61 245.198 330.568 245.186 325.433V190.169C245.184 188.639 245.585 187.135 246.348 185.81C247.111 184.484 248.211 183.383 249.535 182.617C250.859 181.851 252.362 181.448 253.891 181.447C255.421 181.447 256.924 181.849 258.249 182.614L344.027 232.132C348.475 234.699 352.168 238.391 354.736 242.837C357.304 247.284 358.657 252.328 358.657 257.463Z" fill="white"/>
<path d="M316.693 337.494C316.693 337.494 330.333 360.114 320.482 385.619L272.716 358.209L316.693 337.494Z" fill="#263238"/>
<path d="M338.445 235.863C339.478 227.48 333.519 219.847 325.135 218.815C316.752 217.782 309.119 223.742 308.086 232.125C307.054 240.509 313.013 248.142 321.397 249.174C329.78 250.206 337.413 244.247 338.445 235.863Z" fill="#263238"/>
<path d="M323.344 191.095C323.344 191.095 328.036 183.475 329.473 184.03C330.91 184.585 328.537 191.846 328.537 191.846C328.537 191.846 335.634 193.326 334.317 195.111C333 196.897 324.324 196.472 324.324 196.472L323.344 191.095Z" fill="#263238"/>
<path d="M326.61 210.732C323.344 235.268 302.662 235.268 302.662 235.268L259.337 216.196C259.337 216.196 256.072 213.333 255.07 206.759C254.686 204.065 254.686 201.331 255.07 198.638C255.07 198.638 255.07 198.584 255.07 198.562C256.453 188.242 264.17 177.15 280.978 173.743C284.661 172.999 288.411 172.634 292.168 172.654C293.986 172.648 295.803 172.739 297.611 172.926C310.674 174.211 319.828 180.307 324.193 189.788C325.175 191.928 325.906 194.174 326.371 196.483C327.257 201.185 327.338 206.003 326.61 210.732Z" fill="#263238"/>
<path d="M222.599 258.193C222.599 258.193 207.217 257.659 201.296 272.649C201.296 272.649 207.827 277.057 216.394 272.649C224.961 268.24 222.599 258.193 222.599 258.193Z" fill="#DF0707"/>
<path opacity="0.5" d="M222.599 258.193C222.599 258.193 207.217 257.659 201.296 272.649C201.296 272.649 207.827 277.057 216.394 272.649C224.961 268.24 222.599 258.193 222.599 258.193Z" fill="black"/>
<path d="M222.163 265.41C222.163 265.41 217.809 246.491 215.512 246.263C213.215 246.034 212.769 252.032 212.954 255.418L207.511 243.705C207.338 243.341 207.093 243.016 206.79 242.75C206.487 242.485 206.133 242.284 205.75 242.161C205.366 242.037 204.961 241.994 204.56 242.033C204.159 242.072 203.771 242.193 203.418 242.388C197.975 245.381 188.429 254.481 208.556 276.982L222.163 265.41Z" fill="#945959"/>
<path d="M277.897 252.326L274.632 251.901C271.341 251.465 267.993 251.912 264.932 253.198C261.871 254.483 259.207 256.561 257.215 259.216L237.784 285.08L222.544 258.193C222.544 258.193 220.715 276.481 201.241 272.649L222.152 307.842C223.476 310.07 225.318 311.945 227.522 313.308C229.725 314.672 232.226 315.482 234.81 315.671C237.395 315.861 239.987 315.423 242.366 314.395C244.745 313.367 246.84 311.78 248.474 309.769L266.37 287.769L277.897 252.326Z" fill="#DF0707"/>
<path d="M319.371 312.686C315.017 323.724 314.538 325.879 317.194 331.398C319.044 335.474 320.502 339.717 321.548 344.069C321.548 344.069 301.366 366.689 272.639 358.22L259.729 350.775C257.044 349.226 254.626 347.256 252.566 344.94L256.496 315.636C256.694 314.094 256.538 312.526 256.039 311.053L251.913 298.959C249.9 293.052 249.6 286.696 251.049 280.626C252.498 274.556 255.635 269.02 260.099 264.659L273.967 251.106L310.391 255.765L315.833 257.322C319.397 258.353 322.468 260.634 324.484 263.748C326.5 266.862 327.324 270.598 326.806 274.271C325.021 287.116 322.103 305.752 319.371 312.686Z" fill="#DF0707"/>
<path opacity="0.5" d="M319.371 312.686C315.017 323.724 314.538 325.879 317.194 331.398C319.044 335.474 320.502 339.717 321.548 344.069C321.548 344.069 301.366 366.689 272.639 358.22L259.729 350.775C257.044 349.226 254.626 347.256 252.566 344.94L256.496 315.636C256.694 314.094 256.538 312.526 256.039 311.053L251.913 298.959C249.9 293.052 249.6 286.696 251.049 280.626C252.498 274.556 255.635 269.02 260.099 264.659L273.967 251.106L310.391 255.765L315.833 257.322C319.397 258.353 322.468 260.634 324.484 263.748C326.5 266.862 327.324 270.598 326.806 274.271C325.021 287.116 322.103 305.752 319.371 312.686Z" fill="black"/>
<path d="M297.404 279.714L290.111 273.498C289.338 272.837 288.407 272.389 287.409 272.198C286.41 272.007 285.379 272.08 284.418 272.409L275.6 275.446L274.414 270.504C274.229 269.736 273.89 269.012 273.417 268.378C272.945 267.743 272.349 267.211 271.665 266.814C270.982 266.416 270.225 266.161 269.44 266.064C268.655 265.966 267.859 266.029 267.099 266.248L263.278 267.337L269.744 254.949C271.855 250.914 275.107 247.59 279.095 245.391L281.631 243.998L302.586 245.087C302.586 245.087 310.391 248.352 310.391 255.7L297.404 279.648" fill="#DF0707"/>
<path d="M302.673 254.372L281.664 270.744V218.613H302.673V254.372Z" fill="#945959"/>
<path d="M281.99 250.072L275.6 275.49L302.586 254.372L281.99 250.072Z" fill="#945959"/>
<path d="M281.664 246.295C286.335 244.56 290.606 241.894 294.215 238.458C297.825 235.023 300.699 230.889 302.662 226.309V218.613H281.653L281.664 246.295Z" fill="#703838"/>
<path d="M286.192 179.98C278.224 179.98 261.286 184.421 259.326 205.278C257.367 226.135 259.261 242.289 270.016 243.856C280.771 245.424 305.764 237.619 309.117 210.623C312.47 183.627 293.953 179.98 286.192 179.98Z" fill="#945959"/>
<path d="M273.652 214.106V226.396L266.446 224.186L273.652 214.106Z" fill="#703838"/>
<path d="M281.664 218.733C283.046 218.733 284.167 217.612 284.167 216.229C284.167 214.847 283.046 213.726 281.664 213.726C280.281 213.726 279.16 214.847 279.16 216.229C279.16 217.612 280.281 218.733 281.664 218.733Z" fill="#263238"/>
<path d="M267.687 214.487C267.684 214.982 267.536 215.465 267.259 215.875C266.983 216.285 266.591 216.605 266.133 216.793C265.676 216.98 265.173 217.028 264.688 216.931C264.203 216.833 263.758 216.593 263.409 216.243C263.06 215.892 262.822 215.446 262.727 214.961C262.631 214.475 262.681 213.973 262.871 213.516C263.061 213.059 263.382 212.668 263.793 212.394C264.205 212.119 264.688 211.973 265.183 211.973C265.513 211.973 265.839 212.038 266.143 212.164C266.448 212.291 266.724 212.476 266.957 212.71C267.19 212.943 267.374 213.221 267.499 213.526C267.624 213.831 267.688 214.158 267.687 214.487Z" fill="#263238"/>
<path d="M262.124 209.262L267.022 206.356C267.022 206.356 265.15 204.407 263.278 205.572C261.406 206.737 262.124 209.262 262.124 209.262Z" fill="#263238"/>
<path d="M270.266 231.382C272.652 231.556 275.026 230.919 277.005 229.575C277.005 229.575 277.473 233.134 274.49 233.809C271.507 234.484 270.266 231.382 270.266 231.382Z" fill="#703838"/>
<path d="M265.988 187.077C265.988 187.077 268.982 215.87 308.137 216.773C308.137 216.773 319.97 188.155 296.588 178.859C273.205 169.562 265.988 187.077 265.988 187.077Z" fill="#263238"/>
<path d="M319.665 212.463L314.854 209.676C313.025 208.587 310.499 208.74 307.702 210.351C302.15 213.551 297.644 221.356 297.644 227.768C297.644 230.979 298.732 233.21 300.604 234.299L305.329 237.02L305.601 237.173L305.764 237.271C307.549 238.142 309.933 237.935 312.557 236.422C318.108 233.156 322.615 225.416 322.615 219.005C322.582 215.761 321.461 213.518 319.665 212.463Z" fill="#DF0707"/>
<path d="M319.627 228.858C323.553 222.059 323.553 214.709 319.627 212.442C315.701 210.176 309.337 213.851 305.411 220.651C301.485 227.45 301.485 234.8 305.411 237.066C309.336 239.333 315.701 235.658 319.627 228.858Z" fill="#DF0707"/>
<path opacity="0.5" d="M319.627 228.858C323.553 222.059 323.553 214.709 319.627 212.442C315.701 210.176 309.337 213.851 305.411 220.651C301.485 227.45 301.485 234.8 305.411 237.066C309.336 239.333 315.701 235.658 319.627 228.858Z" fill="black"/>
<path d="M321.592 218.504L318.326 216.599C317.085 215.859 315.355 215.957 313.439 217.056C311.437 218.364 309.772 220.125 308.577 222.195C307.382 224.266 306.69 226.589 306.559 228.976C306.559 231.153 307.332 232.71 308.584 233.428L311.849 235.29C311.907 235.332 311.969 235.368 312.034 235.398L312.143 235.464C312.909 235.754 313.734 235.852 314.546 235.75C315.358 235.647 316.133 235.347 316.802 234.876C318.802 233.569 320.467 231.81 321.662 229.742C322.857 227.673 323.549 225.352 323.682 222.967C323.595 220.757 322.833 219.223 321.592 218.504Z" fill="#DF0707"/>
<path d="M323.595 222.946C323.462 225.331 322.77 227.652 321.575 229.72C320.38 231.789 318.715 233.548 316.715 234.854C312.905 237.031 309.824 235.268 309.824 230.881C309.954 228.494 310.645 226.17 311.843 224.101C313.04 222.031 314.71 220.274 316.715 218.972C320.514 216.773 323.595 218.548 323.595 222.946Z" fill="#DF0707"/>
<path opacity="0.3" d="M323.595 222.946C323.462 225.331 322.77 227.652 321.575 229.72C320.38 231.789 318.715 233.548 316.715 234.854C312.905 237.031 309.824 235.268 309.824 230.881C309.954 228.494 310.645 226.17 311.843 224.101C313.04 222.031 314.71 220.274 316.715 218.972C320.514 216.773 323.595 218.548 323.595 222.946Z" fill="black"/>
<path d="M304.719 174.363C301.599 171.952 297.777 170.626 293.834 170.585H292.865C288.872 170.542 284.886 170.907 280.967 171.674C281.685 171.674 282.404 171.674 283.144 171.674H280.967V173.699H282.992C289.97 173.936 296.582 176.877 301.431 181.901C306.28 186.925 308.985 193.637 308.975 200.619V209.186C308.975 209.524 309.046 209.859 309.184 210.169C309.321 210.478 309.522 210.755 309.773 210.982C310.025 211.209 310.321 211.38 310.643 211.485C310.965 211.59 311.306 211.626 311.642 211.591H311.893L314.07 210.916C313.925 210.962 313.775 210.991 313.624 211.004C314.273 210.915 314.867 210.592 315.292 210.094C315.718 209.596 315.945 208.959 315.931 208.304V200.357C315.91 185.978 309.694 178.249 304.719 174.363Z" fill="#DF0707"/>
<path d="M291.014 243.258C290.116 243.258 289.229 243.065 288.413 242.692L281.609 239.546C281.503 239.508 281.405 239.448 281.323 239.371C281.241 239.293 281.176 239.199 281.132 239.095C281.088 238.991 281.066 238.879 281.068 238.766C281.069 238.653 281.094 238.542 281.141 238.439C281.188 238.336 281.256 238.244 281.34 238.169C281.424 238.093 281.523 238.036 281.631 238.001C281.738 237.966 281.852 237.954 281.964 237.965C282.077 237.976 282.186 238.01 282.284 238.066L289.087 241.212C289.955 241.615 290.927 241.738 291.868 241.562C292.808 241.386 293.671 240.921 294.334 240.232L300.866 233.483C301.019 233.33 301.226 233.244 301.443 233.244C301.659 233.244 301.866 233.33 302.02 233.483C302.17 233.637 302.254 233.844 302.254 234.06C302.254 234.275 302.17 234.482 302.02 234.637L295.488 241.386C294.907 241.983 294.211 242.456 293.442 242.778C292.673 243.1 291.848 243.263 291.014 243.258Z" fill="#DF0707"/>
<path opacity="0.5" d="M291.014 243.258C290.116 243.258 289.229 243.065 288.413 242.692L281.609 239.546C281.503 239.508 281.405 239.448 281.323 239.371C281.241 239.293 281.176 239.199 281.132 239.095C281.088 238.991 281.066 238.879 281.068 238.766C281.069 238.653 281.094 238.542 281.141 238.439C281.188 238.336 281.256 238.244 281.34 238.169C281.424 238.093 281.523 238.036 281.631 238.001C281.738 237.966 281.852 237.954 281.964 237.965C282.077 237.976 282.186 238.01 282.284 238.066L289.087 241.212C289.955 241.615 290.927 241.738 291.868 241.562C292.808 241.386 293.671 240.921 294.334 240.232L300.866 233.483C301.019 233.33 301.226 233.244 301.443 233.244C301.659 233.244 301.866 233.33 302.02 233.483C302.17 233.637 302.254 233.844 302.254 234.06C302.254 234.275 302.17 234.482 302.02 234.637L295.488 241.386C294.907 241.983 294.211 242.456 293.442 242.778C292.673 243.1 291.848 243.263 291.014 243.258Z" fill="black"/>
<path d="M283.395 237.26C283.395 237.888 283.208 238.503 282.859 239.026C282.51 239.548 282.013 239.956 281.432 240.196C280.852 240.437 280.212 240.5 279.596 240.377C278.979 240.254 278.413 239.952 277.968 239.507C277.524 239.063 277.221 238.496 277.098 237.88C276.976 237.263 277.039 236.624 277.279 236.043C277.52 235.462 277.927 234.966 278.45 234.617C278.973 234.267 279.587 234.081 280.216 234.081C281.059 234.081 281.867 234.416 282.464 235.012C283.06 235.608 283.395 236.417 283.395 237.26Z" fill="#DF0707"/>
<path opacity="0.5" d="M283.395 237.26C283.395 237.888 283.208 238.503 282.859 239.026C282.51 239.548 282.013 239.956 281.432 240.196C280.852 240.437 280.212 240.5 279.596 240.377C278.979 240.254 278.413 239.952 277.968 239.507C277.524 239.063 277.221 238.496 277.098 237.88C276.976 237.263 277.039 236.624 277.279 236.043C277.52 235.462 277.927 234.966 278.45 234.617C278.973 234.267 279.587 234.081 280.216 234.081C281.059 234.081 281.867 234.416 282.464 235.012C283.06 235.608 283.395 236.417 283.395 237.26Z" fill="black"/>
<path d="M315.91 200.358V208.304C315.924 208.959 315.696 209.596 315.27 210.094C314.845 210.592 314.251 210.916 313.602 211.004C313.243 211.042 312.881 211.004 312.538 210.893C312.195 210.782 311.879 210.6 311.611 210.359C311.343 210.117 311.129 209.822 310.982 209.493C310.836 209.163 310.76 208.806 310.761 208.446V200.358C310.767 196.498 309.992 192.676 308.483 189.124C306.974 185.571 304.761 182.36 301.979 179.684C299.197 177.009 295.902 174.924 292.293 173.555C288.683 172.186 284.835 171.561 280.978 171.718C284.896 170.951 288.883 170.586 292.876 170.629H293.823C297.766 170.67 301.588 171.996 304.708 174.407C309.694 178.249 315.91 185.978 315.91 200.358Z" fill="#DF0707"/>
<path opacity="0.5" d="M315.91 200.358V208.304C315.924 208.959 315.696 209.596 315.27 210.094C314.845 210.592 314.251 210.916 313.602 211.004C313.243 211.042 312.881 211.004 312.538 210.893C312.195 210.782 311.879 210.6 311.611 210.359C311.343 210.117 311.129 209.822 310.982 209.493C310.836 209.163 310.76 208.806 310.761 208.446V200.358C310.767 196.498 309.992 192.676 308.483 189.124C306.974 185.571 304.761 182.36 301.979 179.684C299.197 177.009 295.902 174.924 292.293 173.555C288.683 172.186 284.835 171.561 280.978 171.718C284.896 170.951 288.883 170.586 292.876 170.629H293.823C297.766 170.67 301.588 171.996 304.708 174.407C309.694 178.249 315.91 185.978 315.91 200.358Z" fill="black"/>
<path d="M303.674 350.111C303.674 350.111 298.406 364.621 317.238 371.153C317.238 371.153 323.388 362.118 317.238 354.726C311.087 347.335 303.674 350.111 303.674 350.111Z" fill="#DF0707"/>
<path opacity="0.7" d="M303.674 350.111C303.674 350.111 298.406 364.621 317.238 371.153C317.238 371.153 323.388 362.118 317.238 354.726C311.087 347.335 303.674 350.111 303.674 350.111Z" fill="black"/>
<path d="M310.282 350.775C310.282 350.775 291.885 357.513 291.983 360.126C292.081 362.738 299.799 360.953 299.799 360.953L296.98 362.803C294.011 364.741 291.711 367.546 290.394 370.837C290.107 371.563 290.097 372.369 290.366 373.102C290.635 373.834 291.164 374.443 291.852 374.81L298.841 378.511C299.236 378.721 299.668 378.849 300.113 378.888C300.558 378.927 301.007 378.877 301.432 378.74C301.857 378.603 302.251 378.382 302.589 378.09C302.927 377.799 303.204 377.442 303.402 377.042C303.792 376.272 304.33 375.587 304.986 375.027C305.642 374.466 306.402 374.041 307.223 373.776C311.022 372.513 318.108 368.878 320.95 358.928L310.282 350.775Z" fill="#945959"/>
<path d="M315.801 257.3C315.801 257.3 306.004 262.743 311.207 279.267C316.41 295.792 326.175 321.427 326.175 321.427L303.674 350.111C306.078 350.401 308.394 351.194 310.47 352.44C312.546 353.685 314.337 355.354 315.724 357.339C317.054 359.356 317.884 361.661 318.147 364.063C318.41 366.465 318.098 368.895 317.238 371.152L345.17 335.23C347.753 331.91 349.468 327.999 350.16 323.85C350.852 319.701 350.498 315.445 349.132 311.467L337.158 276.502C335.694 272.231 333.262 268.357 330.052 265.182C326.841 262.008 322.94 259.619 318.653 258.204L315.801 257.3Z" fill="#DF0707"/>
<path d="M150.427 159.689L107.136 134.652C106.637 134.307 106.061 134.091 105.458 134.025C104.856 133.958 104.246 134.043 103.685 134.271C103.566 134.326 103.453 134.392 103.347 134.467L93.9313 139.986H93.9966C92.8101 140.661 92.059 142.229 92.059 144.471V192.629C92.059 196.7 94.53 201.435 97.5889 203.199L140.881 228.236C141.43 228.633 142.084 228.86 142.761 228.889C143.439 228.918 144.109 228.748 144.691 228.399C144.661 228.411 144.635 228.429 144.615 228.453L153.965 223.011C155.184 222.357 155.957 220.768 155.957 218.493V170.259C155.957 166.188 153.53 161.453 150.427 159.689Z" fill="#DF0707"/>
<path d="M154.412 164.25C153.536 162.388 152.156 160.808 150.427 159.689L107.136 134.652C106.637 134.307 106.061 134.091 105.458 134.025C104.856 133.958 104.246 134.043 103.685 134.271C103.567 134.326 103.454 134.392 103.347 134.467L93.9314 139.986C94.5074 139.692 95.1532 139.562 95.7983 139.61C96.4434 139.658 97.0629 139.882 97.5889 140.259L140.881 165.295C142.668 166.464 144.084 168.118 144.963 170.063L154.412 164.25Z" fill="#DF0707"/>
<path d="M146.411 224.001C146.411 226.178 145.714 227.691 144.615 228.355L153.965 222.912C155.184 222.259 155.957 220.67 155.957 218.395V170.259C155.911 168.164 155.382 166.107 154.412 164.25L144.963 170.063C145.87 171.865 146.365 173.847 146.411 175.865V224.001Z" fill="#DF0707"/>
<path opacity="0.3" d="M154.412 164.25C153.536 162.388 152.156 160.808 150.427 159.689L107.136 134.652C106.637 134.307 106.061 134.091 105.458 134.025C104.856 133.958 104.246 134.043 103.685 134.271C103.567 134.326 103.454 134.392 103.347 134.467L93.9314 139.986C94.5074 139.692 95.1532 139.562 95.7983 139.61C96.4434 139.658 97.0629 139.882 97.5889 140.259L140.881 165.295C142.668 166.464 144.084 168.118 144.963 170.063L154.412 164.25Z" fill="black"/>
<path opacity="0.6" d="M146.411 224.001C146.411 226.178 145.714 227.691 144.615 228.355L153.965 222.912C155.184 222.259 155.957 220.67 155.957 218.395V170.259C155.911 168.164 155.382 166.107 154.412 164.25L144.963 170.063C145.87 171.865 146.365 173.847 146.411 175.865V224.001Z" fill="black"/>
<path d="M133.718 189.657C133.718 195.894 131.247 198.017 127.546 195.872C126.525 195.291 125.632 194.509 124.921 193.574C124.21 192.638 123.696 191.569 123.409 190.43C122.321 191.768 120.634 191.856 118.261 190.484C114.364 188.231 111.294 182.864 111.294 177.65C111.294 172.436 114.331 170.64 118.261 172.904C120.255 174.079 121.865 175.807 122.898 177.878V175.821L127.002 178.194V189.472C126.941 190.065 127.043 190.664 127.298 191.203C127.554 191.742 127.952 192.201 128.449 192.53C129.832 193.336 130.681 191.975 130.681 187.937C130.681 180.872 126.153 173.383 119.458 169.518C112.763 165.654 108.246 168.343 108.246 175.614C108.334 179.473 109.397 183.246 111.336 186.583C113.276 189.92 116.029 192.711 119.338 194.697C121.135 195.804 123.176 196.454 125.282 196.591L126.251 200.346C123.798 200.148 121.429 199.368 119.338 198.071C110.63 193.031 104.871 182.886 104.871 173.698C104.871 164.511 110.684 161.18 119.458 166.253C127.938 171.14 133.718 180.926 133.718 189.657ZM122.963 184.421C122.984 183.04 122.647 181.678 121.986 180.467C121.324 179.255 120.359 178.236 119.186 177.508C117.009 176.235 115.452 177.127 115.452 180.088C115.424 181.471 115.753 182.837 116.407 184.056C117.061 185.274 118.018 186.303 119.186 187.044C121.363 188.274 122.963 187.48 122.963 184.421Z" fill="#DF0707"/>
<g opacity="0.9">
<path d="M133.718 189.657C133.718 195.894 131.247 198.017 127.546 195.872C126.525 195.291 125.632 194.509 124.921 193.574C124.21 192.638 123.696 191.569 123.409 190.43C122.321 191.768 120.634 191.856 118.261 190.484C114.364 188.231 111.294 182.864 111.294 177.65C111.294 172.436 114.331 170.64 118.261 172.904C120.255 174.079 121.865 175.807 122.898 177.878V175.821L127.002 178.194V189.472C126.941 190.065 127.043 190.664 127.298 191.203C127.554 191.742 127.952 192.201 128.449 192.53C129.832 193.336 130.681 191.975 130.681 187.937C130.681 180.872 126.153 173.383 119.458 169.518C112.763 165.654 108.246 168.343 108.246 175.614C108.334 179.473 109.397 183.246 111.336 186.583C113.276 189.92 116.029 192.711 119.338 194.697C121.135 195.804 123.176 196.454 125.282 196.591L126.251 200.346C123.798 200.148 121.429 199.368 119.338 198.071C110.63 193.031 104.871 182.886 104.871 173.698C104.871 164.511 110.684 161.18 119.458 166.253C127.938 171.14 133.718 180.926 133.718 189.657ZM122.963 184.421C122.984 183.04 122.647 181.678 121.986 180.467C121.324 179.255 120.359 178.236 119.186 177.508C117.009 176.235 115.452 177.127 115.452 180.088C115.424 181.471 115.753 182.837 116.407 184.056C117.061 185.274 118.018 186.303 119.186 187.044C121.363 188.274 122.963 187.48 122.963 184.421Z" fill="white"/>
</g>
<path d="M150.427 245.445L107.136 220.409C106.638 220.061 106.061 219.846 105.458 219.781C104.854 219.716 104.245 219.805 103.685 220.039C103.566 220.093 103.453 220.159 103.347 220.235L93.9313 225.753H93.9966C92.8101 226.428 92.059 227.996 92.059 230.227V278.363C92.059 282.446 94.53 287.17 97.5889 288.933L140.881 313.97C141.429 314.37 142.083 314.599 142.761 314.628C143.439 314.657 144.11 314.485 144.691 314.133L144.615 314.199L153.965 308.701C155.184 308.059 155.957 306.524 155.957 304.184V256.004C155.957 251.933 153.53 247.209 150.427 245.445Z" fill="#DF0707"/>
<path d="M154.412 250.007C153.539 248.142 152.158 246.561 150.427 245.445L107.136 220.409C106.638 220.061 106.061 219.846 105.458 219.781C104.854 219.716 104.245 219.805 103.685 220.039C103.567 220.093 103.454 220.159 103.347 220.235L93.9314 225.753C94.5061 225.456 95.1516 225.323 95.7969 225.37C96.4422 225.416 97.0623 225.639 97.5889 226.015L140.881 251.052C142.67 252.221 144.087 253.88 144.963 255.83L154.412 250.007Z" fill="#DF0707"/>
<path d="M146.411 309.747C146.411 311.924 145.714 313.437 144.615 314.155L153.965 308.658C155.184 308.016 155.957 306.481 155.957 304.141V256.005C155.911 253.913 155.382 251.86 154.412 250.007L144.963 255.82C145.87 257.619 146.364 259.597 146.411 261.611V309.747Z" fill="#DF0707"/>
<path opacity="0.3" d="M154.412 250.007C153.539 248.142 152.158 246.561 150.427 245.445L107.136 220.409C106.638 220.061 106.061 219.846 105.458 219.781C104.854 219.716 104.245 219.805 103.685 220.039C103.567 220.093 103.454 220.159 103.347 220.235L93.9314 225.753C94.5061 225.456 95.1516 225.323 95.7969 225.37C96.4422 225.416 97.0623 225.639 97.5889 226.015L140.881 251.052C142.67 252.221 144.087 253.88 144.963 255.83L154.412 250.007Z" fill="black"/>
<path opacity="0.6" d="M146.411 309.747C146.411 311.924 145.714 313.437 144.615 314.155L153.965 308.658C155.184 308.016 155.957 306.481 155.957 304.141V256.005C155.911 253.913 155.382 251.86 154.412 250.007L144.963 255.82C145.87 257.619 146.364 259.597 146.411 261.611V309.747Z" fill="black"/>
<path d="M114.396 266.967L103.957 250.007V272.986L114.396 266.967Z" fill="#DF0707"/>
<path d="M124.095 271.854L134.513 289.891V266.944L124.095 271.854Z" fill="#DF0707"/>
<path d="M105.535 249.233L116.258 266.65C116.303 266.688 116.343 266.732 116.377 266.781C116.387 266.824 116.387 266.869 116.377 266.912L119.567 272.093L122.266 270.819C122.308 270.774 122.356 270.734 122.408 270.7C122.514 270.638 122.633 270.6 122.756 270.591L133.642 265.486L105.535 249.233Z" fill="#DF0707"/>
<path d="M122.517 272.594L119.599 273.966C119.487 274.018 119.364 274.044 119.24 274.042C119.09 274.044 118.942 274.006 118.81 273.934C118.679 273.861 118.568 273.756 118.489 273.628L115.3 268.447L104.828 274.499L133.01 290.762L122.517 272.594Z" fill="#DF0707"/>
<g opacity="0.9">
<path d="M114.396 266.967L103.957 250.007V272.987L114.396 266.967Z" fill="white"/>
<path d="M124.095 271.854L134.513 289.892V266.945L124.095 271.854Z" fill="white"/>
<path d="M105.535 249.234L116.258 266.651C116.303 266.689 116.343 266.733 116.377 266.781C116.387 266.824 116.387 266.869 116.377 266.912L119.567 272.094L122.266 270.82C122.308 270.774 122.356 270.734 122.408 270.7C122.514 270.638 122.633 270.601 122.756 270.591L133.642 265.486L105.535 249.234Z" fill="white"/>
<path d="M122.517 272.595L119.599 273.966C119.487 274.019 119.364 274.045 119.24 274.042C119.09 274.044 118.942 274.007 118.81 273.934C118.679 273.862 118.568 273.757 118.489 273.629L115.3 268.447L104.828 274.5L133.01 290.763L122.517 272.595Z" fill="white"/>
</g>
<path d="M150.427 73.9762L107.136 48.9395C106.638 48.5922 106.061 48.3763 105.458 48.3116C104.854 48.2469 104.245 48.3355 103.685 48.5693C103.566 48.624 103.453 48.6896 103.347 48.7653L93.9313 54.2843H93.9966C92.8101 54.9483 92.059 56.5267 92.059 58.7582V106.894C92.059 110.965 94.53 115.701 97.5889 117.464L140.881 142.501C141.429 142.901 142.083 143.13 142.761 143.159C143.439 143.188 144.11 143.016 144.691 142.664L144.615 142.719L153.965 137.276C155.184 136.634 155.957 135.099 155.957 132.758V84.5026C155.957 80.4314 153.53 75.6962 150.427 73.9762Z" fill="#DF0707"/>
<path d="M154.412 78.5047C153.539 76.637 152.158 75.0526 150.427 73.9327L107.136 48.9395C106.638 48.5922 106.061 48.3763 105.458 48.3116C104.854 48.2469 104.245 48.3355 103.685 48.5693C103.567 48.624 103.454 48.6896 103.347 48.7653L93.9314 54.2843C94.5061 53.9871 95.1516 53.8542 95.7969 53.9003C96.4422 53.9464 97.0623 54.1697 97.5889 54.5455L140.881 79.5823C142.67 80.7521 144.087 82.4106 144.963 84.3611L154.412 78.5047Z" fill="#DF0707"/>
<path d="M146.411 138.201C146.411 140.378 145.714 141.891 144.615 142.555L153.965 137.112C155.184 136.47 155.957 134.935 155.957 132.595V84.5023C155.911 82.4106 155.382 80.3579 154.412 78.5044L144.963 84.3173C145.87 86.1161 146.364 88.0944 146.411 90.1084V138.201Z" fill="#DF0707"/>
<path opacity="0.3" d="M154.412 78.5047C153.539 76.637 152.158 75.0526 150.427 73.9327L107.136 48.9395C106.638 48.5922 106.061 48.3763 105.458 48.3116C104.854 48.2469 104.245 48.3355 103.685 48.5693C103.567 48.624 103.454 48.6896 103.347 48.7653L93.9314 54.2843C94.5061 53.9871 95.1516 53.8542 95.7969 53.9003C96.4422 53.9464 97.0623 54.1697 97.5889 54.5455L140.881 79.5823C142.67 80.7521 144.087 82.4106 144.963 84.3611L154.412 78.5047Z" fill="black"/>
<path opacity="0.6" d="M146.411 138.201C146.411 140.378 145.714 141.891 144.615 142.555L153.965 137.112C155.184 136.47 155.957 134.935 155.957 132.595V84.5023C155.911 82.4106 155.382 80.3579 154.412 78.5044L144.963 84.3173C145.87 86.1161 146.364 88.0944 146.411 90.1084V138.201Z" fill="black"/>
<path d="M132.249 117.518C130.583 114.775 128.907 112.076 127.241 109.311C126.977 108.787 126.608 108.323 126.156 107.949C125.705 107.574 125.181 107.297 124.618 107.134C123.812 106.97 123.007 106.785 122.179 106.546C121.885 106.423 121.637 106.209 121.472 105.936C118.747 101.272 116.58 96.3029 115.017 91.1318C114.983 91.0213 114.974 90.9049 114.989 90.7905C115.004 90.676 115.043 90.566 115.104 90.4678C115.615 89.9562 116.192 89.4881 116.715 89.0309C117.237 88.5737 117.509 87.5178 117.128 86.1462C116.323 83.2398 115.55 80.3333 114.745 77.4378C114.589 76.615 114.219 75.8479 113.672 75.2134C113.126 74.579 112.422 74.0997 111.631 73.8238C109.876 73.3357 108.012 73.4042 106.297 74.0197C105.633 74.2701 105.285 74.8688 105.274 75.9029C105.557 77.895 105.742 79.8652 106.123 81.89C108.808 96.4911 115.267 109.917 125.499 122.167C125.767 122.573 126.126 122.911 126.547 123.153C126.969 123.395 127.441 123.534 127.927 123.56C129.621 123.52 131.249 122.892 132.532 121.786C133.5 120.915 133.402 119.369 132.249 117.518Z" fill="#DF0707"/>
<path d="M132.118 102.681C131.89 99.5504 131.027 96.4985 129.581 93.7118C128.502 91.5348 127.129 89.5166 125.499 87.7138C125.075 87.2349 124.716 87.0825 124.498 87.4417C124.28 87.8009 124.498 88.3125 124.912 88.7806L125.336 89.2705C128.345 92.7436 130.241 97.0403 130.779 101.604C130.774 101.937 130.806 102.269 130.877 102.594C131.014 102.969 131.233 103.307 131.519 103.585C131.748 103.748 132.009 103.585 132.194 103.585C132.129 103.139 132.14 102.91 132.118 102.681Z" fill="#DF0707"/>
<path d="M122.256 93.744C123.622 95.2475 124.453 97.1614 124.618 99.1868C124.689 99.4947 124.803 99.7914 124.955 100.068C125.619 100.613 125.946 100.428 125.946 99.7419C125.713 97.1451 124.639 94.6951 122.887 92.7643C122.473 92.3398 122.136 92.2091 121.94 92.5683C121.869 92.7735 121.862 92.9949 121.918 93.2044C121.974 93.4139 122.092 93.6018 122.256 93.744Z" fill="#DF0707"/>
<g opacity="0.9">
<path d="M132.249 117.518C130.583 114.775 128.907 112.076 127.241 109.311C126.977 108.787 126.608 108.323 126.156 107.949C125.705 107.574 125.181 107.297 124.618 107.134C123.812 106.97 123.007 106.785 122.179 106.546C121.885 106.423 121.637 106.209 121.472 105.936C118.747 101.272 116.58 96.3029 115.017 91.1318C114.983 91.0213 114.974 90.9049 114.989 90.7905C115.004 90.676 115.043 90.566 115.104 90.4678C115.615 89.9562 116.192 89.4881 116.715 89.0309C117.237 88.5737 117.509 87.5178 117.128 86.1462C116.323 83.2398 115.55 80.3333 114.745 77.4378C114.589 76.615 114.219 75.8479 113.672 75.2134C113.126 74.579 112.422 74.0997 111.631 73.8238C109.876 73.3357 108.012 73.4042 106.297 74.0197C105.633 74.2701 105.285 74.8688 105.274 75.9029C105.557 77.895 105.742 79.8652 106.123 81.89C108.808 96.4911 115.267 109.917 125.499 122.167C125.767 122.573 126.126 122.911 126.547 123.153C126.969 123.395 127.441 123.534 127.927 123.56C129.621 123.52 131.249 122.892 132.532 121.786C133.5 120.915 133.402 119.369 132.249 117.518Z" fill="white"/>
<path d="M132.118 102.681C131.89 99.5504 131.027 96.4985 129.581 93.7118C128.502 91.5348 127.129 89.5166 125.499 87.7138C125.075 87.2349 124.716 87.0825 124.498 87.4417C124.28 87.8009 124.498 88.3125 124.912 88.7806L125.336 89.2705C128.345 92.7436 130.241 97.0403 130.779 101.604C130.774 101.937 130.806 102.269 130.877 102.594C131.014 102.969 131.233 103.307 131.519 103.585C131.748 103.748 132.009 103.585 132.194 103.585C132.129 103.139 132.14 102.91 132.118 102.681Z" fill="white"/>
<path d="M122.255 93.744C123.622 95.2475 124.453 97.1614 124.618 99.1868C124.689 99.4947 124.803 99.7914 124.955 100.068C125.619 100.613 125.946 100.428 125.946 99.7419C125.713 97.1451 124.639 94.6951 122.887 92.7643C122.473 92.3398 122.136 92.2091 121.94 92.5683C121.869 92.7735 121.862 92.9949 121.918 93.2044C121.974 93.4139 122.092 93.6018 122.255 93.744Z" fill="white"/>
</g>
<path d="M372.547 45.1075L382.747 50.9095V47.2955C382.747 47.0451 382.747 46.7839 382.747 46.5335C382.747 46.2831 382.747 46.0436 382.747 45.8042V45.6735C383.117 40.8948 386.742 39.0551 391.162 41.6132C393.162 42.8439 394.877 44.488 396.191 46.4355C397.181 39.9042 402.483 37.5964 408.894 41.2866C416.013 45.4014 421.783 55.4379 421.783 63.6238V71.3526C421.772 71.9708 421.925 72.5809 422.225 73.1215C422.525 73.6622 422.962 74.1146 423.492 74.4332L429.5 77.9492C430.797 78.7181 431.872 79.8105 432.62 81.1194C433.368 82.4284 433.764 83.9091 433.768 85.4167C433.768 86.0422 433.603 86.6567 433.29 87.1982C432.978 87.7398 432.527 88.1894 431.986 88.5018C431.444 88.8141 430.829 88.9782 430.204 88.9774C429.578 88.9766 428.964 88.811 428.423 88.4973L372.7 56.2869C371.221 55.4284 369.994 54.1981 369.138 52.7181C368.282 51.2381 367.829 49.5601 367.823 47.8506C367.822 47.2973 367.967 46.7536 368.243 46.2739C368.519 45.7942 368.916 45.3955 369.395 45.1176C369.873 44.8398 370.416 44.6926 370.97 44.6908C371.523 44.689 372.067 44.8327 372.547 45.1075Z" fill="#E6E6E6"/>
<path d="M450.303 43.594L457.716 47.8503V45.1942C457.716 45.0092 457.716 44.8241 457.716 44.6391C457.716 44.454 457.716 44.2798 457.716 44.1057V44.0403C457.988 40.5679 460.622 39.2289 463.834 41.0904C465.288 41.9814 466.535 43.1727 467.491 44.5846C468.22 39.8603 472.074 38.1513 476.733 40.84C481.915 43.8335 486.105 51.1051 486.105 57.0813V62.7091C486.109 63.1503 486.228 63.5829 486.449 63.9645C486.671 64.3461 486.987 64.6637 487.368 64.8862L491.722 67.4443C492.67 68.0015 493.455 68.7972 493.999 69.7521C494.543 70.7071 494.828 71.7879 494.825 72.8871C494.824 73.3373 494.706 73.7795 494.482 74.1702C494.259 74.5609 493.937 74.8866 493.549 75.1151C493.161 75.3437 492.721 75.4672 492.271 75.4736C491.82 75.4799 491.376 75.3688 490.982 75.1513L450.412 51.7256C449.337 51.1036 448.444 50.2101 447.823 49.1345C447.202 48.0589 446.875 46.8389 446.874 45.597C446.873 45.195 446.978 44.7999 447.178 44.4511C447.377 44.1023 447.665 43.812 448.012 43.6092C448.359 43.4065 448.754 43.2984 449.156 43.2957C449.557 43.293 449.953 43.3959 450.303 43.594Z" fill="#E6E6E6"/>
</svg>
