<svg width="570" height="800" viewBox="0 0 570 800" fill="none" xmlns="http://www.w3.org/2000/svg">
<path d="M88.6799 662.653C194.899 712.449 367.112 712.449 473.331 662.653C579.55 612.857 579.563 532.139 473.331 482.343C367.1 432.547 194.899 432.558 88.6672 482.343C-17.5642 532.127 -17.5515 612.846 88.6799 662.653Z" fill="#F5F5F5"/>
<path d="M70.9996 178.627V215.788C70.9996 215.788 86.2657 222.936 114.271 222.936C142.276 222.936 157.542 215.771 157.542 215.771V179.423L128.325 96.7403C128.723 99.3365 127.2 101.933 123.773 103.975C121.266 105.523 118.416 106.428 115.476 106.613C112.536 106.797 109.595 106.253 106.915 105.031C106.162 104.735 105.433 104.382 104.734 103.975C101.099 101.881 99.5413 99.0077 100.251 96.2729L70.9996 178.627Z" fill="#F5F5F5"/>
<path opacity="0.5" d="M70.9996 178.627V215.788C70.9996 215.788 86.2657 222.936 114.271 222.936C142.276 222.936 157.542 215.771 157.542 215.771V179.423L128.325 96.7403C128.723 99.3365 127.2 101.933 123.773 103.975C121.266 105.523 118.416 106.428 115.476 106.613C112.536 106.797 109.595 106.253 106.915 105.031C106.162 104.735 105.433 104.382 104.734 103.975C101.099 101.881 99.5413 99.0077 100.251 96.2729L70.9996 178.627Z" fill="white"/>
<path d="M74.3568 439.119C76.8656 442.424 80.0449 445.161 83.6861 447.15C100.614 456.93 128.048 456.93 144.958 447.15C148.606 445.163 151.791 442.426 154.305 439.119C156.258 436.522 157.412 433.413 157.628 430.171V449.47C157.316 455.632 153.11 461.741 144.958 466.449C128.048 476.211 100.614 476.211 83.6861 466.449C75.2396 461.568 70.999 455.164 70.999 448.76V429.479C71.0635 432.968 72.2398 436.345 74.3568 439.119Z" fill="#F5F5F5"/>
<path d="M74.3568 419.82C76.8656 423.125 80.0449 425.862 83.6861 427.851C84.69 428.423 85.7112 428.959 86.767 429.461C102.743 437.077 125.919 437.077 141.877 429.461C142.933 428.959 143.972 428.423 144.958 427.851C148.606 425.864 151.791 423.127 154.305 419.82C156.257 417.23 157.412 414.126 157.628 410.889V430.171C157.412 433.413 156.258 436.522 154.305 439.119C151.791 442.426 148.606 445.163 144.958 447.15C128.048 456.93 100.614 456.93 83.6861 447.15C80.0449 445.161 76.8656 442.424 74.3568 439.119C72.2398 436.345 71.0635 432.967 70.999 429.478V410.179C71.0623 413.669 72.2387 417.047 74.3568 419.82Z" fill="#EBEBEB"/>
<path d="M74.3568 400.521C76.8683 403.828 80.0468 406.57 83.6861 408.57C84.69 409.141 85.7112 409.66 86.767 410.179C102.743 417.795 125.919 417.795 141.877 410.179C142.933 409.66 143.972 409.141 144.958 408.57C148.602 406.57 151.786 403.828 154.305 400.521C156.257 397.931 157.412 394.827 157.628 391.59V410.889C157.412 414.126 156.257 417.229 154.305 419.82C151.791 423.127 148.606 425.864 144.958 427.851C143.972 428.422 142.933 428.959 141.877 429.461C125.919 437.077 102.743 437.077 86.767 429.461C85.7112 428.959 84.69 428.422 83.6861 427.851C80.0449 425.862 76.8656 423.125 74.3568 419.82C72.2387 417.046 71.0623 413.669 70.999 410.179V390.88C71.0598 394.37 72.2366 397.749 74.3568 400.521Z" fill="#F5F5F5"/>
<path d="M157.628 179.354V391.59C157.412 394.827 156.257 397.93 154.305 400.521C151.786 403.828 148.602 406.57 144.958 408.57C143.972 409.141 142.933 409.66 141.877 410.179C137.693 412.129 133.287 413.565 128.757 414.455L136.598 190.777L157.628 179.354Z" fill="#F5F5F5"/>
<path d="M92.0462 190.777L99.9043 414.455C95.3743 413.565 90.9689 412.129 86.7845 410.179C85.7287 409.66 84.7075 409.141 83.7036 408.57C80.0643 406.57 76.8858 403.828 74.3743 400.521C72.254 397.749 71.0773 394.37 71.0165 390.881V178.627L92.0462 190.777Z" fill="#F5F5F5"/>
<path d="M157.628 179.354V391.59C157.412 394.827 156.257 397.93 154.305 400.521C151.786 403.828 148.602 406.57 144.958 408.57C143.972 409.141 142.933 409.66 141.877 410.179C137.693 412.129 133.287 413.565 128.757 414.455L136.598 190.777L157.628 179.354Z" fill="#E0E0E0"/>
<path d="M92.0462 190.777L99.9043 414.455C95.3743 413.565 90.9689 412.129 86.7845 410.179C85.7287 409.66 84.7075 409.141 83.7036 408.57C80.0643 406.57 76.8858 403.828 74.3743 400.521C72.254 397.749 71.0773 394.37 71.0165 390.881V178.627L92.0462 190.777Z" fill="#E0E0E0"/>
<path d="M136.599 190.777V412.326C134.035 413.212 131.416 413.929 128.758 414.472C124.006 415.432 119.17 415.913 114.323 415.909C109.475 415.905 104.64 415.424 99.8873 414.472C97.2296 413.929 94.6104 413.212 92.0466 412.326V190.777H136.599Z" fill="#EBEBEB"/>
<path d="M104.803 103.889C105.502 104.296 106.231 104.649 106.984 104.944C109.664 106.167 112.605 106.71 115.545 106.526C118.485 106.342 121.335 105.436 123.842 103.889C127.304 101.915 128.792 99.25 128.394 96.6537L118.424 68.7352C118.096 67.9188 117.529 67.2207 116.797 66.7326C116.065 66.2446 115.202 65.9893 114.322 66.0004C113.44 65.9882 112.575 66.2428 111.84 66.7307C111.105 67.2187 110.534 67.9174 110.203 68.7352L100.337 96.1518C99.6621 98.8865 101.168 101.794 104.803 103.889Z" fill="#E0E0E0"/>
<path d="M83.6866 466.449C98.2257 474.844 120.519 476.004 137.239 469.911C138.174 469.588 139.091 469.224 139.991 468.821L141.237 468.301C142.535 467.713 143.782 467.072 144.959 466.397C153.111 461.689 157.317 455.58 157.628 449.418V502.001C157.94 508.647 153.734 515.346 144.959 520.4C143.92 521.006 142.83 521.577 141.705 522.131C141.289 522.338 140.839 522.494 140.424 522.685C139.697 522.996 138.987 523.325 138.243 523.602C137.499 523.879 137.083 524.017 136.512 524.208C135.941 524.398 135.283 524.658 134.643 524.848C134.002 525.038 133.223 525.246 132.514 525.437C131.804 525.627 131.423 525.748 130.87 525.869C130.316 525.99 129.225 526.233 128.394 526.388C127.927 526.388 127.46 526.596 126.992 526.665C126.058 526.839 125.106 526.96 124.154 527.098L123.029 527.254C121.973 527.375 120.917 527.462 119.861 527.531H119.03C117.871 527.617 116.711 527.652 115.569 527.669H115.015C113.769 527.669 112.523 527.669 111.276 527.669H110.999C109.684 527.669 108.369 527.514 107.053 527.392C99.3436 526.738 91.8358 524.586 84.9501 521.058C84.5693 520.85 84.1713 520.677 83.7905 520.452C75.3439 515.571 71.1033 509.167 71.1033 502.762V448.76C70.9995 455.164 75.2401 461.568 83.6866 466.449Z" fill="#E0E0E0"/>
<path d="M136.823 604.484L140.285 602.529L137.827 601.421C137.827 601.421 135.906 601.94 135.854 602.027C135.87 602.474 135.916 602.919 135.993 603.359L136.823 604.484Z" fill="#E0E0E0"/>
<path d="M136.823 604.484L140.285 602.529L137.827 601.421C137.827 601.421 135.906 601.94 135.854 602.027C135.87 602.474 135.916 602.919 135.993 603.359L136.823 604.484Z" fill="#FF0000"/>
<path opacity="0.1" d="M136.823 604.484L140.285 602.529L137.827 601.421C137.827 601.421 135.906 601.94 135.854 602.027C135.87 602.474 135.916 602.919 135.993 603.359L136.823 604.484Z" fill="white"/>
<path d="M265.634 669.374C264.099 670.151 262.403 670.556 260.683 670.556C258.963 670.556 257.267 670.151 255.733 669.374L144.717 605.333L310.878 509.374L314.755 507.142L425.771 571.183C428.489 572.758 428.489 575.337 425.771 576.895L265.634 669.374Z" fill="#FF0000"/>
<path opacity="0.8" d="M265.634 669.374C264.099 670.151 262.403 670.556 260.683 670.556C258.963 670.556 257.267 670.151 255.733 669.374L144.717 605.333L310.878 509.374L314.755 507.142L425.771 571.183C428.489 572.758 428.489 575.337 425.771 576.895L265.634 669.374Z" fill="white"/>
<path d="M223.938 548.284L185.219 570.56L160.156 556.09L131.06 572.949V593.909C131.06 596.453 133.916 600.071 134.955 599.482C136.875 599.947 138.743 600.608 140.528 601.456C143.44 603.111 146.142 605.11 148.576 607.41L237.542 556.055L223.938 548.284Z" fill="#E0E0E0"/>
<path d="M223.938 548.284L185.219 570.56L160.156 556.09L131.06 572.949V593.909C131.06 596.453 133.916 600.071 134.955 599.482C136.875 599.947 138.743 600.608 140.528 601.456C143.44 603.111 146.142 605.11 148.576 607.41L237.542 556.055L223.938 548.284Z" fill="#FF0000"/>
<path opacity="0.1" d="M223.938 548.284L185.219 570.56L160.156 556.09L131.06 572.949V593.909C131.06 596.453 133.916 600.071 134.955 599.482C136.875 599.947 138.743 600.608 140.528 601.456C143.44 603.111 146.142 605.11 148.576 607.41L237.542 556.055L223.938 548.284Z" fill="white"/>
<path d="M255.681 669.356L248.983 665.479L148.473 607.461C148.397 606.149 147.92 604.893 147.105 603.861C145.918 602.284 144.422 600.965 142.709 599.984C141.275 599.106 139.645 598.601 137.966 598.513C136.843 598.498 135.747 598.857 134.851 599.534C133.542 596.965 132.905 594.107 132.999 591.226H129.191C129.191 596.419 130.922 601.75 133.051 602.961L134.972 604.086C136.062 604.709 136.928 604.744 136.928 604.086V603.065C136.928 601.923 138.659 601.975 140.805 603.221C142.951 604.467 144.665 606.371 144.665 607.513V608.552C144.665 609.14 146.153 610.456 147.953 611.494L245.158 667.626L255.681 673.684C257.205 674.472 258.899 674.87 260.614 674.843V670.447C258.903 670.517 257.203 670.141 255.681 669.356Z" fill="#FF0000"/>
<path opacity="0.6" d="M255.681 669.356L248.983 665.479L148.473 607.461C148.397 606.149 147.92 604.893 147.105 603.861C145.918 602.284 144.422 600.965 142.709 599.984C141.275 599.106 139.645 598.601 137.966 598.513C136.843 598.498 135.747 598.857 134.851 599.534C133.542 596.965 132.905 594.107 132.999 591.226H129.191C129.191 596.419 130.922 601.75 133.051 602.961L134.972 604.086C136.062 604.709 136.928 604.744 136.928 604.086V603.065C136.928 601.923 138.659 601.975 140.805 603.221C142.951 604.467 144.665 606.371 144.665 607.513V608.552C144.665 609.14 146.153 610.456 147.953 611.494L245.158 667.626L255.681 673.684C257.205 674.472 258.899 674.87 260.614 674.843V670.447C258.903 670.517 257.203 670.141 255.681 669.356Z" fill="white"/>
<path d="M427.849 573.952V578.435C427.792 579.034 427.58 579.607 427.234 580.098C426.888 580.59 426.42 580.983 425.875 581.239L276.209 667.643L265.703 673.701C264.18 674.489 262.485 674.887 260.77 674.861V670.464C262.496 670.505 264.203 670.094 265.72 669.27L272.401 665.41L425.875 576.773C426.422 576.516 426.892 576.12 427.238 575.625C427.584 575.131 427.794 574.554 427.849 573.952Z" fill="#FF0000"/>
<path opacity="0.1" d="M427.849 573.952V578.435C427.792 579.034 427.58 579.607 427.234 580.098C426.888 580.59 426.42 580.983 425.875 581.239L276.209 667.643L265.703 673.701C264.18 674.489 262.485 674.887 260.77 674.861V670.464C262.496 670.505 264.203 670.094 265.72 669.27L272.401 665.41L425.875 576.773C426.422 576.516 426.892 576.12 427.238 575.625C427.584 575.131 427.794 574.554 427.849 573.952Z" fill="white"/>
<path d="M260.684 640.919V666.605C259.538 666.639 258.403 666.37 257.395 665.826L245.279 658.799L152.523 605.246V578.453L260.684 640.919Z" fill="white"/>
<path d="M423.02 550.396V570.144C422.959 571.288 422.629 572.401 422.058 573.393C421.487 574.386 420.689 575.23 419.731 575.856L276.071 658.764L263.955 665.791C262.945 666.334 261.811 666.602 260.666 666.57V643.636L423.02 550.396Z" fill="#F0F0F0"/>
<path d="M152.453 605.211C152.361 603.897 151.872 602.642 151.051 601.611C149.859 600.043 148.364 598.731 146.655 597.751C145.232 596.861 143.606 596.348 141.93 596.263C140.802 596.254 139.702 596.613 138.797 597.284V570.542L152.419 578.418L152.453 605.211Z" fill="#455A64"/>
<path d="M147.001 597.976C148.578 598.908 149.955 600.144 151.051 601.611C151.872 602.642 152.361 603.897 152.453 605.211V579.664H147.018L147.001 597.976Z" fill="#F5F5F5"/>
<path d="M310.912 477.942L144.751 573.9V576.133C144.751 577.362 143.02 577.864 140.891 576.583C138.762 575.302 137.014 573.814 137.014 571.685L136.806 569.573L306.135 471.815L306.81 471.417C306.987 471.73 307.088 472.079 307.104 472.438V473.477C307.07 474.758 308.783 476.748 310.912 477.942Z" fill="#FF0000"/>
<path opacity="0.6" d="M310.912 477.942L144.751 573.9V576.133C144.751 577.362 143.02 577.864 140.891 576.583C138.762 575.302 137.014 573.814 137.014 571.685L136.806 569.573L306.135 471.815L306.81 471.417C306.987 471.73 307.088 472.079 307.104 472.438V473.477C307.07 474.758 308.783 476.748 310.912 477.942Z" fill="white"/>
<path d="M255.681 638.063L147.123 575.371C145.755 574.662 144.492 574.073 143.955 574.35L144.665 573.952L310.826 477.994L312.765 476.869C313.636 476.621 314.55 476.562 315.445 476.697C316.341 476.831 317.197 477.155 317.957 477.648L425.668 539.854C428.385 541.43 428.385 543.991 425.668 545.566L265.495 638.063C263.972 638.826 262.292 639.223 260.588 639.223C258.885 639.223 257.205 638.826 255.681 638.063Z" fill="#FF0000"/>
<path opacity="0.8" d="M255.681 638.063L147.123 575.371C145.755 574.662 144.492 574.073 143.955 574.35L144.665 573.952L310.826 477.994L312.765 476.869C313.636 476.621 314.55 476.562 315.445 476.697C316.341 476.831 317.197 477.155 317.957 477.648L425.668 539.854C428.385 541.43 428.385 543.991 425.668 545.566L265.495 638.063C263.972 638.826 262.292 639.223 260.588 639.223C258.885 639.223 257.205 638.826 255.681 638.063Z" fill="white"/>
<path d="M306.775 471.469L306.1 471.867L136.772 569.677C136.686 569.497 136.562 569.337 136.408 569.21L135.837 568.881L134.608 568.189L133.102 567.306C132.81 567.112 132.461 567.023 132.111 567.054C131.762 567.086 131.434 567.236 131.181 567.479C131.109 567.527 131.045 567.585 130.991 567.652C130.786 567.86 130.617 568.1 130.489 568.362C130.305 568.662 130.154 568.981 130.039 569.314C129.906 569.67 129.796 570.034 129.71 570.404C129.606 570.837 129.537 571.252 129.45 571.702C129.403 571.959 129.374 572.22 129.364 572.481C129.364 572.689 129.364 572.879 129.364 573.121C129.364 573.364 129.364 574.091 129.364 574.593V569.833C129.543 568.269 130.083 566.768 130.942 565.45C131.801 564.131 132.956 563.03 134.314 562.234L294.504 469.738C295.823 468.959 297.305 468.496 298.834 468.385C300.362 468.274 301.895 468.518 303.314 469.098L305.339 470.275L306.204 470.759C306.455 470.94 306.652 471.186 306.775 471.469Z" fill="#FF0000"/>
<path opacity="0.8" d="M306.775 471.469L306.1 471.867L136.772 569.677C136.686 569.497 136.562 569.337 136.408 569.21L135.837 568.881L134.608 568.189L133.102 567.306C132.81 567.112 132.461 567.023 132.111 567.054C131.762 567.086 131.434 567.236 131.181 567.479C131.109 567.527 131.045 567.585 130.991 567.652C130.786 567.86 130.617 568.1 130.489 568.362C130.305 568.662 130.154 568.981 130.039 569.314C129.906 569.67 129.796 570.034 129.71 570.404C129.606 570.837 129.537 571.252 129.45 571.702C129.403 571.959 129.374 572.22 129.364 572.481C129.364 572.689 129.364 572.879 129.364 573.121C129.364 573.364 129.364 574.091 129.364 574.593V569.833C129.543 568.269 130.083 566.768 130.942 565.45C131.801 564.131 132.956 563.03 134.314 562.234L294.504 469.738C295.823 468.959 297.305 468.496 298.834 468.385C300.362 468.274 301.895 468.518 303.314 469.098L305.339 470.275L306.204 470.759C306.455 470.94 306.652 471.186 306.775 471.469Z" fill="white"/>
<path d="M255.681 638.08L248.965 634.186L171.752 589.634L147.105 575.406C145.374 574.368 143.92 574.004 143.834 574.541V575.649C143.834 576.895 142.103 576.895 139.974 575.649C139.185 575.305 138.493 574.771 137.961 574.095C137.429 573.418 137.074 572.619 136.928 571.771V570.56C136.953 570.29 136.915 570.017 136.815 569.765C136.716 569.512 136.559 569.287 136.356 569.106L135.785 568.777L134.556 568.085L133.05 567.202C132.758 567.008 132.409 566.919 132.059 566.951C131.71 566.982 131.382 567.132 131.129 567.375C131.058 567.423 130.993 567.481 130.939 567.548C130.81 567.683 130.7 567.834 130.61 567.998C130.537 568.073 130.478 568.161 130.437 568.258C130.253 568.558 130.102 568.877 129.987 569.21C129.854 569.566 129.744 569.93 129.658 570.3C129.554 570.733 129.485 571.148 129.398 571.598C129.352 571.856 129.323 572.116 129.312 572.377C129.312 572.585 129.312 572.775 129.312 573.018C129.312 573.26 129.312 573.987 129.312 574.489V591.174H133.12V574.489C133.12 574.091 133.12 573.693 133.12 573.312L133.224 572.36C133.215 572.332 133.215 572.302 133.224 572.273C133.57 575.302 136.46 578.002 138.97 579.422C140.364 580.301 141.962 580.802 143.609 580.876C144.878 580.892 146.11 580.442 147.07 579.612L147.417 579.803L148.074 580.201L245.279 636.332L255.681 642.459C257.18 643.226 258.844 643.612 260.527 643.584V639.188C258.845 639.224 257.181 638.843 255.681 638.08Z" fill="#FF0000"/>
<path opacity="0.6" d="M255.681 638.08L248.965 634.186L171.752 589.634L147.105 575.406C145.374 574.368 143.92 574.004 143.834 574.541V575.649C143.834 576.895 142.103 576.895 139.974 575.649C139.185 575.305 138.493 574.771 137.961 574.095C137.429 573.418 137.074 572.619 136.928 571.771V570.56C136.953 570.29 136.915 570.017 136.815 569.765C136.716 569.512 136.559 569.287 136.356 569.106L135.785 568.777L134.556 568.085L133.05 567.202C132.758 567.008 132.409 566.919 132.059 566.951C131.71 566.982 131.382 567.132 131.129 567.375C131.058 567.423 130.993 567.481 130.939 567.548C130.81 567.683 130.7 567.834 130.61 567.998C130.537 568.073 130.478 568.161 130.437 568.258C130.253 568.558 130.102 568.877 129.987 569.21C129.854 569.566 129.744 569.93 129.658 570.3C129.554 570.733 129.485 571.148 129.398 571.598C129.352 571.856 129.323 572.116 129.312 572.377C129.312 572.585 129.312 572.775 129.312 573.018C129.312 573.26 129.312 573.987 129.312 574.489V591.174H133.12V574.489C133.12 574.091 133.12 573.693 133.12 573.312L133.224 572.36C133.215 572.332 133.215 572.302 133.224 572.273C133.57 575.302 136.46 578.002 138.97 579.422C140.364 580.301 141.962 580.802 143.609 580.876C144.878 580.892 146.11 580.442 147.07 579.612L147.417 579.803L148.074 580.201L245.279 636.332L255.681 642.459C257.18 643.226 258.844 643.612 260.527 643.584V639.188C258.845 639.224 257.181 638.843 255.681 638.08Z" fill="white"/>
<path d="M427.849 542.659V547.176C427.794 547.778 427.584 548.355 427.238 548.85C426.892 549.344 426.422 549.74 425.875 549.997L276.209 636.401L265.703 642.477C264.18 643.265 262.485 643.663 260.77 643.636V639.24C262.494 639.278 264.198 638.872 265.72 638.063L272.401 634.203L425.875 545.567C426.434 545.302 426.911 544.893 427.258 544.382C427.605 543.87 427.809 543.275 427.849 542.659Z" fill="#FF0000"/>
<path opacity="0.1" d="M427.849 542.659V547.176C427.794 547.778 427.584 548.355 427.238 548.85C426.892 549.344 426.422 549.74 425.875 549.997L276.209 636.401L265.703 642.477C264.18 643.265 262.485 643.663 260.77 643.636V639.24C262.494 639.278 264.198 638.872 265.72 638.063L272.401 634.203L425.875 545.567C426.434 545.302 426.911 544.893 427.258 544.382C427.605 543.87 427.809 543.275 427.849 542.659Z" fill="white"/>
<path d="M318.096 477.648C317.336 477.156 316.48 476.831 315.584 476.697C314.688 476.563 313.774 476.621 312.903 476.869L310.965 477.994C308.836 476.748 307.122 474.757 307.122 473.529V472.49C307.106 472.131 307.005 471.781 306.828 471.469C306.692 471.188 306.483 470.948 306.222 470.776L305.357 470.292L303.332 469.115C301.913 468.535 300.38 468.291 298.852 468.402C297.323 468.513 295.841 468.976 294.522 469.755L134.332 562.252L134.159 562.356L247.201 627.626C248.221 628.147 249.351 628.419 250.498 628.419C251.644 628.419 252.774 628.147 253.795 627.626L415.023 533.624L318.096 477.648Z" fill="#263238"/>
<path d="M238.148 618.141L242.423 615.683C241.272 615.283 240.036 615.193 238.84 615.423C237.698 616.012 238.148 618.141 238.148 618.141Z" fill="#FF0000"/>
<path opacity="0.7" d="M238.148 618.141L242.423 615.683C241.272 615.283 240.036 615.193 238.84 615.423C237.698 616.012 238.148 618.141 238.148 618.141Z" fill="black"/>
<path d="M235.205 615.493C235.691 614.966 236.281 614.545 236.938 614.257C237.595 613.97 238.304 613.821 239.021 613.821C239.739 613.821 240.448 613.97 241.105 614.257C241.762 614.545 242.352 614.966 242.838 615.493C247.009 619.318 247.217 623.108 248.948 623.057C250.679 623.005 250.679 592.507 250.679 592.507L234.218 607.756L235.205 615.493Z" fill="#FF0000"/>
<path opacity="0.7" d="M235.205 615.493C235.691 614.966 236.281 614.545 236.938 614.257C237.595 613.97 238.304 613.821 239.021 613.821C239.739 613.821 240.448 613.97 241.105 614.257C241.762 614.545 242.352 614.966 242.838 615.493C247.009 619.318 247.217 623.108 248.948 623.057C250.679 623.005 250.679 592.507 250.679 592.507L234.218 607.756L235.205 615.493Z" fill="black"/>
<path d="M407.287 504.632L407.563 504.476L404.933 502.953L291.597 437.527L126.457 544.389C123.739 545.964 123.255 548.249 125.383 549.461L129.243 551.694L235.171 612.948L235.933 612.394L407.287 504.632Z" fill="#FF0000"/>
<path opacity="0.5" d="M407.287 504.632L407.563 504.476L404.933 502.953L291.597 437.527L126.457 544.389C123.739 545.964 123.255 548.249 125.383 549.461L129.243 551.694L235.171 612.948L235.933 612.394L407.287 504.632Z" fill="black"/>
<path d="M249.312 578.072L241.107 576.341V609.227C246.058 611.339 249.208 613.312 249.762 617.448L249.312 578.072Z" fill="#455A64"/>
<path d="M237.49 609.66L132.549 549.08C131.587 548.455 130.787 547.612 130.212 546.62C129.638 545.627 129.306 544.513 129.243 543.368V510.984L235.205 572.689C235.205 572.689 236.469 577.276 240.225 578.712C243.981 580.149 241.107 581.62 241.107 581.62V609.314C237.871 608.846 237.49 609.66 237.49 609.66Z" fill="#F0F0F0"/>
<path d="M247.166 576.947C246.075 576.324 245.21 576.289 245.21 576.947V577.968C245.21 579.11 243.479 579.058 241.333 577.812C239.187 576.566 237.456 574.662 237.456 573.52V572.481C237.456 571.893 235.984 570.577 234.184 569.539L404.915 471.711L407.563 473.234C407.93 473.624 408.161 474.122 408.221 474.654V475.692C408.221 476.835 409.952 478.756 412.081 479.985C414.21 481.214 415.958 481.283 415.958 480.14V479.102C415.958 478.513 416.823 478.565 417.896 479.188L247.166 576.947Z" fill="#FF0000"/>
<path opacity="0.6" d="M247.166 576.947C246.075 576.324 245.21 576.289 245.21 576.947V577.968C245.21 579.11 243.479 579.058 241.333 577.812C239.187 576.566 237.456 574.662 237.456 573.52V572.481C237.456 571.893 235.984 570.577 234.184 569.539L404.915 471.711L407.563 473.234C407.93 473.624 408.161 474.122 408.221 474.654V475.692C408.221 476.835 409.952 478.756 412.081 479.985C414.21 481.214 415.958 481.283 415.958 480.14V479.102C415.958 478.513 416.823 478.565 417.896 479.188L247.166 576.947Z" fill="black"/>
<path d="M407.287 473.321L407.563 473.165L404.933 471.642L291.597 406.216L126.457 501.586C123.739 503.161 123.255 505.428 125.383 506.657L129.243 508.872L235.206 572.689L407.287 473.321Z" fill="#FF0000"/>
<path opacity="0.5" d="M407.287 473.321L407.563 473.165L404.933 471.642L291.597 406.216L126.457 501.586C123.739 503.161 123.255 505.428 125.383 506.657L129.243 508.872L235.206 572.689L407.287 473.321Z" fill="black"/>
<path d="M415.992 478.046L245.296 576.601L251.268 581.274L421.323 483.1C420.909 481.838 420.117 480.732 419.056 479.933L415.992 478.046Z" fill="#FF0000"/>
<path opacity="0.5" d="M415.992 478.046L245.296 576.601L251.268 581.274L421.323 483.1C420.909 481.838 420.117 480.732 419.056 479.933L415.992 478.046Z" fill="black"/>
<path d="M420.752 527.15C420.857 527.085 420.955 527.01 421.046 526.925C421.124 526.886 421.19 526.827 421.236 526.752C421.376 526.616 421.493 526.458 421.582 526.285C421.659 526.219 421.718 526.136 421.756 526.042C421.941 525.745 422.086 525.425 422.188 525.09C422.332 524.731 422.448 524.36 422.534 523.983C422.638 523.567 422.707 523.152 422.777 522.702C422.837 522.446 422.871 522.185 422.881 521.923V521.283C422.881 520.815 422.881 520.313 422.881 519.811V491.616C422.912 488.656 422.371 485.717 421.288 482.962L251.232 581.135L250.523 625.307L420.561 527.098L420.752 527.15Z" fill="#FF0000"/>
<path opacity="0.7" d="M420.752 527.15C420.857 527.085 420.955 527.01 421.046 526.925C421.124 526.886 421.19 526.827 421.236 526.752C421.376 526.616 421.493 526.458 421.582 526.285C421.659 526.219 421.718 526.136 421.756 526.042C421.941 525.745 422.086 525.425 422.188 525.09C422.332 524.731 422.448 524.36 422.534 523.983C422.638 523.567 422.707 523.152 422.777 522.702C422.837 522.446 422.871 522.185 422.881 521.923V521.283C422.881 520.815 422.881 520.313 422.881 519.811V491.616C422.912 488.656 422.371 485.717 421.288 482.962L251.232 581.135L250.523 625.307L420.561 527.098L420.752 527.15Z" fill="black"/>
<path opacity="0.79" d="M251.354 581.205C251.354 581.205 385.287 518.531 397.473 512.784C405.521 508.994 409.467 516.956 407.563 525.194C405.833 532.395 398.788 539.82 398.788 539.82L420.683 527.168C420.789 527.102 420.887 527.027 420.978 526.943C421.056 526.904 421.122 526.844 421.168 526.769C421.308 526.633 421.425 526.475 421.514 526.302C421.591 526.237 421.65 526.153 421.687 526.06C421.872 525.763 422.018 525.443 422.12 525.108C422.264 524.748 422.379 524.378 422.466 524C422.57 523.585 422.639 523.169 422.708 522.719C422.768 522.464 422.803 522.203 422.812 521.94V521.3C422.812 520.833 422.812 520.331 422.812 519.829V491.616C422.843 488.656 422.303 485.717 421.22 482.962L251.354 581.205Z" fill="#263238"/>
<path d="M252.929 589.807H249.121C249.21 586.928 248.579 584.072 247.286 581.499C246.38 582.17 245.281 582.529 244.153 582.52C242.477 582.435 240.851 581.922 239.428 581.031C237.715 580.058 236.219 578.744 235.032 577.172C234.941 577.063 234.86 576.948 234.789 576.826C234.117 575.868 233.727 574.74 233.664 573.572L133.154 515.554L129.692 513.563L125.331 511.053C124.951 510.88 124.626 510.606 124.391 510.261C124.156 509.917 124.02 509.514 123.998 509.097V504.649C124.017 505.073 124.151 505.484 124.385 505.838C124.62 506.192 124.947 506.475 125.331 506.657L136.875 513.303L234.062 569.435C235.88 570.473 237.351 571.789 237.351 572.377V573.416C237.459 574.074 237.775 574.68 238.251 575.147C239.085 576.15 240.094 576.994 241.228 577.639C243.374 578.885 245.105 578.937 245.105 577.795V576.774C245.105 576.168 245.953 576.22 247.044 576.774L248.965 577.899C251.198 579.283 252.929 584.562 252.929 589.807Z" fill="#FF0000"/>
<path d="M249.121 589.807V618.002C249.121 618.401 249.121 618.799 249.121 619.179L249.035 620.131C249.043 620.16 249.043 620.19 249.035 620.218C248.689 617.189 245.798 614.489 243.288 613.07C241.889 612.188 240.284 611.687 238.632 611.616C237.363 611.599 236.131 612.049 235.171 612.879L234.842 612.689L234.167 612.291L136.98 556.159L131.389 552.94L129.797 552.005L125.089 549.288C124.779 549.094 124.523 548.827 124.341 548.51C124.16 548.192 124.06 547.836 124.05 547.47V551.919C124.064 552.263 124.158 552.6 124.327 552.901C124.495 553.202 124.733 553.458 125.02 553.65C125.573 553.978 126.162 554.29 126.75 554.653L127.841 555.294L129.71 556.367C130.126 556.627 130.506 556.852 130.87 557.042C131.233 557.232 131.441 557.388 131.683 557.509L133.12 558.357L210.333 602.909L234.98 617.137C236.711 618.176 238.148 618.539 238.252 618.002C238.258 617.939 238.258 617.875 238.252 617.812V616.825C238.252 615.579 239.982 615.579 242.111 616.825C242.901 617.169 243.592 617.703 244.124 618.379C244.656 619.056 245.011 619.855 245.158 620.703V621.914C245.132 622.184 245.171 622.457 245.27 622.709C245.369 622.962 245.526 623.187 245.729 623.368L246.3 623.697L247.512 624.389L249.017 625.272C249.31 625.466 249.659 625.555 250.009 625.523C250.358 625.492 250.686 625.342 250.939 625.099C251.017 625.06 251.083 625 251.129 624.926C251.268 624.796 251.385 624.644 251.475 624.476C251.543 624.402 251.601 624.321 251.648 624.233C251.834 623.936 251.979 623.616 252.081 623.282C252.227 622.929 252.343 622.564 252.427 622.191C252.531 621.758 252.6 621.343 252.67 620.893C252.731 620.638 252.766 620.377 252.773 620.114C252.773 619.906 252.773 619.716 252.773 619.474C252.773 619.231 252.773 618.504 252.773 618.002V589.807H249.121Z" fill="#FF0000"/>
<g opacity="0.6">
<path d="M252.929 589.807H249.121C249.21 586.928 248.579 584.072 247.286 581.499C246.38 582.17 245.281 582.529 244.153 582.52C242.477 582.435 240.851 581.922 239.428 581.031C237.715 580.058 236.219 578.744 235.032 577.172C234.941 577.063 234.86 576.948 234.789 576.826C234.117 575.868 233.727 574.74 233.664 573.572L133.154 515.554L129.692 513.563L125.331 511.053C124.951 510.88 124.626 510.606 124.391 510.261C124.156 509.917 124.02 509.514 123.998 509.097V504.649C124.017 505.073 124.151 505.484 124.385 505.838C124.62 506.192 124.947 506.475 125.331 506.657L136.875 513.303L234.062 569.435C235.88 570.473 237.351 571.789 237.351 572.377V573.416C237.459 574.074 237.775 574.68 238.251 575.147C239.085 576.15 240.094 576.994 241.228 577.639C243.374 578.885 245.105 578.937 245.105 577.795V576.774C245.105 576.168 245.953 576.22 247.044 576.774L248.965 577.899C251.198 579.283 252.929 584.562 252.929 589.807Z" fill="black"/>
<path d="M249.121 589.807V618.003C249.121 618.401 249.121 618.799 249.121 619.18L249.035 620.132C249.043 620.16 249.043 620.19 249.035 620.218C248.689 617.189 245.798 614.489 243.288 613.07C241.889 612.188 240.284 611.687 238.632 611.616C237.363 611.6 236.131 612.049 235.171 612.879L234.842 612.689L234.167 612.291L136.98 556.16L131.389 552.94L129.797 552.006L125.089 549.288C124.779 549.094 124.523 548.827 124.341 548.51C124.16 548.193 124.06 547.836 124.05 547.471V551.919C124.064 552.264 124.158 552.6 124.327 552.901C124.495 553.202 124.733 553.458 125.02 553.65C125.573 553.979 126.162 554.29 126.75 554.654L127.841 555.294L129.71 556.367C130.126 556.627 130.506 556.852 130.87 557.042C131.233 557.233 131.441 557.388 131.683 557.51L133.12 558.358L210.333 602.91L234.98 617.137C236.711 618.176 238.148 618.539 238.252 618.003C238.258 617.939 238.258 617.876 238.252 617.812V616.826C238.252 615.579 239.982 615.579 242.111 616.826C242.901 617.169 243.592 617.703 244.124 618.38C244.656 619.056 245.011 619.855 245.158 620.703V621.914C245.132 622.185 245.171 622.457 245.27 622.709C245.369 622.962 245.526 623.188 245.729 623.368L246.3 623.697L247.512 624.39L249.017 625.272C249.31 625.466 249.659 625.555 250.009 625.524C250.358 625.492 250.686 625.342 250.939 625.099C251.017 625.06 251.083 625 251.129 624.926C251.268 624.796 251.385 624.644 251.475 624.476C251.543 624.403 251.601 624.321 251.648 624.234C251.834 623.937 251.979 623.617 252.081 623.282C252.227 622.929 252.343 622.564 252.427 622.191C252.531 621.759 252.6 621.343 252.67 620.893C252.731 620.638 252.766 620.377 252.773 620.114C252.773 619.907 252.773 619.716 252.773 619.474C252.773 619.232 252.773 618.505 252.773 618.003V589.807H249.121Z" fill="black"/>
</g>
<path d="M421.41 483.014L259.784 576.341L137.62 505.809C137.221 505.675 136.874 505.42 136.628 505.078C136.382 504.736 136.25 504.326 136.25 503.905C136.25 503.484 136.382 503.074 136.628 502.732C136.874 502.39 137.221 502.135 137.62 502.001L297.551 409.643L404.863 471.642L407.511 473.182C407.87 473.569 408.094 474.061 408.152 474.584V475.623C408.152 476.765 409.883 478.687 412.012 479.916C412.12 479.987 412.236 480.045 412.358 480.089L415.923 478.029L417.654 478.998L417.897 479.119L419.143 479.846C420.203 480.647 420.993 481.752 421.41 483.014Z" fill="#263238"/>
<path d="M146.638 506.501L151.502 503.905L147.071 502.849C146.645 503.347 146.377 503.959 146.3 504.609C146.223 505.26 146.341 505.918 146.638 506.501Z" fill="#E0E0E0"/>
<g style="mix-blend-mode:multiply" opacity="0.5">
<path d="M146.638 506.501L151.502 503.905L147.071 502.849C146.645 503.347 146.377 503.959 146.3 504.609C146.223 505.26 146.341 505.918 146.638 506.501Z" fill="#E0E0E0"/>
</g>
<path d="M275.534 571.408C274.003 572.185 272.31 572.59 270.593 572.59C268.875 572.59 267.182 572.185 265.651 571.408L154.634 507.367L320.796 402.322L324.69 400.072L435.689 473.183C438.407 474.758 438.407 477.319 435.689 478.894L275.534 571.408Z" fill="#FF0000"/>
<path d="M233.855 441.196L149.979 498.037L195.136 463.42L170.074 448.95L140.926 465.826V495.926C140.926 498.487 143.782 502.105 144.821 501.516C146.741 501.981 148.609 502.642 150.394 503.489C153.305 505.145 156.008 507.144 158.442 509.444L247.391 448.985L233.855 441.196Z" fill="#FF0000"/>
<path opacity="0.2" d="M233.855 441.196L149.979 498.037L195.136 463.42L170.074 448.95L140.926 465.826V495.926C140.926 498.487 143.782 502.105 144.821 501.516C146.741 501.981 148.609 502.642 150.394 503.489C153.305 505.145 156.008 507.144 158.442 509.444L247.391 448.985L233.855 441.196Z" fill="black"/>
<path d="M270.602 533.831V568.587C269.451 568.612 268.313 568.344 267.296 567.808L255.18 560.78L162.406 507.228V471.33L270.602 533.831Z" fill="white"/>
<path d="M432.938 443.325V472.178C432.874 473.321 432.543 474.433 431.972 475.425C431.401 476.417 430.605 477.261 429.649 477.89L285.989 560.798L273.873 567.825C272.86 568.359 271.729 568.627 270.584 568.604V536.549L432.938 443.325Z" fill="#F0F0F0"/>
<path d="M162.354 507.228C162.27 505.915 161.787 504.659 160.97 503.628C159.787 502.051 158.29 500.737 156.573 499.768C155.145 498.878 153.513 498.365 151.831 498.28C150.741 498.169 149.644 498.425 148.715 499.007V463.455L162.337 471.33L162.354 507.228Z" fill="#455A64"/>
<path d="M156.92 499.976C158.489 500.925 159.864 502.165 160.97 503.628C161.787 504.66 162.27 505.915 162.354 507.228V472.611H156.937L156.92 499.976Z" fill="#F5F5F5"/>
<path d="M320.813 370.907L154.652 466.882V469.098C154.652 470.344 152.921 470.828 150.792 469.565C148.663 468.301 146.898 466.778 146.898 464.649L146.69 462.538L316.019 364.779L316.711 364.381C316.886 364.7 316.981 365.057 316.988 365.42V366.441C316.971 367.67 318.685 369.66 320.813 370.907Z" fill="#FF0000"/>
<path opacity="0.2" d="M320.813 370.907L154.652 466.882V469.098C154.652 470.344 152.921 470.828 150.792 469.565C148.663 468.301 146.898 466.778 146.898 464.649L146.69 462.538L316.019 364.779L316.711 364.381C316.886 364.7 316.981 365.057 316.988 365.42V366.441C316.971 367.67 318.685 369.66 320.813 370.907Z" fill="black"/>
<path d="M265.651 530.976L157.023 468.302C155.638 467.575 154.375 466.986 153.856 467.263L154.565 466.882L320.727 370.907L322.682 369.799C323.552 369.541 324.468 369.477 325.365 369.611C326.263 369.746 327.119 370.076 327.875 370.578L435.689 432.767C438.407 434.342 438.407 436.921 435.689 438.479L275.5 530.976C273.973 531.747 272.286 532.149 270.575 532.149C268.865 532.149 267.178 531.747 265.651 530.976Z" fill="#FF0000"/>
<path d="M316.693 364.381L316.001 364.779L146.638 462.538C146.552 462.357 146.428 462.198 146.274 462.07L145.703 461.759L144.491 461.049L142.986 460.167C142.692 459.975 142.343 459.888 141.995 459.92C141.646 459.951 141.319 460.099 141.064 460.34C140.993 460.388 140.929 460.446 140.874 460.513C140.674 460.728 140.499 460.966 140.355 461.222C140.176 461.523 140.031 461.842 139.922 462.174C139.786 462.537 139.67 462.907 139.576 463.282C139.489 463.697 139.403 464.113 139.333 464.563C139.281 464.826 139.246 465.092 139.23 465.359V465.982C139.23 466.449 139.23 466.951 139.23 467.471V462.711C139.403 461.143 139.942 459.638 140.801 458.316C141.661 456.993 142.818 455.89 144.18 455.095L304.37 362.599C305.69 361.821 307.173 361.36 308.702 361.252C310.23 361.144 311.763 361.392 313.18 361.976L315.205 363.152L316.053 363.654C316.331 363.831 316.553 364.083 316.693 364.381Z" fill="#FF0000"/>
<path d="M265.651 571.408L258.953 567.531L158.442 509.496C158.354 508.183 157.872 506.929 157.058 505.895C155.87 504.324 154.374 503.01 152.661 502.036C151.234 501.158 149.609 500.652 147.936 500.564C146.807 500.541 145.702 500.901 144.803 501.586C143.512 499.005 142.882 496.144 142.969 493.26H139.161C139.161 498.453 140.892 503.784 143.021 505.013L144.942 506.138C146.032 506.761 146.88 506.795 146.88 506.138V505.117C146.88 503.974 148.611 504.026 150.775 505.255C152.938 506.484 154.635 508.422 154.635 509.565V510.586C154.635 511.174 156.106 512.49 157.923 513.546L255.128 569.677L265.651 575.752C267.174 576.54 268.869 576.939 270.584 576.912V572.516C268.872 572.574 267.174 572.193 265.651 571.408Z" fill="#FF0000"/>
<path opacity="0.4" d="M265.651 571.408L258.953 567.531L158.442 509.496C158.354 508.183 157.872 506.929 157.058 505.895C155.87 504.324 154.374 503.01 152.661 502.036C151.234 501.158 149.609 500.652 147.936 500.564C146.807 500.541 145.702 500.901 144.803 501.586C143.512 499.005 142.882 496.144 142.969 493.26H139.161C139.161 498.453 140.892 503.784 143.021 505.013L144.942 506.138C146.032 506.761 146.88 506.795 146.88 506.138V505.117C146.88 503.974 148.611 504.026 150.775 505.255C152.938 506.484 154.635 508.422 154.635 509.565V510.586C154.635 511.174 156.106 512.49 157.923 513.546L255.128 569.677L265.651 575.752C267.174 576.54 268.869 576.939 270.584 576.912V572.516C268.872 572.574 267.174 572.193 265.651 571.408Z" fill="black"/>
<path d="M265.685 530.993L258.987 527.116L181.774 482.564L157.023 468.302C155.292 467.28 153.838 466.917 153.734 467.453V468.579C153.734 469.807 152.003 469.807 149.874 468.579C149.083 468.234 148.39 467.697 147.858 467.017C147.326 466.337 146.972 465.535 146.828 464.684V463.473C146.854 463.202 146.815 462.93 146.716 462.678C146.617 462.425 146.459 462.199 146.257 462.019L145.686 461.707L144.474 460.997L142.968 460.115C142.675 459.924 142.326 459.837 141.978 459.868C141.629 459.9 141.301 460.047 141.047 460.288C140.976 460.336 140.912 460.394 140.857 460.461C140.722 460.602 140.606 460.759 140.511 460.928C140.445 461.003 140.387 461.084 140.337 461.171C140.159 461.471 140.014 461.79 139.905 462.122C139.769 462.485 139.653 462.855 139.559 463.23C139.472 463.646 139.385 464.061 139.316 464.511C139.264 464.774 139.229 465.04 139.212 465.307V465.93C139.212 466.398 139.212 466.9 139.212 467.419V493.174H143.02V467.557C143.02 467.159 143.02 466.744 143.02 466.363L143.107 465.411C143.453 468.44 146.344 471.14 148.871 472.56C150.262 473.444 151.862 473.946 153.509 474.013C154.779 474.03 156.01 473.58 156.971 472.75L157.3 472.94L157.975 473.338L255.179 529.47L265.703 535.545C267.207 536.314 268.877 536.7 270.566 536.67V532.274C268.858 532.262 267.18 531.821 265.685 530.993Z" fill="#FF0000"/>
<path opacity="0.4" d="M265.685 530.993L258.987 527.116L181.774 482.564L157.023 468.302C155.292 467.28 153.838 466.917 153.734 467.453V468.579C153.734 469.807 152.003 469.807 149.874 468.579C149.083 468.234 148.39 467.697 147.858 467.017C147.326 466.337 146.972 465.535 146.828 464.684V463.473C146.854 463.202 146.815 462.93 146.716 462.678C146.617 462.425 146.459 462.199 146.257 462.019L145.686 461.707L144.474 460.997L142.968 460.115C142.675 459.924 142.326 459.837 141.978 459.868C141.629 459.9 141.301 460.047 141.047 460.288C140.976 460.336 140.912 460.394 140.857 460.461C140.722 460.602 140.606 460.759 140.511 460.928C140.445 461.003 140.387 461.084 140.337 461.171C140.159 461.471 140.014 461.79 139.905 462.122C139.769 462.485 139.653 462.855 139.559 463.23C139.472 463.646 139.385 464.061 139.316 464.511C139.264 464.774 139.229 465.04 139.212 465.307V465.93C139.212 466.398 139.212 466.9 139.212 467.419V493.174H143.02V467.557C143.02 467.159 143.02 466.744 143.02 466.363L143.107 465.411C143.453 468.44 146.344 471.14 148.871 472.56C150.262 473.444 151.862 473.946 153.509 474.013C154.779 474.03 156.01 473.58 156.971 472.75L157.3 472.94L157.975 473.338L255.179 529.47L265.703 535.545C267.207 536.314 268.877 536.7 270.566 536.67V532.274C268.858 532.262 267.18 531.821 265.685 530.993Z" fill="black"/>
<path d="M437.749 435.571V440.037C437.696 440.636 437.488 441.212 437.145 441.707C436.802 442.202 436.336 442.598 435.793 442.858L286.109 529.262L275.603 535.337C274.085 536.122 272.397 536.521 270.688 536.497V532.1C272.406 532.138 274.105 531.733 275.621 530.923L282.302 527.064L435.689 438.479C436.271 438.236 436.772 437.835 437.137 437.321C437.501 436.806 437.713 436.2 437.749 435.571Z" fill="#FF0000"/>
<path opacity="0.2" d="M437.749 435.571V440.037C437.696 440.636 437.488 441.212 437.145 441.707C436.802 442.202 436.336 442.598 435.793 442.858L286.109 529.262L275.603 535.337C274.085 536.122 272.397 536.521 270.688 536.497V532.1C272.406 532.138 274.105 531.733 275.621 530.923L282.302 527.064L435.689 438.479C436.271 438.236 436.772 437.835 437.137 437.321C437.501 436.806 437.713 436.2 437.749 435.571Z" fill="black"/>
<path d="M437.749 475.969V480.435C437.696 481.034 437.488 481.61 437.145 482.105C436.802 482.6 436.336 482.996 435.793 483.256L286.04 569.677L275.534 575.752C274.016 576.538 272.327 576.936 270.618 576.912V572.516C272.337 572.554 274.035 572.148 275.551 571.339L282.232 567.479L435.689 478.877C436.271 478.634 436.772 478.233 437.137 477.719C437.501 477.204 437.713 476.598 437.749 475.969Z" fill="#FF0000"/>
<path opacity="0.2" d="M437.749 475.969V480.435C437.696 481.034 437.488 481.61 437.145 482.105C436.802 482.6 436.336 482.996 435.793 483.256L286.04 569.677L275.534 575.752C274.016 576.538 272.327 576.936 270.618 576.912V572.516C272.337 572.554 274.035 572.148 275.551 571.339L282.232 567.479L435.689 478.877C436.271 478.634 436.772 478.233 437.137 477.719C437.501 477.204 437.713 476.598 437.749 475.969Z" fill="black"/>
<path d="M368.619 318.929L384.508 347.246L361.349 359.569L344.491 334.472L368.619 318.929Z" fill="#FFA8A7"/>
<path d="M312.245 255.148C321.072 253.642 334.435 253.244 343.123 268.146C351.812 283.049 370.54 319.829 370.54 319.829C370.54 319.829 359.601 333.988 343.764 336.567L317.888 295.511L312.245 255.148Z" fill="#FF0000"/>
<path d="M333.102 601.94H352.868V635.778H333.102V601.94Z" fill="#FFA8A7"/>
<path d="M390.324 593.701L410.091 594.376L411.077 558.565L391.328 557.89L390.324 593.701Z" fill="#FFA8A7"/>
<path d="M352.868 626.016V623.195C354.755 624.008 359.151 640.78 366.992 647.929C373.223 653.623 381.721 660.183 383.885 666.518C386.135 673.112 372.046 676.765 366.23 675.726C359.463 674.532 347.727 669.772 344.785 665.341C341.843 660.91 340.458 654.419 338.069 651.183C335.681 647.946 330.159 644.259 328.861 640.573C328.152 638.513 329 634.013 329.986 630.187C330.904 626.726 331.908 622.849 333.102 623.178V625.324C334.538 626.916 338.502 628.491 342.985 628.664C345.875 628.803 352.885 628.232 352.868 626.016Z" fill="#263238"/>
<path d="M410.298 588.284C411.319 588.284 412.15 589.772 414.417 592.213C417.8 595.63 421.731 598.456 426.049 600.573C433.457 604.294 447.805 609.988 454.348 612.948C458.415 614.783 458.225 619.699 454.019 622.502C449.813 625.306 439.67 627.314 427.468 624.58C420.839 623.091 412.184 616.964 406.698 617.293C401.211 617.622 390.982 617.552 386.949 614.766C382.916 611.979 384.526 606.111 385.668 600.919C386.914 595.346 388.697 586.812 390.549 587.193V588.924C392.92 592.524 405.019 593.995 410.246 591.347L410.298 588.284Z" fill="#263238"/>
<path d="M253.483 396.16C249.156 426.709 254.989 432.507 284.015 461.828C299.593 477.561 324.777 500.634 324.777 500.634C324.777 500.634 324.413 510.396 324.223 532.273C324.033 551.538 332.081 614.229 332.081 614.229C332.081 614.229 345.201 619.75 354.201 614.021C354.201 614.021 358.269 567.375 360.467 543.057C363.444 510.171 365.002 493.589 363.323 486.51C361.834 480.262 332.289 442.944 325.469 432.49L388.264 468.976C387.047 478.221 386.434 487.536 386.43 496.86C387.122 523.013 390.341 575.25 390.341 575.25C390.341 575.25 404.707 581.672 411.838 576.133C411.838 576.133 429.926 461.897 429.926 452.516C429.926 438.271 368.065 395.744 356.347 385.844C349.666 380.201 342.224 374.091 342.224 374.091L253.483 396.16Z" fill="#455A64"/>
<path d="M325.469 432.507C332.074 427.16 337.045 420.065 339.817 412.031C339.471 417.273 338.725 422.481 337.584 427.609C335.854 434.394 388.264 468.976 388.264 468.976L325.469 432.507Z" fill="#37474F"/>
<path d="M290.569 200.513C287.033 185.426 296.397 170.33 311.483 166.794C326.57 163.258 341.667 172.622 345.202 187.709C348.738 202.795 339.374 217.892 324.288 221.428C309.201 224.963 294.104 215.6 290.569 200.513Z" fill="#263238"/>
<path d="M258.935 272.145C258.935 272.145 252.011 277.822 252.011 295.753V334.472L252.998 399.587C266.845 414.663 329.155 408.951 344.577 376.065C344.577 376.065 344.456 307.333 344.456 291.928C344.456 276.524 335.802 256.532 312.262 255.148L281.765 262.244L258.935 272.145Z" fill="#263238"/>
<path d="M269.39 214.057C269.39 214.057 273.942 235.416 275.759 238.929C276.971 241.095 278.975 242.708 281.35 243.43L281.038 228.406L269.39 214.057Z" fill="#263238"/>
<path d="M275.101 183.456C273.521 183.278 271.921 183.462 270.422 183.992C268.923 184.523 267.564 185.387 266.447 186.519C262.708 190.345 264.803 202.322 269.459 214.057L278.026 215.044L275.101 183.456Z" fill="#263238"/>
<path d="M280.519 215.044C278.788 216.065 276.347 212.776 274.236 210.561C272.124 208.345 265.201 205.368 261.756 212.586C258.312 219.804 264.803 229.773 270.238 231.487C279.619 234.429 281.038 228.406 281.038 228.406L281.748 262.244C289.831 271.279 317.472 269.167 312.263 261.344V250.959C312.263 250.959 320.761 252.257 324.898 251.617C331.821 250.544 336.148 245.109 338.243 237.631C341.6 225.637 342.881 215.961 339.973 192.37C336.841 166.511 306.776 166.251 290.54 176.463C274.305 186.675 280.519 215.044 280.519 215.044Z" fill="#FFA8A7"/>
<path d="M304.422 220.963H305.876C308.414 220.963 310.849 219.955 312.644 218.16C314.439 216.365 315.447 213.93 315.447 211.392C315.447 208.853 314.439 206.419 312.644 204.624C310.849 202.828 308.414 201.82 305.876 201.82H304.404C301.866 201.82 299.431 202.828 297.636 204.624C295.841 206.419 294.833 208.853 294.833 211.392C294.833 213.93 295.841 216.365 297.636 218.16C299.431 219.955 301.866 220.963 304.404 220.963H304.422ZM305.876 203.43C307.987 203.43 310.012 204.269 311.506 205.762C312.999 207.255 313.838 209.28 313.838 211.392C313.838 213.503 312.999 215.528 311.506 217.022C310.012 218.515 307.987 219.354 305.876 219.354H304.404C302.293 219.354 300.268 218.515 298.775 217.022C297.281 215.528 296.443 213.503 296.443 211.392C296.443 209.28 297.281 207.255 298.775 205.762C300.268 204.269 302.293 203.43 304.404 203.43H305.876Z" fill="#263238"/>
<path d="M333.569 220.963H335.041C337.579 220.963 340.014 219.955 341.809 218.16C343.604 216.365 344.612 213.93 344.612 211.392C344.612 208.853 343.604 206.419 341.809 204.624C340.014 202.828 337.579 201.82 335.041 201.82H333.569C331.031 201.82 328.596 202.828 326.801 204.624C325.006 206.419 323.998 208.853 323.998 211.392C323.998 213.93 325.006 216.365 326.801 218.16C328.596 219.955 331.031 220.963 333.569 220.963ZM335.041 203.43C337.152 203.43 339.177 204.269 340.671 205.762C342.164 207.255 343.003 209.28 343.003 211.392C343.003 213.503 342.164 215.528 340.671 217.022C339.177 218.515 337.152 219.354 335.041 219.354H333.569C331.458 219.354 329.433 218.515 327.94 217.022C326.446 215.528 325.608 213.503 325.608 211.392C325.608 209.28 326.446 207.255 327.94 205.762C329.433 204.269 331.458 203.43 333.569 203.43H335.041Z" fill="#263238"/>
<path d="M315.343 209.505C315.927 208.712 316.688 208.066 317.565 207.618C318.443 207.17 319.412 206.933 320.397 206.926C321.218 206.844 322.046 206.957 322.813 207.258C323.581 207.559 324.266 208.039 324.811 208.657L326.092 207.688C325.391 206.859 324.497 206.216 323.489 205.814C322.481 205.413 321.389 205.265 320.311 205.386C319.063 205.398 317.836 205.707 316.731 206.288C315.626 206.869 314.676 207.705 313.959 208.726L315.343 209.505Z" fill="#263238"/>
<path d="M275.379 209.436H295.733V211.046H275.379V209.436Z" fill="#263238"/>
<path d="M280.519 217.934C279.653 217.934 276.382 212.499 274.236 210.561C271.276 207.861 275.101 183.456 275.101 183.456C275.101 183.456 272.245 177.381 277.957 171.115C282.007 166.649 288.792 166.147 300.371 164.33C306.447 163.378 315.655 161.665 321.73 160.539C328.965 159.189 334.971 157.77 340.077 162.27C342.081 164.008 343.499 166.323 344.134 168.899C344.769 171.474 344.592 174.183 343.625 176.654C342.159 179.735 339.552 182.124 336.356 183.317C336.356 183.317 333.205 186.121 322.215 187.454C311.224 188.787 294.106 187.212 291.769 186.883C288.584 186.45 287.909 189.531 286.178 197.978C284.673 205.334 283.374 217.882 280.519 217.934Z" fill="#263238"/>
<path d="M275.119 185.429L264.734 179.838C265.066 179.14 265.537 178.517 266.117 178.005C266.697 177.494 267.374 177.105 268.108 176.863C268.842 176.62 269.618 176.529 270.389 176.594C271.159 176.659 271.909 176.88 272.592 177.242C273.98 178.025 275.015 179.31 275.486 180.832C275.956 182.355 275.824 184 275.119 185.429Z" fill="#263238"/>
<path d="M312.245 251.046C312.245 251.046 296.841 247.947 291.475 245.091C288.309 243.438 285.716 240.868 284.033 237.718C284.847 240.856 286.283 243.799 288.256 246.372C292.202 251.409 312.263 255.113 312.263 255.113L312.245 251.046Z" fill="#F28F8F"/>
<path d="M308.541 211.201C308.517 211.809 308.315 212.396 307.96 212.89C307.605 213.384 307.112 213.762 306.543 213.977C305.974 214.193 305.355 214.236 304.761 214.102C304.168 213.968 303.627 213.662 303.207 213.222C302.786 212.783 302.505 212.229 302.396 211.631C302.288 211.032 302.359 210.415 302.599 209.856C302.839 209.298 303.239 208.822 303.748 208.489C304.256 208.155 304.852 207.979 305.46 207.982C305.874 207.991 306.282 208.081 306.661 208.248C307.039 208.415 307.382 208.654 307.668 208.953C307.954 209.252 308.178 209.605 308.328 209.99C308.478 210.376 308.55 210.788 308.541 211.201Z" fill="#263238"/>
<path d="M303.591 198.428L296.979 202.063C296.533 201.162 296.444 200.127 296.73 199.164C297.016 198.201 297.655 197.382 298.519 196.87C298.953 196.63 299.43 196.481 299.922 196.429C300.415 196.378 300.913 196.427 301.386 196.572C301.859 196.718 302.298 196.957 302.677 197.276C303.056 197.594 303.367 197.986 303.591 198.428Z" fill="#263238"/>
<path d="M310.843 232.508L317.888 235.156C317.736 235.629 317.49 236.067 317.165 236.442C316.841 236.818 316.443 237.124 315.997 237.342C315.551 237.561 315.065 237.686 314.569 237.712C314.073 237.738 313.577 237.664 313.111 237.493C312.161 237.117 311.394 236.387 310.971 235.458C310.549 234.528 310.503 233.471 310.843 232.508Z" fill="#F28F8F"/>
<path d="M336.858 201.128L330.835 196.507C331.115 196.103 331.474 195.761 331.89 195.5C332.307 195.239 332.772 195.066 333.257 194.99C333.742 194.914 334.238 194.937 334.714 195.058C335.19 195.178 335.637 195.395 336.027 195.693C336.838 196.318 337.377 197.232 337.531 198.244C337.686 199.256 337.445 200.289 336.858 201.128Z" fill="#263238"/>
<path d="M334.21 210.319C334.186 210.926 333.984 211.514 333.629 212.007C333.274 212.501 332.781 212.879 332.212 213.095C331.643 213.31 331.024 213.353 330.43 213.219C329.837 213.085 329.296 212.779 328.876 212.339C328.455 211.9 328.174 211.347 328.065 210.748C327.957 210.149 328.028 209.532 328.268 208.973C328.508 208.415 328.908 207.939 329.417 207.606C329.925 207.272 330.521 207.096 331.129 207.099C331.543 207.108 331.951 207.199 332.33 207.365C332.708 207.532 333.051 207.772 333.337 208.071C333.623 208.37 333.847 208.722 333.997 209.108C334.147 209.493 334.219 209.905 334.21 210.319Z" fill="#263238"/>
<path d="M318.961 207.844L319.307 226.554L330.367 224.113L318.961 207.844Z" fill="#F28F8F"/>
<path d="M337.862 363.395V365.126C337.863 366.011 338.097 366.88 338.541 367.646C338.984 368.411 339.622 369.047 340.389 369.488L388.455 397.181C389.22 397.623 390.089 397.856 390.973 397.856C391.857 397.856 392.726 397.623 393.491 397.181L481.678 346.277C482.445 345.836 483.083 345.201 483.526 344.435C483.97 343.669 484.204 342.8 484.205 341.915V340.686L390.982 394.498L337.862 363.395Z" fill="#FF0000"/>
<path opacity="0.6" d="M337.862 363.395V365.126C337.863 366.011 338.097 366.88 338.541 367.646C338.984 368.411 339.622 369.047 340.389 369.488L388.455 397.181C389.22 397.623 390.089 397.856 390.973 397.856C391.857 397.856 392.726 397.623 393.491 397.181L481.678 346.277C482.445 345.836 483.083 345.201 483.526 344.435C483.97 343.669 484.204 342.8 484.205 341.915V340.686L390.982 394.498L337.862 363.395Z" fill="black"/>
<path d="M484.153 340.703L431.864 310.518C431.407 310.253 430.887 310.114 430.359 310.114C429.83 310.114 429.311 310.253 428.853 310.518L338.156 362.893C338.056 362.953 337.973 363.038 337.915 363.139C337.857 363.241 337.827 363.356 337.827 363.473C337.827 363.59 337.857 363.705 337.915 363.806C337.973 363.908 338.056 363.993 338.156 364.053L390.93 394.516L484.153 340.703Z" fill="#FF0000"/>
<path opacity="0.5" d="M484.153 340.703L431.864 310.518C431.407 310.253 430.887 310.114 430.359 310.114C429.83 310.114 429.311 310.253 428.853 310.518L338.156 362.893C338.056 362.953 337.973 363.038 337.915 363.139C337.857 363.241 337.827 363.356 337.827 363.473C337.827 363.59 337.857 363.705 337.915 363.806C337.973 363.908 338.056 363.993 338.156 364.053L390.93 394.516L484.153 340.703Z" fill="black"/>
<path d="M390.497 390.084L362.302 373.814L444.759 326.216L473.11 342.399L390.497 390.084Z" fill="#263238"/>
<path d="M376.633 344.84L377.152 345.134L390.982 353.113L415.56 338.92L416.062 338.626L401.73 330.353L376.633 344.84Z" fill="#263238"/>
<path d="M377.152 345.134L390.982 353.114L415.56 338.921L401.73 330.941L377.152 345.134Z" fill="#263238"/>
<path opacity="0.7" d="M390.982 394.515V397.873C391.863 397.872 392.729 397.64 393.491 397.198L481.678 346.294C482.445 345.853 483.083 345.218 483.526 344.452C483.97 343.686 484.204 342.817 484.205 341.932V340.703L390.982 394.515Z" fill="black"/>
<path d="M392.418 395.26C393.257 395.594 394.161 395.731 395.061 395.662C395.961 395.593 396.833 395.319 397.611 394.862L485.399 344.182C486.162 343.745 486.818 343.144 487.321 342.423C487.824 341.702 488.16 340.878 488.307 340.011L497.913 282.685C497.968 282.365 497.997 282.041 498 281.716C498.01 280.124 497.388 278.592 496.269 277.458L405.036 330.145C404.457 330.463 403.956 330.907 403.57 331.443C403.184 331.978 402.922 332.594 402.803 333.243L392.418 395.26Z" fill="#FF0000"/>
<path opacity="0.5" d="M392.418 395.26C393.257 395.594 394.161 395.731 395.061 395.662C395.961 395.593 396.833 395.319 397.611 394.862L485.399 344.182C486.162 343.745 486.818 343.144 487.321 342.423C487.824 341.702 488.16 340.878 488.307 340.011L497.913 282.685C497.968 282.365 497.997 282.041 498 281.716C498.01 280.124 497.388 278.592 496.269 277.458L405.036 330.145C404.457 330.463 403.956 330.907 403.57 331.443C403.184 331.978 402.922 332.594 402.803 333.243L392.418 395.26Z" fill="black"/>
<path d="M390.981 394.516L391.57 394.862C391.836 395.015 392.114 395.148 392.401 395.26L402.786 333.244C402.895 332.602 403.144 331.991 403.515 331.456C403.885 330.921 404.369 330.473 404.932 330.145L496.165 277.458C495.803 277.101 495.395 276.793 494.953 276.541L403.53 329.315C402.967 329.642 402.483 330.09 402.113 330.625C401.742 331.16 401.493 331.771 401.384 332.413L390.981 394.516Z" fill="#E0E0E0"/>
<path d="M441.851 342.347C442.491 338.522 446.455 333.416 450.696 330.976C454.936 328.535 457.861 329.643 457.204 333.486C456.546 337.328 452.599 342.417 448.359 344.874C444.118 347.332 441.193 346.19 441.851 342.347Z" fill="#FF0000"/>
<path d="M423.867 379.665C424.05 377.181 424.533 374.729 425.304 372.361C426.654 368.12 430.669 351.781 439.843 349.323C440.934 348.995 442.092 348.959 443.201 349.219C445.745 349.912 446.905 352.56 447.407 354.931C447.874 358.435 447.874 361.985 447.407 365.489C448.817 363.876 450.469 362.492 452.305 361.387C453.932 360.162 455.895 359.461 457.93 359.379C458.213 359.365 458.496 359.421 458.752 359.542C459.009 359.663 459.232 359.845 459.401 360.072C459.73 360.677 459.401 361.439 458.882 361.976C457.965 363.083 456.84 364.018 455.922 365.126C455.203 366.092 454.539 367.097 453.932 368.137C452.772 370.007 451.474 371.772 450.176 373.555C447.682 377.259 444.553 380.494 440.933 383.109C436.77 385.927 432.046 387.811 427.086 388.631C420.388 389.461 413.88 389.358 409.657 387.886L423.867 379.665Z" fill="#FFA8A7"/>
<path d="M260.77 272.646C266.949 269.462 275.984 282.08 273.111 295.269C270.238 308.458 256.079 354.827 256.079 354.827C256.079 354.827 320.034 360.539 325.469 361.214C329.26 361.664 333.5 359.743 337.014 358.583C341.791 356.991 346.62 355.883 351.328 354.152C352.147 353.776 353.04 353.587 353.941 353.598C354.394 353.618 354.828 353.786 355.175 354.077C355.522 354.368 355.764 354.766 355.863 355.208C355.886 355.749 355.747 356.286 355.465 356.748C353.955 359.828 351.685 362.473 348.87 364.433C347.506 365.239 346.21 366.154 344.993 367.168C344.249 367.912 342.604 369.972 343.262 371.097L368.671 385.723C368.671 385.723 362.821 390.811 341.635 384.875C333.998 382.877 326.546 380.23 319.359 376.965C319.359 376.965 243.998 380.097 230.376 375.978C225.564 374.507 223.834 371.097 227.088 355.589C230.809 337.622 241.488 304.857 243.911 296.203C249.225 277.458 250.489 277.891 260.77 272.646Z" fill="#FFA8A7"/>
<path d="M263.955 269.964C263.955 269.964 253.743 272.837 249.346 278.618C244.95 284.399 227.988 340.323 227.988 340.323C232.422 344.021 237.607 346.711 243.184 348.205C248.761 349.699 254.596 349.963 260.285 348.977C260.285 348.977 273.925 310.292 275.378 299.959C277.957 283.949 270.134 271.348 263.955 269.964Z" fill="#FF0000"/>
<path d="M319.065 307.488C319.895 303.161 317.195 300.825 313.024 302.296C310.816 303.203 308.852 304.615 307.289 306.418C305.726 308.222 304.608 310.367 304.024 312.681C303.193 317.06 318.251 311.781 319.065 307.488Z" fill="#FF0000"/>
<path d="M290.523 320.972L302.794 313.166C302.171 316.489 306.654 316.021 310.687 314.62C314.72 313.218 319.653 310.379 320.293 307.056L330.99 306.917C331.976 306.917 331.994 308.198 330.99 309.254C328.342 312.214 322.18 317.458 309.233 321.976C296.286 326.493 291.319 325.091 289.45 323.706C288.844 323.187 289.398 321.681 290.523 320.972Z" fill="#FF0000"/>
</svg>
