<svg width="24" height="25" viewBox="0 0 24 25" fill="none" xmlns="http://www.w3.org/2000/svg">
<path d="M2 12.5C2 18.023 6.477 22.5 12 22.5C17.523 22.5 22 18.023 22 12.5C22 6.977 17.523 2.5 12 2.5C6.477 2.5 2 6.977 2 12.5Z" stroke="#909090" stroke-width="1.25" stroke-linecap="round" stroke-linejoin="round"/>
<path d="M13 2.55C13 2.55 16 6.5 16 12.5C16 18.5 13 22.45 13 22.45M11 22.45C11 22.45 8 18.5 8 12.5C8 6.5 11 2.55 11 2.55M2.63 16H21.37M2.63 9H21.37" stroke="#909090" stroke-width="1.25" stroke-linecap="round" stroke-linejoin="round"/>
</svg>
