<svg width="16" height="13" viewBox="0 0 16 13" fill="none" xmlns="http://www.w3.org/2000/svg">
<path d="M15.5 6.5001C15.5 6.66586 15.4341 6.82483 15.3169 6.94204C15.1997 7.05925 15.0407 7.1251 14.875 7.1251H2.63279L7.19529 11.6798C7.31265 11.7983 7.37849 11.9583 7.37849 12.1251C7.37849 12.2919 7.31265 12.4519 7.19529 12.5704C7.07583 12.6859 6.91615 12.7505 6.74998 12.7505C6.5838 12.7505 6.42413 12.6859 6.30466 12.5704L0.679663 6.94541C0.5623 6.82691 0.49646 6.66688 0.49646 6.5001C0.49646 6.33332 0.5623 6.17328 0.679663 6.05479L6.30466 0.429786C6.4261 0.330121 6.58026 0.279189 6.73717 0.286895C6.89408 0.294602 7.04251 0.360396 7.15359 0.47148C7.26468 0.582564 7.33047 0.730996 7.33818 0.887903C7.34589 1.04481 7.29495 1.19898 7.19529 1.32041L2.63279 5.8751H14.875C15.0407 5.8751 15.1997 5.94095 15.3169 6.05816C15.4341 6.17537 15.5 6.33434 15.5 6.5001Z" fill="#909090"/>
</svg>
