<svg width="490" height="275" viewBox="0 0 490 275" fill="none" xmlns="http://www.w3.org/2000/svg">
<path d="M129.77 243.044C193.463 276.318 296.737 276.318 360.43 243.044C424.123 209.77 424.123 155.821 360.43 122.54C296.737 89.2587 193.492 89.266 129.77 122.54C66.0476 155.814 66.1058 209.77 129.77 243.044Z" fill="#F5F5F5"/>
<path d="M112.015 188.476L91.3105 176.526V132.117L112.015 144.075V188.476Z" fill="#E0E0E0"/>
<path d="M112.015 144.075L141.597 126.997V171.399L112.015 188.476V144.075Z" fill="#EBEBEB"/>
<path d="M141.597 126.997L112.015 144.075L91.3105 132.117L120.892 115.039L141.597 126.997Z" fill="#F5F5F5"/>
<path d="M114.979 145.779L138.64 132.117L139.186 132.43V148.881L115.518 162.543L114.972 162.23L114.979 145.779Z" fill="#E0E0E0"/>
<path d="M115.518 146.099L139.186 132.43V148.881L115.518 162.543V146.099Z" fill="#F5F5F5"/>
<path d="M124.796 143.528L128.823 141.205C129.34 140.899 129.763 141.038 129.763 141.511C129.725 141.801 129.621 142.078 129.458 142.321C129.295 142.564 129.077 142.765 128.823 142.909L124.796 145.232C124.272 145.538 123.849 145.4 123.849 144.927C123.887 144.636 123.992 144.358 124.157 144.115C124.321 143.872 124.54 143.671 124.796 143.528Z" fill="#E0E0E0"/>
<path d="M114.433 166.592L138.094 152.93V169.381L138.64 169.695L114.972 183.357L114.433 183.044V166.592Z" fill="#E0E0E0"/>
<path d="M114.972 166.905L138.64 153.243V169.695L114.972 183.357V166.905Z" fill="#F5F5F5"/>
<path d="M124.249 164.342L128.313 162.026C128.837 161.72 129.26 161.859 129.26 162.332C129.222 162.623 129.117 162.901 128.952 163.143C128.788 163.386 128.569 163.587 128.313 163.73L124.286 166.053C123.762 166.359 123.339 166.221 123.339 165.747C123.372 165.459 123.471 165.181 123.629 164.938C123.787 164.694 123.999 164.49 124.249 164.342Z" fill="#E0E0E0"/>
<path d="M112.015 141.511L91.3105 129.553V85.1516L112.015 97.1023V141.511Z" fill="#E0E0E0"/>
<path d="M112.015 97.1023L141.597 80.0247V124.434L112.015 141.511V97.1023Z" fill="#EBEBEB"/>
<path d="M141.597 80.0246L112.015 97.1022L91.3105 85.1516L120.892 68.074L141.597 80.0246Z" fill="#F5F5F5"/>
<path d="M114.972 98.8137L138.64 85.1516L139.186 85.4648V101.916L115.518 115.578L114.972 115.258V98.8137Z" fill="#E0E0E0"/>
<path d="M124.796 96.5559L128.816 94.2328C129.34 93.9342 129.763 94.0726 129.763 94.5459C129.724 94.8364 129.618 95.1138 129.454 95.3564C129.289 95.5991 129.071 95.8003 128.816 95.9442L124.796 98.2673C124.272 98.5659 123.849 98.4348 123.849 97.9615C123.887 97.6699 123.993 97.3912 124.157 97.1474C124.321 96.9035 124.54 96.701 124.796 96.5559Z" fill="#E0E0E0"/>
<path d="M114.433 119.627L138.094 105.965V122.409L138.64 122.722L114.972 136.384L114.433 136.071V119.627Z" fill="#E0E0E0"/>
<path d="M114.972 119.94L138.64 106.278V122.722L114.972 136.384V119.94Z" fill="#F5F5F5"/>
<path d="M124.249 117.369L128.313 115.046C128.83 114.748 129.26 114.886 129.26 115.359C129.219 115.649 129.112 115.926 128.948 116.168C128.784 116.41 128.567 116.612 128.313 116.758L124.249 119.059C123.725 119.358 123.303 119.219 123.303 118.753C123.344 118.465 123.451 118.191 123.615 117.951C123.779 117.711 123.996 117.512 124.249 117.369Z" fill="#E0E0E0"/>
<path d="M114.972 98.8137L138.64 85.1516V101.596L114.972 115.258V98.8137Z" fill="#E0E0E0"/>
<path d="M150.474 93.2787L137.518 85.7996V100.292L150.474 107.764V93.2787Z" fill="#E0E0E0"/>
<path d="M123.849 117.603V97.1023L128.925 94.1601L129.763 95.3981L144.553 86.8557V105.645L123.849 117.603Z" fill="#EBEBEB"/>
<path d="M123.849 117.602L125.327 99.6655L146.032 87.7148L144.553 105.644L123.849 117.602Z" fill="#F5F5F5"/>
<path d="M126.806 106.941L115.518 100.423V114.915L126.806 121.426V106.941Z" fill="#EBEBEB"/>
<path d="M126.806 105.644L150.474 91.9824V108.426L126.806 122.088V105.644Z" fill="#F5F5F5"/>
<path d="M136.084 103.074L140.104 100.751C140.628 100.452 141.05 100.59 141.05 101.064C141.011 101.354 140.905 101.631 140.741 101.874C140.577 102.116 140.359 102.318 140.104 102.462L136.084 104.785C135.559 105.084 135.137 104.945 135.137 104.479C135.175 104.188 135.281 103.909 135.445 103.665C135.609 103.421 135.828 103.219 136.084 103.074Z" fill="#E0E0E0"/>
<path d="M126.806 105.645L126.019 105.193V121.637L126.806 122.089V105.645Z" fill="#E0E0E0"/>
<path d="M126.019 105.193L149.68 91.5237L150.474 91.9825L126.806 105.645L126.019 105.193Z" fill="#EBEBEB"/>
<path d="M356.621 161.575L335.91 149.617V105.215L356.621 117.166V161.575Z" fill="#E0E0E0"/>
<path d="M356.621 117.166L386.203 100.088V144.497L356.621 161.575V117.166Z" fill="#EBEBEB"/>
<path d="M386.203 100.088L356.621 117.165L335.91 105.215L365.499 88.1299L386.203 100.088Z" fill="#F5F5F5"/>
<path d="M359.578 118.877L383.246 105.215L383.792 105.528L383.785 121.972L360.124 135.634L359.578 135.321V118.877Z" fill="#E0E0E0"/>
<path d="M360.124 119.19L383.793 105.528L383.785 121.972L360.124 135.634V119.19Z" fill="#F5F5F5"/>
<path d="M369.402 116.619L373.422 114.296C373.947 113.998 374.369 114.136 374.369 114.602C374.331 114.894 374.225 115.172 374.061 115.416C373.897 115.66 373.678 115.863 373.422 116.008L369.402 118.331C368.878 118.629 368.456 118.491 368.456 118.025C368.494 117.733 368.599 117.455 368.764 117.211C368.928 116.967 369.147 116.765 369.402 116.619Z" fill="#E0E0E0"/>
<path d="M359.032 139.691L382.7 126.021V142.473L383.246 142.786L359.578 156.448L359.032 156.135V139.691Z" fill="#E0E0E0"/>
<path d="M359.578 140.004L383.246 126.342V142.786L359.578 156.448V140.004Z" fill="#F5F5F5"/>
<path d="M368.856 137.433L372.883 135.11C373.4 134.811 373.823 134.949 373.823 135.415C373.784 135.706 373.679 135.984 373.516 136.227C373.353 136.471 373.137 136.674 372.883 136.821L368.856 139.144C368.332 139.443 367.909 139.304 367.909 138.831C367.949 138.541 368.055 138.263 368.219 138.021C368.383 137.778 368.601 137.577 368.856 137.433Z" fill="#E0E0E0"/>
<path d="M159.628 207.986C159.628 207.986 159.708 196.436 152.426 187.777C145.981 180.109 142.551 175.244 144.582 173.001C146.614 170.758 150.984 170.219 156.875 176.424C162.767 182.628 163.226 199.815 162.41 203.704L159.628 207.986Z" fill="#DF0707"/>
<path opacity="0.2" d="M159.628 207.986C159.628 207.986 159.708 196.436 152.426 187.777C145.981 180.109 142.551 175.244 144.582 173.001C146.614 170.758 150.984 170.219 156.875 176.424C162.767 182.628 163.226 199.815 162.41 203.704L159.628 207.986Z" fill="black"/>
<path d="M160.852 195.57C160.769 195.57 160.688 195.542 160.623 195.49C160.559 195.439 160.513 195.367 160.495 195.286C157.946 183.364 151.406 176.773 147.729 173.904C147.653 173.845 147.603 173.758 147.591 173.663C147.578 173.567 147.604 173.471 147.663 173.394C147.723 173.318 147.812 173.268 147.908 173.256C148.005 173.243 148.103 173.27 148.18 173.329C151.931 176.242 158.609 182.985 161.209 195.133C161.219 195.179 161.221 195.227 161.212 195.274C161.204 195.321 161.187 195.366 161.161 195.406C161.135 195.446 161.102 195.48 161.062 195.507C161.023 195.534 160.979 195.553 160.932 195.562L160.852 195.57Z" fill="white"/>
<path d="M159.352 212.276L156.388 213.987C156.071 213.123 155.538 212.355 154.839 211.757C154.14 211.159 153.299 210.751 152.397 210.572C149.156 209.843 145.791 209.967 143.519 207.156C141.247 204.345 144.015 201.286 143.519 199.218C143.024 197.15 142.704 196.553 138.64 194.485C134.576 192.416 132.974 188.986 136.033 186.663C139.092 184.34 144.044 186.044 147.044 188.12C149.709 189.94 152.244 190.421 155.222 190.792C158.201 191.164 163.051 192.817 162.308 199.735C161.822 204.018 160.829 208.227 159.352 212.276Z" fill="#DF0707"/>
<path d="M147.976 203.187C147.899 203.186 147.823 203.161 147.761 203.116C147.698 203.07 147.651 203.006 147.627 202.932C147.599 202.839 147.609 202.74 147.654 202.654C147.699 202.568 147.775 202.503 147.867 202.473C148.129 202.393 154.421 200.398 157.094 202.539C157.16 202.601 157.201 202.687 157.207 202.778C157.214 202.869 157.186 202.959 157.129 203.03C157.072 203.102 156.991 203.149 156.901 203.163C156.811 203.177 156.719 203.157 156.643 203.107C154.283 201.213 148.151 203.15 148.086 203.172L147.976 203.187Z" fill="white"/>
<path d="M159.679 211.722C159.591 211.723 159.505 211.69 159.439 211.631C159.373 211.572 159.332 211.49 159.322 211.402C157.698 196.065 139.223 188.789 139.041 188.717C138.995 188.7 138.954 188.674 138.919 188.641C138.884 188.608 138.856 188.568 138.836 188.524C138.816 188.48 138.806 188.433 138.805 188.384C138.803 188.336 138.812 188.288 138.829 188.243C138.865 188.155 138.934 188.084 139.02 188.045C139.107 188.005 139.206 188.001 139.295 188.032C139.492 188.112 158.376 195.54 160.043 211.336C160.054 211.432 160.026 211.527 159.966 211.602C159.906 211.678 159.818 211.726 159.723 211.737L159.679 211.722Z" fill="white"/>
<path d="M340.818 202.204C340.898 201.949 344.023 185.869 340.818 174.465C337.905 164.007 334.104 160.147 328.686 159.295C323.267 158.443 320.915 162.347 323.792 167.634C326.668 172.921 333.594 179.934 335.291 191.746C336.019 196.611 336.573 200.835 336.573 200.835L340.818 202.204Z" fill="#DF0707"/>
<path opacity="0.2" d="M340.818 202.204C340.898 201.949 344.023 185.869 340.818 174.465C337.905 164.007 334.104 160.147 328.686 159.295C323.267 158.443 320.915 162.347 323.792 167.634C326.668 172.921 333.594 179.934 335.291 191.746C336.019 196.611 336.573 200.835 336.573 200.835L340.818 202.204Z" fill="black"/>
<path d="M338.99 192.97C338.942 192.967 338.896 192.955 338.853 192.934C338.809 192.913 338.771 192.884 338.739 192.848C338.707 192.812 338.683 192.77 338.667 192.725C338.652 192.68 338.645 192.632 338.648 192.584C339.376 179.563 335.123 167.94 327.498 162.237C327.421 162.179 327.37 162.093 327.356 161.998C327.343 161.902 327.368 161.805 327.426 161.728C327.485 161.652 327.571 161.602 327.666 161.588C327.761 161.575 327.857 161.599 327.935 161.655C335.75 167.481 340.134 179.366 339.369 192.627C339.363 192.723 339.32 192.812 339.25 192.876C339.179 192.94 339.086 192.974 338.99 192.97Z" fill="white"/>
<path d="M349.201 210.579C348.785 207.586 350.504 203.1 354.59 202.037C358.675 200.973 360.496 198.628 359.025 196.065C357.554 193.501 357.896 191.149 361.603 190.086C365.31 189.023 368.558 187.173 366.424 183.255C364.873 180.422 364.53 178.587 368.332 173.008C371.485 168.377 368.907 165.66 364.96 166.17C361.013 166.68 358.573 171.384 356.104 172.171C353.636 172.957 353.068 168.763 349.812 170.641C346.557 172.52 346.754 177.334 346.652 180.691C346.55 184.049 346.331 184.806 343.389 184.398C340.447 183.99 337.563 184.471 337.629 191.586C337.68 197.689 340.935 205.248 340.935 205.248L349.201 210.579Z" fill="#DF0707"/>
<path d="M344.037 206.027H344.001C343.903 206.016 343.814 205.967 343.753 205.891C343.691 205.814 343.663 205.717 343.673 205.619C345.727 187.275 361.471 171.799 365.579 168.66C365.656 168.602 365.754 168.576 365.85 168.589C365.946 168.602 366.033 168.652 366.092 168.73C366.151 168.807 366.177 168.904 366.164 169.001C366.151 169.097 366.1 169.184 366.023 169.243C361.967 172.338 346.426 187.61 344.401 205.7C344.391 205.789 344.348 205.872 344.281 205.932C344.214 205.992 344.127 206.026 344.037 206.027Z" fill="white"/>
<path d="M351.218 186.415C351.144 186.415 351.072 186.392 351.011 186.351C350.95 186.309 350.903 186.251 350.876 186.182C350.844 186.09 350.85 185.99 350.89 185.902C350.931 185.814 351.004 185.745 351.094 185.709C356.964 183.524 363.62 184.558 363.904 184.602C363.998 184.618 364.083 184.671 364.138 184.748C364.194 184.826 364.217 184.923 364.203 185.017C364.185 185.111 364.132 185.195 364.055 185.252C363.978 185.308 363.883 185.334 363.787 185.323C363.722 185.323 357.037 184.274 351.349 186.394C351.307 186.408 351.262 186.415 351.218 186.415Z" fill="white"/>
<path d="M345.989 197.441C345.938 197.44 345.887 197.429 345.841 197.408C345.795 197.386 345.753 197.356 345.719 197.317C343.278 194.474 341.624 191.042 340.92 187.362C340.913 187.315 340.915 187.266 340.927 187.22C340.938 187.173 340.959 187.129 340.987 187.091C341.015 187.052 341.051 187.02 341.092 186.995C341.133 186.97 341.179 186.954 341.226 186.947C341.273 186.94 341.322 186.942 341.368 186.953C341.415 186.965 341.459 186.985 341.497 187.014C341.536 187.042 341.568 187.078 341.593 187.119C341.618 187.16 341.634 187.205 341.641 187.253C342.337 190.788 343.93 194.086 346.266 196.829C346.311 196.883 346.34 196.948 346.35 197.018C346.36 197.088 346.35 197.159 346.321 197.223C346.292 197.287 346.245 197.341 346.186 197.38C346.128 197.419 346.059 197.44 345.989 197.441Z" fill="white"/>
<path d="M159.352 99.5635V212.283L274.722 145.677L274.714 43.2039L188.933 92.7325L185.969 84.1901L159.352 99.5635Z" fill="#DF0707"/>
<path opacity="0.7" d="M159.352 99.5635V212.283L274.722 145.677L274.714 43.2039L188.933 92.7325L185.969 84.1901L159.352 99.5635Z" fill="black"/>
<path d="M159.352 212.283L165.265 109.81L280.635 43.2039L274.722 145.677L159.352 212.283Z" fill="#E0E0E0"/>
<path d="M159.352 212.283L168.222 111.521L283.592 44.908L274.722 145.677L159.352 212.283Z" fill="#DF0707"/>
<path opacity="0.7" d="M159.352 212.283L168.222 111.521L283.592 44.908L274.722 145.677L159.352 212.283Z" fill="black"/>
<path d="M177.099 109.81V222.537L292.469 155.923V53.4507L206.681 102.979L203.724 94.4369L177.099 109.81Z" fill="#DF0707"/>
<path opacity="0.5" d="M177.099 109.81V222.537L292.469 155.923V53.4507L206.681 102.979L203.724 94.4369L177.099 109.81Z" fill="black"/>
<path d="M177.099 222.537L183.013 120.057L298.383 53.4507L292.469 155.923L177.099 222.537Z" fill="#E0E0E0"/>
<path d="M177.099 222.537L185.969 121.768L301.339 55.1548L292.469 155.923L177.099 222.537Z" fill="#DF0707"/>
<path opacity="0.5" d="M177.099 222.537L185.969 121.768L301.339 55.1548L292.469 155.923L177.099 222.537Z" fill="black"/>
<path d="M274.693 258.403C253.981 246.445 234.77 233.446 226.001 218.196L252.656 202.808L274.693 258.403Z" fill="#E0E0E0"/>
<path d="M197.803 121.768V234.487L313.174 167.881V65.4084L227.385 114.937L224.428 106.395L197.803 121.768Z" fill="#DF0707"/>
<path opacity="0.2" d="M197.803 121.768V234.487L313.174 167.881V65.4084L227.385 114.937L224.428 106.395L197.803 121.768Z" fill="black"/>
<path d="M231.041 155.093C230.75 155.093 230.706 154.758 230.706 154.561V58.4317C230.729 58.0588 230.839 57.6964 231.026 57.3729C231.213 57.0494 231.472 56.7737 231.784 56.5674L315.053 8.50251C315.167 8.43138 315.297 8.39122 315.431 8.38599C315.723 8.38599 315.766 8.72099 315.766 8.91762V105.047C315.743 105.421 315.634 105.785 315.447 106.11C315.26 106.434 315.001 106.711 314.688 106.919L231.42 154.984C231.305 155.051 231.174 155.089 231.041 155.093Z" fill="white"/>
<path d="M315.387 8.72109C315.393 8.77433 315.393 8.82806 315.387 8.8813V105.011C315.364 105.321 315.271 105.622 315.116 105.891C314.961 106.161 314.748 106.393 314.492 106.569L231.223 154.634L231.077 154.7C231.068 154.647 231.068 154.593 231.077 154.54V58.4099C231.102 58.1012 231.196 57.8018 231.351 57.5335C231.506 57.2653 231.718 57.0348 231.973 56.8588L315.242 8.79391C315.288 8.76179 315.34 8.73948 315.395 8.72837M315.438 8.00012C315.24 8.00602 315.047 8.06377 314.878 8.16762L231.609 56.2325C231.243 56.4729 230.938 56.7958 230.72 57.1752C230.501 57.5546 230.374 57.98 230.349 58.4172V154.547C230.349 155.115 230.633 155.443 231.077 155.443C231.276 155.437 231.469 155.38 231.638 155.275L314.907 107.21C315.274 106.972 315.58 106.649 315.799 106.269C316.018 105.89 316.144 105.463 316.167 105.026V8.89587C316.167 8.32783 315.883 7.99283 315.438 8.00012Z" fill="#DF0707"/>
<path opacity="0.7" d="M315.387 8.72109C315.393 8.77433 315.393 8.82806 315.387 8.8813V105.011C315.364 105.321 315.271 105.622 315.116 105.891C314.961 106.161 314.748 106.393 314.492 106.569L231.223 154.634L231.077 154.7C231.068 154.647 231.068 154.593 231.077 154.54V58.4099C231.102 58.1012 231.196 57.8018 231.351 57.5335C231.506 57.2653 231.718 57.0348 231.973 56.8588L315.242 8.79391C315.288 8.76179 315.34 8.73948 315.395 8.72837M315.438 8.00012C315.24 8.00602 315.047 8.06377 314.878 8.16762L231.609 56.2325C231.243 56.4729 230.938 56.7958 230.72 57.1752C230.501 57.5546 230.374 57.98 230.349 58.4172V154.547C230.349 155.115 230.633 155.443 231.077 155.443C231.276 155.437 231.469 155.38 231.638 155.275L314.907 107.21C315.274 106.972 315.58 106.649 315.799 106.269C316.018 105.89 316.144 105.463 316.167 105.026V8.89587C316.167 8.32783 315.883 7.99283 315.438 8.00012Z" fill="white"/>
<path d="M239.219 62.0803L268.801 45.0027V79.1579L239.219 96.2354V62.0803Z" fill="#DF0707"/>
<path opacity="0.8" d="M239.219 62.0803L268.801 45.0027V79.1579L239.219 96.2354V62.0803Z" fill="white"/>
<path d="M264.366 53.5161V63.7845L263.434 64.3016V61.1628C263.434 59.4295 262.028 58.8397 260.28 59.8447L247.747 67.0908C246.007 68.0958 244.594 70.317 244.594 72.0502V75.189L243.669 75.7425V65.4959L264.366 53.5161Z" fill="white"/>
<path d="M258.671 79.6603C257.156 80.5342 255.926 79.6166 255.926 77.5993V61.1626L252.117 63.2308V79.7986C252.117 81.8086 250.886 84.1682 249.371 85.0202L246.618 86.6078V87.7002L261.409 79.1578V78.0727L258.671 79.6603Z" fill="white"/>
<path d="M274.693 43.3205C274.693 44.2673 275.545 44.5367 276.586 43.9395L305.367 27.2989C305.877 27.0095 306.314 26.6057 306.643 26.1193C306.971 25.6328 307.182 25.0769 307.26 24.4951C307.26 23.5557 306.408 23.2789 305.367 23.8834L276.608 40.4876C276.089 40.7765 275.645 41.1834 275.312 41.6756C274.98 42.1677 274.767 42.7312 274.693 43.3205Z" fill="#455A64"/>
<path d="M274.693 53.516C274.693 54.4628 275.545 54.7395 276.586 54.1351L305.345 37.5308C305.856 37.2414 306.292 36.8376 306.621 36.3512C306.949 35.8648 307.161 35.3089 307.238 34.7271C307.238 33.7876 306.386 33.5109 305.345 34.1153L276.586 50.7195C276.076 51.0083 275.64 51.4109 275.312 51.896C274.983 52.3811 274.771 52.9355 274.693 53.516Z" fill="#455A64"/>
<path d="M274.693 63.7843C274.693 64.731 275.545 65.0077 276.586 64.4033L305.345 47.7991C305.855 47.5103 306.291 47.1077 306.619 46.6226C306.948 46.1375 307.16 45.5831 307.238 45.0026C307.238 44.0558 306.386 43.7791 305.345 44.3835L276.586 60.9878C276.076 61.2765 275.64 61.6791 275.312 62.1642C274.983 62.6493 274.771 63.2038 274.693 63.7843Z" fill="#455A64"/>
<path d="M274.693 74.0308C274.693 74.9776 275.545 75.2543 276.586 74.6499L305.345 58.0456C305.855 57.7569 306.291 57.3543 306.619 56.8692C306.948 56.3841 307.16 55.8297 307.238 55.2491C307.238 54.3024 306.386 54.0257 305.345 54.6301L276.586 71.2343C276.076 71.5231 275.64 71.9257 275.312 72.4108C274.983 72.8959 274.771 73.4503 274.693 74.0308Z" fill="#455A64"/>
<path d="M239.219 104.778C239.219 105.725 240.064 106.001 241.113 105.397L305.367 68.2558C305.877 67.968 306.314 67.5656 306.642 67.0803C306.971 66.595 307.182 66.0401 307.26 65.4593C307.26 64.5126 306.408 64.2431 305.367 64.8403L241.113 101.981C240.602 102.269 240.165 102.671 239.836 103.156C239.508 103.642 239.296 104.197 239.219 104.778Z" fill="#455A64"/>
<path d="M239.219 115.025C239.219 115.971 240.064 116.248 241.113 115.644L305.367 78.5462C305.877 78.2568 306.314 77.853 306.643 77.3666C306.971 76.8801 307.182 76.3242 307.26 75.7424C307.26 74.803 306.408 74.5262 305.367 75.1307L241.113 112.228C240.602 112.515 240.165 112.918 239.836 113.403C239.508 113.888 239.296 114.444 239.219 115.025Z" fill="#455A64"/>
<path d="M239.219 125.278C239.219 126.218 240.064 126.495 241.113 125.89L305.367 88.7928C305.877 88.5034 306.314 88.0996 306.643 87.6132C306.971 87.1267 307.182 86.5708 307.26 85.989C307.26 85.0496 306.408 84.7728 305.367 85.3773L241.113 122.475C240.601 122.763 240.163 123.166 239.835 123.653C239.506 124.139 239.295 124.696 239.219 125.278Z" fill="#455A64"/>
<path d="M197.803 234.487L218.508 143.973L333.878 77.3591L313.174 167.881L197.803 234.487Z" fill="#DF0707"/>
<path d="M226.031 151.059V218.196L252.656 202.823V135.692L226.031 151.059Z" fill="#DF0707"/>
<path opacity="0.2" d="M226.031 151.059V218.196L252.656 202.823V135.692L226.031 151.059Z" fill="black"/>
<path d="M274.744 257.966C272.479 256.277 250.646 239.592 239.547 215.728C227.735 190.355 227.749 160.759 227.749 149.624V149.274L306.896 103.583C306.896 114.82 306.896 144.46 318.759 169.92C329.603 193.224 350.599 209.698 353.927 212.217L274.744 257.966Z" fill="white"/>
<path d="M306.532 104.239C306.532 115.949 306.758 145.021 318.432 170.102C328.911 192.606 348.836 208.787 353.271 212.203L274.765 257.529C271.699 255.221 250.689 238.813 239.882 215.604C228.084 190.304 228.084 160.766 228.084 149.646V149.507L306.503 104.232M307.231 102.972L227.356 149.092C227.356 159.572 227.138 190.02 239.19 215.91C251.053 241.319 274.693 258.403 274.693 258.403L354.589 212.276C354.589 212.276 330.921 195.191 319.094 169.782C307.034 143.893 307.26 113.444 307.26 102.965L307.231 102.972Z" fill="#DF0707"/>
<path opacity="0.7" d="M306.532 104.239C306.532 115.949 306.758 145.021 318.432 170.102C328.911 192.606 348.836 208.787 353.271 212.203L274.765 257.529C271.699 255.221 250.689 238.813 239.882 215.604C228.084 190.304 228.084 160.766 228.084 149.646V149.507L306.503 104.232M307.231 102.972L227.356 149.092C227.356 159.572 227.138 190.02 239.19 215.91C251.053 241.319 274.693 258.403 274.693 258.403L354.589 212.276C354.589 212.276 330.921 195.191 319.094 169.782C307.034 143.893 307.26 113.444 307.26 102.965L307.231 102.972Z" fill="white"/>
<path d="M298.222 118.44L272.967 133.005C272.461 133.284 272.03 133.68 271.711 134.16C271.391 134.641 271.192 135.191 271.131 135.765C271.168 136.69 272.049 136.952 273.09 136.348L298.354 121.783C298.853 121.507 299.28 121.116 299.597 120.642C299.915 120.169 300.116 119.626 300.181 119.059C300.138 118.098 299.271 117.836 298.222 118.44Z" fill="#455A64"/>
<path d="M298.761 128.381L273.506 142.946C273.006 143.215 272.583 143.605 272.274 144.081C271.966 144.557 271.784 145.104 271.743 145.67C271.823 146.565 272.741 146.806 273.782 146.201L299.045 131.636C299.543 131.369 299.963 130.979 300.268 130.503C300.572 130.028 300.751 129.483 300.786 128.92C300.713 128.017 299.81 127.798 298.761 128.381Z" fill="#455A64"/>
<path d="M299.774 138.045L274.511 152.61C273.469 153.214 272.712 154.416 272.836 155.283C272.959 156.149 273.913 156.375 274.962 155.77L300.225 141.205C301.267 140.601 302.009 139.407 301.878 138.54C301.747 137.673 300.815 137.44 299.774 138.045Z" fill="#455A64"/>
<path d="M301.289 147.417L276.025 161.982C274.984 162.587 274.263 163.766 274.438 164.611C274.613 165.456 275.603 165.645 276.623 165.041L301.878 150.476C302.927 149.871 303.626 148.699 303.451 147.854C303.277 147.009 302.366 146.813 301.289 147.417Z" fill="#455A64"/>
<path d="M303.342 156.477L278.079 171.042C277.038 171.646 276.36 172.797 276.622 173.605C276.885 174.414 277.882 174.596 278.924 173.991L304.187 159.426C305.236 158.822 305.891 157.678 305.643 156.863C305.396 156.047 304.384 155.872 303.342 156.477Z" fill="#455A64"/>
<path d="M306.008 165.209L244.441 200.755C243.399 201.359 242.766 202.481 243.05 203.26C243.334 204.039 244.419 204.185 245.46 203.58L307.027 168.034C308.076 167.43 308.68 166.315 308.396 165.529C308.112 164.742 307.013 164.604 306.008 165.209Z" fill="#455A64"/>
<path d="M309.248 173.547L247.689 209.093C246.64 209.697 246.065 210.79 246.414 211.533C246.764 212.276 247.871 212.392 248.934 211.788L310.501 176.241C311.55 175.637 312.11 174.545 311.761 173.802C311.411 173.059 310.297 172.95 309.248 173.547Z" fill="#455A64"/>
<path d="M313.29 181.492L251.723 217.038C250.675 217.643 250.158 218.706 250.573 219.412C250.988 220.119 252.175 220.192 253.224 219.587L314.747 184.041C315.788 183.444 316.291 182.388 315.875 181.682C315.46 180.975 314.31 180.888 313.29 181.492Z" fill="#455A64"/>
<path d="M318.002 189.008L256.443 224.547C255.394 225.151 254.928 226.193 255.401 226.856C255.874 227.518 257.12 227.584 258.168 226.972L319.728 191.426C320.777 190.822 321.228 189.795 320.755 189.125C320.281 188.455 319.051 188.404 318.002 189.008Z" fill="#455A64"/>
<path d="M323.376 196.152L261.81 231.691C260.768 232.296 260.353 233.308 260.877 233.941C261.402 234.575 262.691 234.604 263.739 234L325.306 198.439C326.348 197.835 326.763 196.837 326.224 196.203C325.685 195.57 324.425 195.526 323.376 196.152Z" fill="#455A64"/>
<path d="M329.312 202.954L267.767 238.493C266.718 239.097 266.31 240.088 266.922 240.678C267.534 241.268 268.83 241.282 269.872 240.678L331.438 205.132C332.487 204.527 332.851 203.551 332.269 202.947C331.686 202.342 330.375 202.357 329.312 202.954Z" fill="#455A64"/>
<path d="M335.866 209.457L274.299 244.996C273.258 245.601 272.916 246.569 273.571 247.145C274.227 247.72 275.567 247.698 276.615 247.094L338.131 211.547C339.172 210.943 339.5 209.996 338.859 209.414C338.218 208.831 336.886 208.853 335.866 209.457Z" fill="#455A64"/>
<path d="M263.812 138.314L234.77 155.064C235.09 165.587 236.292 180.764 240.69 196.05L269.74 179.3C265.334 164.014 264.133 148.83 263.812 138.314Z" fill="#DF0707"/>
<path opacity="0.8" d="M263.812 138.314L234.77 155.064C235.09 165.587 236.292 180.764 240.69 196.05L269.74 179.3C265.334 164.014 264.133 148.83 263.812 138.314Z" fill="white"/>
<path d="M246.611 152.748C246.65 152.069 246.544 151.389 246.301 150.754C246.057 150.118 245.681 149.542 245.198 149.063L234.77 155.078C234.857 157.86 235.003 160.97 235.257 164.32C236.614 164.476 237.986 164.222 239.197 163.592C243.297 161.713 246.611 156.841 246.611 152.748Z" fill="#DF0707"/>
<path opacity="0.6" d="M246.611 152.748C246.65 152.069 246.544 151.389 246.301 150.754C246.057 150.118 245.681 149.542 245.198 149.063L234.77 155.078C234.857 157.86 235.003 160.97 235.257 164.32C236.614 164.476 237.986 164.222 239.197 163.592C243.297 161.713 246.611 156.841 246.611 152.748Z" fill="white"/>
<path d="M267.272 169.25C265.334 166.811 261.395 159.273 259.712 155.989C259.646 155.859 259.543 155.752 259.415 155.682C259.288 155.611 259.142 155.581 258.997 155.594C258.852 155.607 258.714 155.664 258.601 155.756C258.489 155.849 258.406 155.973 258.365 156.113C256.545 162.334 255.489 168.753 255.219 175.229C252.794 173.304 250.708 170.985 249.051 168.369C248.98 168.268 248.882 168.189 248.768 168.141C248.654 168.094 248.528 168.08 248.407 168.102C248.285 168.123 248.172 168.179 248.081 168.262C247.99 168.346 247.925 168.454 247.893 168.573C244.718 180.801 246.312 192.831 246.312 192.831L269.74 179.3C268.765 175.921 267.956 172.557 267.272 169.25Z" fill="#DF0707"/>
<path opacity="0.6" d="M267.272 169.25C265.334 166.811 261.395 159.273 259.712 155.989C259.646 155.859 259.543 155.752 259.415 155.682C259.288 155.611 259.142 155.581 258.997 155.594C258.852 155.607 258.714 155.664 258.601 155.756C258.489 155.849 258.406 155.973 258.365 156.113C256.545 162.334 255.489 168.753 255.219 175.229C252.794 173.304 250.708 170.985 249.051 168.369C248.98 168.268 248.882 168.189 248.768 168.141C248.654 168.094 248.528 168.08 248.407 168.102C248.285 168.123 248.172 168.179 248.081 168.262C247.99 168.346 247.925 168.454 247.893 168.573C244.718 180.801 246.312 192.831 246.312 192.831L269.74 179.3C268.765 175.921 267.956 172.557 267.272 169.25Z" fill="white"/>
</svg>
