<svg width="530" height="250" viewBox="0 0 530 250" fill="none" xmlns="http://www.w3.org/2000/svg">
<path d="M264.4 250C334.209 250 390.801 218.863 390.801 180.454C390.801 142.044 334.209 110.907 264.4 110.907C194.591 110.907 138 142.044 138 180.454C138 218.863 194.591 250 264.4 250Z" fill="#F5F5F5"/>
<path d="M215.006 175.429L266.963 145.383C267.316 145.205 267.705 145.112 268.1 145.112C268.495 145.112 268.885 145.205 269.237 145.383L307.128 167.279C307.265 167.326 307.385 167.414 307.47 167.532C307.555 167.65 307.6 167.792 307.6 167.937C307.6 168.083 307.555 168.224 307.47 168.342C307.385 168.46 307.265 168.549 307.128 168.595L255.171 198.619C254.818 198.797 254.429 198.89 254.034 198.89C253.639 198.89 253.249 198.797 252.897 198.619L215.006 176.723C214.876 176.672 214.764 176.583 214.686 176.468C214.607 176.352 214.564 176.216 214.564 176.076C214.564 175.936 214.607 175.8 214.686 175.684C214.764 175.569 214.876 175.48 215.006 175.429Z" fill="#E0E0E0"/>
<path d="M343.682 200.384C362.896 200.384 378.472 191.384 378.472 180.281C378.472 169.179 362.896 160.178 343.682 160.178C324.468 160.178 308.893 169.179 308.893 180.281C308.893 191.384 324.468 200.384 343.682 200.384Z" fill="#E0E0E0"/>
<path d="M200.402 209.367C199.805 209.373 199.217 209.226 198.693 208.939L156.393 184.512C156.084 184.367 155.822 184.136 155.638 183.848C155.455 183.559 155.357 183.224 155.357 182.882C155.357 182.54 155.455 182.205 155.638 181.916C155.822 181.628 156.084 181.398 156.393 181.253L190.6 161.472C191.129 161.195 191.717 161.05 192.314 161.05C192.911 161.05 193.499 161.195 194.028 161.472L236.328 185.899C236.637 186.045 236.899 186.276 237.082 186.565C237.265 186.854 237.363 187.189 237.363 187.532C237.363 187.874 237.265 188.209 237.082 188.498C236.899 188.787 236.637 189.018 236.328 189.164L202.116 208.939C201.59 209.226 201 209.373 200.402 209.367Z" fill="#E0E0E0"/>
<path d="M165.484 168.073C165.484 168.073 166.105 159.957 163.331 153.039C160.558 146.122 155.877 141.242 150.89 139.876C145.903 138.51 140.906 142.385 145.737 146.616C150.568 150.846 159.526 155.932 161.667 168.767L165.484 168.073Z" fill="#37474F"/>
<path d="M164.396 165.725H164.441C164.476 165.718 164.51 165.705 164.54 165.685C164.57 165.665 164.596 165.639 164.616 165.609C164.636 165.579 164.65 165.546 164.657 165.51C164.664 165.475 164.664 165.438 164.657 165.403C161.828 151.218 152.715 143.784 148.288 141.83C148.223 141.81 148.153 141.814 148.09 141.842C148.028 141.87 147.979 141.921 147.951 141.983C147.924 142.046 147.92 142.116 147.942 142.181C147.963 142.246 148.007 142.301 148.066 142.335C152.398 144.245 161.334 151.551 164.119 165.508C164.131 165.572 164.166 165.629 164.217 165.669C164.268 165.709 164.332 165.729 164.396 165.725Z" fill="white"/>
<path d="M142.304 162.133C142.521 163.055 143.364 163.676 144.163 164.193C144.961 164.709 145.827 165.259 146.137 166.152C146.77 167.957 144.789 169.95 145.494 171.704C145.665 172.07 145.909 172.396 146.21 172.664C146.511 172.933 146.864 173.137 147.247 173.264C147.868 173.503 148.522 173.631 149.166 173.819C149.478 173.873 149.793 173.909 150.109 173.925C151.05 173.899 151.975 174.179 152.743 174.724C153.897 175.701 153.98 177.411 154.524 178.816C154.868 179.652 155.388 180.403 156.05 181.019C156.712 181.634 157.499 182.098 158.357 182.38C159.782 182.858 162.04 182.935 162.545 182.38C162.927 181.942 162.35 180.293 162.445 179.721C162.672 178.252 162.765 176.765 162.722 175.279C162.67 174.601 162.702 173.918 162.816 173.248C162.968 172.507 163.112 171.758 163.249 170.999C163.465 169.789 163.865 168.495 163.571 167.257C163.244 165.897 161.84 165.592 161.546 164.27C161.424 163.715 161.413 163.193 161.302 162.66C161.118 161.874 160.723 161.154 160.16 160.576C159.597 159.998 158.887 159.584 158.107 159.379C155.678 158.785 153.115 160.356 150.674 159.707C150.057 159.499 149.452 159.258 148.861 158.985C146.947 158.236 144.54 158.363 143.098 159.835C142.79 160.125 142.557 160.486 142.419 160.886C142.281 161.287 142.242 161.714 142.304 162.133Z" fill="#455A64"/>
<path d="M162.052 178.494C162.107 178.488 162.159 178.461 162.196 178.419C162.233 178.377 162.253 178.322 162.251 178.266C161.286 164.875 148.229 160.467 145.056 160.095C145 160.089 144.943 160.105 144.898 160.14C144.854 160.176 144.825 160.227 144.818 160.284C144.815 160.312 144.817 160.34 144.825 160.366C144.833 160.393 144.846 160.418 144.863 160.44C144.881 160.461 144.903 160.479 144.927 160.493C144.952 160.506 144.979 160.514 145.006 160.517C148.118 160.883 160.892 165.192 161.835 178.283C161.835 178.311 161.841 178.339 161.852 178.365C161.863 178.391 161.879 178.414 161.899 178.434C161.919 178.453 161.943 178.469 161.969 178.479C161.995 178.489 162.023 178.494 162.052 178.494Z" fill="white"/>
<path d="M148.356 169.189C148.4 169.191 148.444 169.177 148.479 169.15C149.923 168.313 151.535 167.805 153.198 167.662C154.861 167.519 156.536 167.745 158.102 168.323C158.153 168.332 158.206 168.323 158.251 168.297C158.296 168.271 158.329 168.229 158.346 168.18C158.363 168.131 158.362 168.077 158.342 168.029C158.323 167.981 158.287 167.941 158.241 167.918C156.614 167.319 154.876 167.088 153.15 167.241C151.424 167.394 149.753 167.926 148.257 168.8C148.234 168.816 148.214 168.836 148.199 168.859C148.183 168.883 148.173 168.909 148.168 168.936C148.163 168.963 148.163 168.991 148.169 169.019C148.174 169.046 148.185 169.072 148.201 169.095C148.218 169.121 148.241 169.144 148.268 169.16C148.295 169.176 148.325 169.186 148.356 169.189Z" fill="white"/>
<path d="M167.215 90.3933L169.511 91.7201L226.843 58.5874L224.552 57.2661L167.215 90.3933Z" fill="#F5F5F5"/>
<path d="M198.176 20.5471V73.8326L200.467 72.5057V19.2202L198.176 20.5471Z" fill="#EBEBEB"/>
<path d="M197.027 19.8809L198.176 20.5471V73.8326L197.027 73.1664V19.8809Z" fill="#E0E0E0"/>
<path d="M198.176 20.5468L200.466 19.2199L199.324 18.5537L197.027 19.8806L198.176 20.5468Z" fill="#FAFAFA"/>
<path d="M229.134 1.32666L167.215 37.1242V95.695L229.134 59.9141V1.32666ZM226.843 58.5872L169.511 91.7199V38.4233L226.843 5.3017V58.5872Z" fill="#EBEBEB"/>
<path d="M226.843 58.5873L224.552 57.2659L224.547 6.62862L226.843 5.30176V58.5873Z" fill="#E0E0E0"/>
<path d="M229.133 1.32686L226.843 0L164.924 35.7809L167.215 37.1078L229.133 1.32686Z" fill="#F5F5F5"/>
<path d="M164.924 35.7808L167.215 37.1076V95.695L164.924 94.3682V35.7808Z" fill="#E0E0E0"/>
<path opacity="0.1" d="M198.176 21.8682L200.461 20.5469V21.8737L198.176 23.1951V21.8682Z" fill="black"/>
<path opacity="0.1" d="M198.176 23.195L197.027 22.5288L198.176 21.8682V23.195Z" fill="black"/>
<path d="M344.052 44.3418C340.031 45.6742 339.06 45.974 336.287 50.3044C333.613 54.4682 330.856 62.1573 328.466 68.3308C324.028 67.0706 314.665 64.8832 311.564 63.0844C308.464 61.2857 308.791 60.0421 307.521 58.8818C306.068 57.5438 304.542 54.3349 303.355 56.1059C302.551 57.294 304.209 58.0934 304.104 59.5979C303.999 61.1025 299.45 57.5383 297.542 56.2058C296.278 55.3176 293.343 58.0934 294.525 61.108C295.562 63.7729 297.232 65.4661 300.221 66.7264C303.377 68.0643 305.025 68.7361 308.991 70.5182C313.134 72.378 330.207 79.9561 331.893 78.8847C335.737 76.986 339.26 65.0775 341.589 59.9366C343.919 54.7957 342.36 49.466 344.052 44.3418Z" fill="#FFA8A7"/>
<path d="M345.024 43.8306C343.298 46.1012 344.008 45.1852 343.476 48.6828C343.049 51.5086 337.119 78.6621 331.756 79.8113C329.398 80.3054 312.408 72.5275 308.287 70.2512C309.679 68.1971 311.061 65.66 311.543 63.0673C316.48 64.9993 324.994 66.9036 328.05 67.8529C329.465 63.9056 331.195 59.8529 332.821 55.8667C335.91 48.283 337.896 44.8576 345.024 43.8306Z" fill="#FF0000"/>
<path opacity="0.2" d="M345.024 43.8306C343.298 46.1012 344.008 45.1852 343.476 48.6828C343.049 51.5086 337.119 78.6621 331.756 79.8113C329.398 80.3054 312.408 72.5275 308.287 70.2512C309.679 68.1971 311.061 65.66 311.543 63.0673C316.48 64.9993 324.994 66.9036 328.05 67.8529C329.465 63.9056 331.195 59.8529 332.821 55.8667C335.91 48.283 337.896 44.8576 345.024 43.8306Z" fill="black"/>
<path d="M368.065 166.974H361.447V178.316H368.065V166.974Z" fill="#FFA8A7"/>
<path d="M343.469 171.26L336.241 171.51L335.881 158.402L344.062 158.136L343.469 171.26Z" fill="#FFA8A7"/>
<path d="M367.254 89.799C367.254 95.8282 367.67 130.882 367.67 130.882C367.815 132.614 369.484 135.701 369.617 141.952C369.806 151.018 368.408 172.364 368.408 172.364C367.319 172.901 366.126 173.191 364.912 173.215C363.699 173.239 362.495 172.996 361.386 172.503C361.386 172.503 356.433 142.307 355.284 133.336C354.297 125.502 351.479 105.022 351.479 105.022L347.214 131.637C347.682 134.823 347.801 138.051 347.569 141.263C347.275 145.416 344.135 166.041 344.135 166.041C341.405 166.942 338.462 166.969 335.715 166.119C335.715 166.119 335.055 133.974 334.983 130.171C334.9 125.83 336.791 88.4888 336.791 88.4888L367.254 89.799Z" fill="#37474F"/>
<path d="M361.447 175.04V174.097C361.092 174.097 360.893 174.441 360.737 175.296C360.642 175.926 360.514 176.55 360.355 177.167C360.058 178.326 359.67 179.46 359.195 180.559C358.258 182.868 357.476 183.729 355.312 186.427C354.808 187.065 353.648 188.092 353.26 188.798C352.872 189.503 352.705 191.49 353.399 191.945C355.895 193.611 359.694 193.661 362.379 192.873C363.378 192.591 364.276 192.028 364.964 191.25C365.652 190.473 366.103 189.513 366.262 188.487C366.362 187.876 366.328 187.254 366.395 186.638C366.631 185.24 367.202 183.92 368.059 182.791C368.555 182.14 368.981 181.438 369.329 180.698C369.884 179.332 369.44 177.8 369.085 176.445C368.78 175.274 368.447 173.986 368.048 174.097V174.807C367.565 175.362 366.234 175.868 364.72 175.918C363.794 175.973 361.442 175.784 361.447 175.04Z" fill="#FF0000"/>
<path opacity="0.6" d="M361.447 175.04V174.097C361.092 174.097 360.893 174.441 360.737 175.296C360.642 175.926 360.514 176.55 360.355 177.167C360.058 178.326 359.67 179.46 359.195 180.559C358.258 182.868 357.476 183.729 355.312 186.427C354.808 187.065 353.648 188.092 353.26 188.798C352.872 189.503 352.705 191.49 353.399 191.945C355.895 193.611 359.694 193.661 362.379 192.873C363.378 192.591 364.276 192.028 364.964 191.25C365.652 190.473 366.103 189.513 366.262 188.487C366.362 187.876 366.328 187.254 366.395 186.638C366.631 185.24 367.202 183.92 368.059 182.791C368.555 182.14 368.981 181.438 369.329 180.698C369.884 179.332 369.44 177.8 369.085 176.445C368.78 175.274 368.447 173.986 368.048 174.097V174.807C367.565 175.362 366.234 175.868 364.72 175.918C363.794 175.973 361.442 175.784 361.447 175.04Z" fill="black"/>
<path d="M336.17 169.256C335.792 169.256 335.487 169.811 334.661 170.693C333.423 171.945 331.985 172.98 330.407 173.758C327.7 175.113 322.441 177.2 320.056 178.272C318.57 178.943 318.642 180.742 320.178 181.764C321.715 182.785 325.431 183.529 329.885 182.53C332.315 181.975 335.476 179.754 337.479 179.859C339.481 179.965 343.22 179.954 344.69 178.932C346.159 177.911 345.571 175.74 345.155 173.869C344.701 171.826 344.246 168.645 343.569 168.784L343.536 169.544C342.665 170.866 338.105 171.343 336.197 170.371L336.17 169.256Z" fill="#FF0000"/>
<path opacity="0.6" d="M336.17 169.256C335.792 169.256 335.487 169.811 334.661 170.693C333.423 171.945 331.985 172.98 330.407 173.758C327.7 175.113 322.441 177.2 320.056 178.272C318.57 178.943 318.642 180.742 320.178 181.764C321.715 182.785 325.431 183.529 329.885 182.53C332.315 181.975 335.476 179.754 337.479 179.859C339.481 179.965 343.22 179.954 344.69 178.932C346.159 177.911 345.571 175.74 345.155 173.869C344.701 171.826 344.246 168.645 343.569 168.784L343.536 169.544C342.665 170.866 338.105 171.343 336.197 170.371L336.17 169.256Z" fill="black"/>
<path d="M351.495 105.027C351.495 105.027 345.865 103.19 342.121 99.5698C342.121 99.5698 343.818 102.745 348.86 105.704L347.651 129.022L351.495 105.027Z" fill="#263238"/>
<path d="M356.317 43.5311C358.638 44.062 360.927 44.7256 363.172 45.5187C364.881 46.1293 365.802 47.7393 366.168 49.3604C367.333 54.5014 367.538 65.2884 367.538 65.2884L367.604 90.3988C363.256 93.5689 345.417 95.1789 336.254 88.4946C336.254 88.4946 337.363 58.5819 337.363 53.9295C337.363 49.2772 339.948 43.681 347.081 43.2646L356.317 43.5311Z" fill="#FF0000"/>
<path opacity="0.4" d="M356.317 43.5311C358.638 44.062 360.927 44.7256 363.172 45.5187C364.881 46.1293 365.802 47.7393 366.168 49.3604C367.333 54.5014 367.538 65.2884 367.538 65.2884L367.604 90.3988C363.256 93.5689 345.417 95.1789 336.254 88.4946C336.254 88.4946 337.363 58.5819 337.363 53.9295C337.363 49.2772 339.948 43.681 347.081 43.2646L356.317 43.5311Z" fill="black"/>
<path d="M390.99 72.8944C390.999 72.8113 390.986 72.7273 390.953 72.6505C390.92 72.5737 390.868 72.5067 390.802 72.4559L390.752 72.4226L389.748 71.8396C389.669 71.8052 389.583 71.7917 389.497 71.8004C389.412 71.8092 389.33 71.8399 389.26 71.8896L369.119 83.4983L368.564 81.1332C368.519 80.9744 368.416 80.838 368.276 80.7502L367.233 80.145C367.137 80.0879 367.027 80.0577 366.914 80.0577C366.802 80.0577 366.692 80.0879 366.595 80.145L358.026 85.1027C357.823 85.2346 357.654 85.4124 357.533 85.6217C357.411 85.8309 357.341 86.0658 357.327 86.3074V114.877C357.318 114.96 357.331 115.044 357.363 115.122C357.395 115.199 357.445 115.267 357.51 115.321L358.58 115.959C358.658 115.99 358.743 116.001 358.826 115.991C358.909 115.981 358.988 115.951 359.057 115.904L390.302 97.8439C390.505 97.712 390.674 97.5342 390.795 97.325C390.917 97.1157 390.987 96.8808 391.001 96.6392L390.99 72.8944Z" fill="#FF0000"/>
<path opacity="0.5" d="M368.242 80.7391C368.145 80.6875 368.037 80.6629 367.927 80.6678C367.818 80.6727 367.712 80.7069 367.621 80.7668L359.062 85.7079C358.859 85.8405 358.689 86.0193 358.568 86.2297L357.525 85.6246C357.642 85.4107 357.812 85.2309 358.019 85.1027L366.578 80.1561C366.674 80.099 366.784 80.0688 366.897 80.0688C367.009 80.0688 367.119 80.099 367.216 80.1561L368.242 80.7391Z" fill="white"/>
<path opacity="0.5" d="M390.751 72.4225C390.674 72.4012 390.594 72.3967 390.515 72.4091C390.437 72.4216 390.362 72.4508 390.296 72.4947L370.155 84.12C370.074 84.1747 369.981 84.2088 369.883 84.2193C369.786 84.2299 369.687 84.2165 369.596 84.1805C369.505 84.1444 369.424 84.0867 369.36 84.0124C369.296 83.938 369.251 83.8492 369.229 83.7536L369.135 83.4982L389.253 71.884C389.345 71.8274 389.45 71.7949 389.558 71.7896C389.622 71.7884 389.685 71.8037 389.741 71.834L390.751 72.4225Z" fill="white"/>
<path d="M390.99 72.8941V96.6222C390.977 96.8644 390.908 97.1002 390.788 97.3106C390.667 97.5209 390.499 97.6997 390.296 97.8325L358.979 115.959C358.917 115.995 358.846 116.014 358.774 116.014C358.702 116.014 358.631 115.995 358.569 115.959C358.506 115.923 358.455 115.871 358.418 115.809C358.382 115.746 358.363 115.676 358.363 115.604V86.9178C358.371 86.6762 358.442 86.4408 358.569 86.2349C358.686 86.0237 358.854 85.8446 359.057 85.7131L367.621 80.7665C367.713 80.7081 367.819 80.6749 367.928 80.67C368.037 80.6652 368.145 80.6888 368.242 80.7387C368.382 80.8265 368.485 80.9629 368.531 81.1218L369.119 83.4868L369.207 83.7422C369.229 83.8384 369.274 83.9278 369.339 84.0027C369.403 84.0777 369.484 84.1359 369.576 84.1725C369.667 84.209 369.767 84.2228 369.865 84.2127C369.963 84.2025 370.057 84.1687 370.139 84.1142L390.28 72.4833C390.345 72.4381 390.42 72.4086 390.499 72.3971C390.578 72.3856 390.659 72.3922 390.734 72.4167H390.762C390.841 72.4665 390.905 72.5378 390.945 72.6224C390.985 72.7069 391.001 72.8011 390.99 72.8941Z" fill="#FF0000"/>
<path d="M384.838 76.825L384.843 73.0775L387.068 71.7896V75.537L384.838 76.825Z" fill="#455A64"/>
<path opacity="0.2" d="M358.618 115.959H358.585L357.509 115.337C357.443 115.285 357.392 115.216 357.359 115.139C357.326 115.062 357.313 114.977 357.32 114.893V86.3074C357.331 86.0662 357.401 85.8315 357.526 85.6245L358.568 86.2296C358.444 86.4359 358.375 86.6713 358.369 86.9125V115.571C358.365 115.653 358.387 115.735 358.432 115.805C358.477 115.874 358.542 115.928 358.618 115.959Z" fill="black"/>
<path d="M379.861 77.1412C374.109 53.5575 371.131 46.3236 364.125 46.4124C362.084 48.8607 364.236 56.4666 365.589 60.1696C365.589 60.1696 371.78 75.3092 372.933 80.711C373.943 85.4633 375.085 91.437 375.013 95.523C374.994 96.2478 374.707 96.9397 374.209 97.4661C372.894 98.8929 372.889 100.042 372.04 101.619C371.375 102.857 370.642 103.318 370.848 103.595C371.123 103.888 371.497 104.068 371.898 104.098C372.299 104.127 372.696 104.006 373.011 103.756C373.637 103.312 374.198 102.781 374.675 102.18C374.527 104.041 374.095 105.868 373.394 107.598L371.891 108.453C371.891 108.453 372.34 109.974 375.879 108.958C379.878 107.815 381.309 107.293 381.731 100.536C381.935 98.0374 381.959 95.5271 381.803 93.0247C381.226 86.5903 380.765 80.9386 379.861 77.1412Z" fill="#FFA8A7"/>
<path d="M363.172 45.5184C363.172 45.5184 368.514 45.4018 370.205 47.9944C372.158 50.9868 374.698 55.6281 377.971 67.3256C381.244 79.0231 382.264 87.5672 382.408 94.1515C382.408 94.1515 378.293 96.078 374.493 93.8795C374.493 93.8795 372.829 83.7032 371.315 78.2902C369.801 72.8773 365.041 61.1409 365.041 61.1409C365.041 61.1409 360.51 53.6628 363.172 45.5184Z" fill="#FF0000"/>
<path opacity="0.2" d="M363.172 45.5184C363.172 45.5184 368.514 45.4018 370.205 47.9944C372.158 50.9868 374.698 55.6281 377.971 67.3256C381.244 79.0231 382.264 87.5672 382.408 94.1515C382.408 94.1515 378.293 96.078 374.493 93.8795C374.493 93.8795 372.829 83.7032 371.315 78.2902C369.801 72.8773 365.041 61.1409 365.041 61.1409C365.041 61.1409 360.51 53.6628 363.172 45.5184Z" fill="black"/>
<path d="M354.853 23.6888C354.853 25.3468 354.362 26.9676 353.441 28.3462C352.521 29.7248 351.213 30.7993 349.682 31.4338C348.152 32.0683 346.468 32.2343 344.843 31.9108C343.218 31.5873 341.726 30.7889 340.555 29.6165C339.383 28.4441 338.586 26.9504 338.263 25.3242C337.939 23.6981 338.105 22.0125 338.739 20.4807C339.373 18.9489 340.447 17.6396 341.824 16.7185C343.201 15.7973 344.821 15.3057 346.477 15.3057C348.699 15.3057 350.829 16.1889 352.4 17.761C353.97 19.3332 354.853 21.4654 354.853 23.6888Z" fill="#263238"/>
<path d="M360.953 29.646C360.953 29.646 359.594 36.0305 359.051 37.0798C358.688 37.7237 358.092 38.2043 357.387 38.4233L357.481 33.9375L360.953 29.646Z" fill="#263238"/>
<path d="M359.251 20.5083C359.724 20.4532 360.205 20.507 360.654 20.6658C361.104 20.8245 361.512 21.084 361.847 21.4243C362.956 22.568 362.34 26.1433 360.954 29.6464L358.396 29.9407L359.251 20.5083Z" fill="#263238"/>
<path d="M357.624 29.946C358.14 30.2514 358.872 29.2632 359.504 28.6025C360.137 27.9419 362.2 27.0369 363.226 29.2076C364.253 31.3784 362.317 34.343 360.697 34.8538C357.896 35.7309 357.474 33.9377 357.474 33.9377L357.269 44.3417C355.333 46.8233 350.985 49.7435 348.644 49.3382C346.775 49.0051 346.364 45.8462 348.15 43.7865V40.7108C346.901 40.9091 345.635 40.9743 344.373 40.9051C342.315 40.5887 341.045 38.962 340.396 36.7302C339.392 33.1494 339.015 30.2514 339.841 23.2062C340.773 15.4838 349.748 15.4338 354.596 18.4595C359.443 21.4852 357.624 29.946 357.624 29.946Z" fill="#FFA8A7"/>
<path d="M340.025 19.753C341.717 21.1298 342.799 21.8626 346.088 21.9736C348.322 22.0498 350.544 21.613 352.583 20.6968C352.699 21.4804 353.034 22.2155 353.548 22.8175C354.192 23.4929 354.976 24.0179 355.845 24.3553C356.017 25.7488 356.011 27.5309 356.1 28.93C356.128 29.4019 356.1 31.8557 357.242 31.1507C357.615 30.8245 357.943 30.4513 358.219 30.0403C358.62 29.5383 359.049 29.06 359.506 28.608C360.388 27.803 359.25 20.5135 359.25 20.5135C359.556 19.872 359.661 19.1534 359.552 18.4513C359.443 17.7492 359.125 17.0962 358.64 16.5774C357.426 15.2394 355.739 13.6127 350.242 14.2623C346.326 14.7286 342.061 15.9278 338.594 14.2623C338.139 16.2276 338.811 18.7647 340.025 19.753Z" fill="#263238"/>
<path d="M359.245 21.0743L362.34 19.4088C362.241 19.1998 362.101 19.0131 361.928 18.86C361.755 18.7068 361.553 18.5904 361.333 18.5178C361.114 18.4451 360.882 18.4177 360.652 18.4373C360.422 18.4568 360.198 18.5229 359.994 18.6315C359.579 18.8639 359.27 19.2476 359.13 19.7026C358.991 20.1576 359.032 20.6489 359.245 21.0743Z" fill="#263238"/>
<path d="M348.162 40.6996C348.162 40.6996 352.755 39.7724 354.363 38.9175C355.309 38.4176 356.082 37.6437 356.582 36.6968C356.337 37.6368 355.907 38.5183 355.317 39.2894C354.141 40.794 348.156 41.8987 348.156 41.8987L348.162 40.6996Z" fill="#F28F8F"/>
<path d="M348.629 28.3139C348.638 28.5072 348.703 28.6937 348.817 28.8503C348.93 29.0068 349.087 29.1266 349.268 29.1946C349.449 29.2626 349.646 29.276 349.835 29.233C350.023 29.19 350.195 29.0925 350.329 28.9527C350.462 28.8129 350.552 28.6369 350.587 28.4465C350.621 28.2561 350.599 28.0597 350.524 27.8817C350.448 27.7037 350.321 27.552 350.16 27.4452C349.999 27.3385 349.81 27.2814 349.616 27.2812C349.349 27.2885 349.095 27.4011 348.911 27.5944C348.726 27.7877 348.625 28.0463 348.629 28.3139Z" fill="#263238"/>
<path d="M349.615 24.9716L351.651 26.0819C351.798 25.8024 351.831 25.4768 351.743 25.1735C351.655 24.8702 351.453 24.6128 351.179 24.4552C351.045 24.3783 350.895 24.3306 350.741 24.3151C350.586 24.2996 350.43 24.3168 350.283 24.3654C350.135 24.4141 350 24.4932 349.885 24.5976C349.77 24.702 349.678 24.8294 349.615 24.9716Z" fill="#263238"/>
<path d="M348.551 35.0259L346.271 35.8808C346.32 36.0346 346.399 36.1768 346.504 36.2989C346.61 36.421 346.739 36.5203 346.883 36.591C347.028 36.6616 347.186 36.702 347.347 36.7097C347.507 36.7175 347.668 36.6923 347.819 36.6359C348.125 36.5141 348.372 36.2784 348.509 35.9783C348.645 35.6782 348.66 35.3369 348.551 35.0259Z" fill="#F28F8F"/>
<path d="M340.491 25.7931L342.349 24.3552C342.263 24.2279 342.152 24.1199 342.022 24.0379C341.892 23.9558 341.747 23.9016 341.595 23.8787C341.444 23.8557 341.289 23.8645 341.141 23.9045C340.993 23.9445 340.854 24.0147 340.735 24.1109C340.485 24.3055 340.32 24.5893 340.274 24.9028C340.229 25.2164 340.306 25.5354 340.491 25.7931Z" fill="#263238"/>
<path d="M340.912 28.1246C340.92 28.3116 340.982 28.4923 341.092 28.6441C341.201 28.796 341.352 28.9123 341.527 28.9786C341.702 29.045 341.893 29.0584 342.075 29.0173C342.258 28.9762 342.424 28.8823 342.553 28.7474C342.683 28.6124 342.77 28.4423 342.804 28.2582C342.838 28.0741 342.817 27.8842 342.743 27.7119C342.67 27.5397 342.548 27.3928 342.392 27.2895C342.236 27.1862 342.053 27.131 341.866 27.1309C341.608 27.1367 341.363 27.2445 341.184 27.4307C341.006 27.6169 340.908 27.8664 340.912 28.1246Z" fill="#263238"/>
<path d="M346.016 27.3423L345.689 33.3493L342.555 32.2833L346.016 27.3423Z" fill="#F28F8F"/>
<path d="M344.883 48.6776C345.471 50.0711 346.547 50.6374 348.505 50.8539C349.488 50.9239 350.474 50.7931 351.405 50.4696C352.336 50.1461 353.191 49.6365 353.919 48.9718L351.483 46.5624L348.399 48.8886L348.139 46.2959L344.883 48.6776Z" fill="#263238"/>
<path d="M346.421 47.917C346.137 48.7557 346.028 49.6437 346.1 50.5263C346.189 51.3142 346.488 52.0637 346.965 52.697C347.276 52.8935 347.627 53.0161 347.992 53.0556C348.358 53.095 348.727 53.0502 349.073 52.9246C349.7 52.385 350.203 51.7164 350.549 50.9643C350.894 50.2122 351.074 49.3943 351.075 48.5665L348.401 48.8719L346.421 47.917Z" fill="#37474F"/>
<path d="M346.963 52.6968C346.963 52.6968 343.802 70.1903 343.669 71.6004C343.535 73.0106 345.488 78.0293 346.697 78.0737C347.906 78.1181 350.275 73.5768 350.308 72.2888C350.341 71.0008 349.071 52.9244 349.071 52.9244L346.963 52.6968Z" fill="#37474F"/>
<path d="M349.072 52.9244C348.732 53.0756 348.357 53.1342 347.987 53.0943C347.617 53.0543 347.264 52.9172 346.964 52.6968L346.914 52.9744C347.218 53.2167 347.576 53.3824 347.957 53.4578C348.338 53.5331 348.732 53.5159 349.105 53.4074L349.072 52.9244Z" fill="#263238"/>
<path d="M348.4 48.8717L357.314 42.0709L357.347 40.2832C357.347 40.2832 359.439 40.8384 359.904 44.5025C358.634 47.4616 356.327 49.9821 352.943 51.9141L351.074 48.583L348.4 48.8717Z" fill="#FF0000"/>
<path opacity="0.2" d="M348.4 48.8717L357.314 42.0709L357.347 40.2832C357.347 40.2832 359.439 40.8384 359.904 44.5025C358.634 47.4616 356.327 49.9821 352.943 51.9141L351.074 48.583L348.4 48.8717Z" fill="black"/>
<path d="M348.162 41.1436C348.162 41.1436 346.066 42.1151 345.173 43.5919C344.28 45.0686 344.285 49.8598 344.285 49.8598L346.421 47.9167L348.401 48.8716C348.212 46.9951 348.151 43.7751 348.151 43.7751L348.162 41.1436Z" fill="#FF0000"/>
<path opacity="0.2" d="M348.162 41.1436C348.162 41.1436 346.066 42.1151 345.173 43.5919C344.28 45.0686 344.285 49.8598 344.285 49.8598L346.421 47.9167L348.401 48.8716C348.212 46.9951 348.151 43.7751 348.151 43.7751L348.162 41.1436Z" fill="black"/>
<path d="M254.033 194.288L221.213 175.324V72.3667L254.033 91.3314V194.288Z" fill="#263238"/>
<path d="M254.033 91.3312L300.92 64.2388V167.196L254.033 194.288V91.3312Z" fill="#37474F"/>
<path d="M300.92 64.2391L254.033 91.3316L221.213 72.3669L268.1 45.2744L300.92 64.2391Z" fill="#455A64"/>
<path d="M258.721 158.058L296.234 136.384V162.477L297.093 162.977L259.586 184.651L258.721 184.151V158.058Z" fill="#263238"/>
<path d="M259.586 158.557L297.093 136.883V162.976L259.586 184.65V158.557Z" fill="#455A64"/>
<g opacity="0.05">
<path d="M259.586 158.557L297.093 136.883V162.976L259.586 184.65V158.557Z" fill="black"/>
</g>
<path d="M274.269 154.482L280.648 150.796C281.474 150.318 282.146 150.541 282.146 151.284C282.085 151.746 281.917 152.187 281.657 152.573C281.396 152.958 281.048 153.278 280.642 153.505L274.269 157.192C273.443 157.675 272.771 157.452 272.771 156.703C272.833 156.242 273 155.802 273.26 155.417C273.52 155.032 273.865 154.712 274.269 154.482Z" fill="#263238"/>
<path d="M258.721 126.551L296.234 104.877V130.971L297.093 131.47L259.586 153.144L258.721 152.645V126.551Z" fill="#263238"/>
<path d="M259.586 127.051L297.093 105.377V131.471L259.586 153.145V127.051Z" fill="#455A64"/>
<g opacity="0.05">
<path d="M259.586 127.051L297.093 105.377V131.471L259.586 153.145V127.051Z" fill="black"/>
</g>
<path d="M274.269 122.976L280.648 119.29C281.474 118.813 282.146 119.035 282.146 119.779C282.085 120.24 281.917 120.681 281.657 121.067C281.396 121.452 281.048 121.772 280.642 121.999L274.269 125.686C273.443 126.169 272.771 125.947 272.771 125.197C272.833 124.736 273 124.296 273.26 123.911C273.52 123.526 273.865 123.206 274.269 122.976Z" fill="#263238"/>
<path d="M258.721 95.0455L296.234 73.3716V99.4592L258.721 121.133V95.0455Z" fill="#263238"/>
<path d="M314.987 88.622L294.175 76.6025L294.17 99.5923L314.981 111.612L314.987 88.622Z" fill="#37474F"/>
<g opacity="0.1">
<path d="M314.987 88.622L294.175 76.6025L294.17 99.5923L314.981 111.612L314.987 88.622Z" fill="black"/>
</g>
<path d="M295.629 75.7588L294.17 76.6027L314.987 88.6221L316.44 87.7838L295.629 75.7588Z" fill="#455A64"/>
<path d="M301.492 78.2959C301.501 78.2078 301.486 78.1191 301.45 78.0383C301.414 77.9575 301.358 77.8875 301.287 77.8351C301.272 77.8216 301.255 77.8103 301.237 77.8018L300.177 77.1855C300.095 77.147 300.003 77.1313 299.913 77.1401C299.822 77.1489 299.735 77.1818 299.662 77.2355L278.467 89.4493L277.846 86.9565C277.8 86.7873 277.691 86.6421 277.541 86.5513L276.432 85.9073C276.33 85.8472 276.214 85.8155 276.096 85.8155C275.978 85.8155 275.862 85.8472 275.76 85.9073L266.741 91.1203C266.528 91.2594 266.35 91.447 266.223 91.668C266.096 91.889 266.022 92.137 266.009 92.3917V122.488C265.999 122.576 266.012 122.666 266.047 122.747C266.082 122.829 266.138 122.9 266.209 122.954L267.318 123.615C267.4 123.645 267.488 123.655 267.575 123.644C267.662 123.633 267.745 123.602 267.817 123.554L300.743 104.528C300.957 104.388 301.134 104.201 301.261 103.98C301.388 103.759 301.462 103.511 301.475 103.256L301.492 78.2959Z" fill="#FF0000"/>
<path opacity="0.2" d="M277.518 86.5624C277.418 86.5054 277.305 86.4755 277.19 86.4755C277.076 86.4755 276.963 86.5054 276.863 86.5624L267.844 91.7755C267.627 91.9132 267.45 92.1044 267.328 92.3306L266.219 91.6866C266.342 91.4615 266.519 91.2707 266.735 91.1315L275.765 85.9794C275.866 85.9194 275.982 85.8877 276.1 85.8877C276.218 85.8877 276.334 85.9194 276.436 85.9794L277.518 86.5624Z" fill="black"/>
<path opacity="0.2" d="M301.236 77.8013C301.155 77.7757 301.07 77.7689 300.986 77.7814C300.903 77.7939 300.823 77.8254 300.753 77.8735L279.537 90.1261C279.451 90.1835 279.352 90.2191 279.249 90.2299C279.145 90.2407 279.041 90.2265 278.945 90.1883C278.848 90.1501 278.763 90.0892 278.695 90.0107C278.627 89.9322 278.579 89.8385 278.555 89.7375L278.461 89.471L299.655 77.2572C299.754 77.1962 299.867 77.1617 299.982 77.1573C300.049 77.156 300.114 77.1733 300.171 77.2073L301.236 77.8013Z" fill="black"/>
<path d="M301.492 78.3012V103.284C301.479 103.539 301.405 103.787 301.278 104.008C301.151 104.229 300.973 104.416 300.76 104.555L267.751 123.631C267.685 123.669 267.61 123.689 267.534 123.689C267.457 123.689 267.383 123.669 267.317 123.63C267.251 123.592 267.196 123.537 267.159 123.471C267.121 123.405 267.101 123.33 267.102 123.254V93.0744C267.119 92.8205 267.193 92.574 267.32 92.3536C267.447 92.1332 267.623 91.9449 267.834 91.803L276.853 86.5955C276.95 86.5324 277.063 86.496 277.178 86.4902C277.294 86.4843 277.41 86.5092 277.513 86.5622C277.663 86.653 277.772 86.7982 277.818 86.9674L278.439 89.4602L278.534 89.7267C278.557 89.8281 278.604 89.9225 278.672 90.0016C278.739 90.0808 278.825 90.1423 278.921 90.1811C279.018 90.2198 279.122 90.2346 279.226 90.2241C279.329 90.2136 279.429 90.1782 279.515 90.1208L300.732 77.8682C300.801 77.8201 300.881 77.7886 300.965 77.7761C301.048 77.7636 301.134 77.7704 301.214 77.796H301.242C301.325 77.8502 301.392 77.9257 301.436 78.0145C301.48 78.1034 301.499 78.2024 301.492 78.3012Z" fill="#FF0000"/>
<path opacity="0.3" d="M301.492 78.3012V103.284C301.479 103.539 301.405 103.787 301.278 104.008C301.151 104.229 300.973 104.416 300.76 104.555L267.751 123.631C267.685 123.669 267.61 123.689 267.534 123.689C267.457 123.689 267.383 123.669 267.317 123.63C267.251 123.592 267.196 123.537 267.159 123.471C267.121 123.405 267.101 123.33 267.102 123.254V93.0744C267.119 92.8205 267.193 92.574 267.32 92.3536C267.447 92.1332 267.623 91.9449 267.834 91.803L276.853 86.5955C276.95 86.5324 277.063 86.496 277.178 86.4902C277.294 86.4843 277.41 86.5092 277.513 86.5622C277.663 86.653 277.772 86.7982 277.818 86.9674L278.439 89.4602L278.534 89.7267C278.557 89.8281 278.604 89.9225 278.672 90.0016C278.739 90.0808 278.825 90.1423 278.921 90.1811C279.018 90.2198 279.122 90.2346 279.226 90.2241C279.329 90.2136 279.429 90.1782 279.515 90.1208L300.732 77.8682C300.801 77.8201 300.881 77.7886 300.965 77.7761C301.048 77.7636 301.134 77.7704 301.214 77.796H301.242C301.325 77.8502 301.392 77.9257 301.436 78.0145C301.48 78.1034 301.499 78.2024 301.492 78.3012Z" fill="black"/>
<path d="M279.82 91.215V87.2677L282.167 85.9131V89.8604L279.82 91.215Z" fill="#E0E0E0"/>
<path opacity="0.5" d="M267.379 123.67H267.346L266.236 123.01C266.168 122.953 266.115 122.882 266.08 122.801C266.045 122.72 266.03 122.631 266.037 122.543V92.4307C266.046 92.1757 266.121 91.9273 266.253 91.709L267.362 92.353C267.229 92.571 267.155 92.8195 267.146 93.0747V123.271C267.142 123.353 267.162 123.434 267.204 123.505C267.245 123.576 267.306 123.633 267.379 123.67Z" fill="black"/>
<path d="M305.025 80.3615C305.033 80.2727 305.019 80.1832 304.983 80.1016C304.947 80.02 304.891 79.9489 304.819 79.8952H304.77L303.71 79.2734C303.627 79.2349 303.536 79.2192 303.445 79.228C303.355 79.2367 303.268 79.2697 303.194 79.3234L282 91.5372L281.379 89.0444C281.331 88.8759 281.222 88.7313 281.074 88.6392L279.964 87.9952C279.863 87.9351 279.747 87.9034 279.629 87.9034C279.511 87.9034 279.395 87.9351 279.293 87.9952L270.274 93.2082C270.061 93.3476 269.883 93.5353 269.756 93.7563C269.629 93.9772 269.555 94.225 269.542 94.4796V124.581C269.533 124.669 269.546 124.757 269.581 124.838C269.616 124.918 269.671 124.989 269.742 125.042L270.851 125.703C270.933 125.732 271.021 125.742 271.108 125.732C271.195 125.721 271.278 125.69 271.35 125.641L304.276 106.616C304.49 106.477 304.667 106.289 304.794 106.068C304.922 105.847 304.995 105.599 305.008 105.344L305.025 80.3615Z" fill="#FF0000"/>
<path opacity="0.1" d="M281.058 88.6219C280.955 88.5689 280.84 88.544 280.724 88.5499C280.608 88.5557 280.496 88.5921 280.398 88.6552L271.379 93.8627C271.164 94.002 270.986 94.1928 270.863 94.4179L269.754 93.7794C269.875 93.5532 270.053 93.362 270.27 93.2243L279.289 88.0112C279.39 87.9511 279.506 87.9194 279.624 87.9194C279.742 87.9194 279.858 87.9511 279.96 88.0112L281.058 88.6219Z" fill="black"/>
<path opacity="0.1" d="M304.775 79.8727C304.695 79.8471 304.609 79.8403 304.525 79.8528C304.442 79.8653 304.362 79.8968 304.293 79.9449L283.076 92.1975C282.989 92.2549 282.89 92.2903 282.786 92.3008C282.683 92.3113 282.579 92.2965 282.482 92.2578C282.386 92.219 282.3 92.1575 282.232 92.0783C282.165 91.9992 282.117 91.9048 282.094 91.8034L282 91.5369L303.194 79.3231C303.293 79.262 303.406 79.2276 303.522 79.2231C303.587 79.2246 303.652 79.2417 303.71 79.2731L304.775 79.8727Z" fill="black"/>
<path d="M305.025 80.3616V105.344C305.011 105.599 304.938 105.847 304.811 106.068C304.684 106.289 304.506 106.476 304.293 106.616L271.284 125.686C271.218 125.724 271.144 125.744 271.068 125.744C270.992 125.744 270.918 125.724 270.852 125.687C270.787 125.649 270.732 125.595 270.694 125.529C270.656 125.464 270.635 125.39 270.635 125.314V95.1126C270.644 94.8574 270.718 94.6089 270.851 94.3909C270.974 94.1653 271.151 93.9744 271.367 93.8357L280.386 88.6226C280.486 88.5629 280.6 88.5314 280.716 88.5314C280.832 88.5314 280.946 88.5629 281.046 88.6226C281.196 88.7156 281.305 88.8626 281.351 89.0334L281.972 91.5206L282.067 91.7927C282.091 91.8936 282.138 91.9874 282.206 92.0659C282.274 92.1443 282.36 92.2053 282.456 92.2434C282.553 92.2816 282.657 92.2959 282.76 92.285C282.863 92.2742 282.962 92.2386 283.048 92.1813L304.265 79.9286C304.339 79.8789 304.424 79.8479 304.513 79.8382C304.602 79.8285 304.692 79.8405 304.775 79.8731H304.803C304.881 79.9268 304.942 80.0006 304.981 80.0866C305.021 80.1727 305.036 80.2677 305.025 80.3616Z" fill="#FF0000"/>
<path opacity="0.2" d="M305.025 80.3616V105.344C305.011 105.599 304.938 105.847 304.811 106.068C304.684 106.289 304.506 106.476 304.293 106.616L271.284 125.686C271.218 125.724 271.144 125.744 271.068 125.744C270.992 125.744 270.918 125.724 270.852 125.687C270.787 125.649 270.732 125.595 270.694 125.529C270.656 125.464 270.635 125.39 270.635 125.314V95.1126C270.644 94.8574 270.718 94.6089 270.851 94.3909C270.974 94.1653 271.151 93.9744 271.367 93.8357L280.386 88.6226C280.486 88.5629 280.6 88.5314 280.716 88.5314C280.832 88.5314 280.946 88.5629 281.046 88.6226C281.196 88.7156 281.305 88.8626 281.351 89.0334L281.972 91.5206L282.067 91.7927C282.091 91.8936 282.138 91.9874 282.206 92.0659C282.274 92.1443 282.36 92.2053 282.456 92.2434C282.553 92.2816 282.657 92.2959 282.76 92.285C282.863 92.2742 282.962 92.2386 283.048 92.1813L304.265 79.9286C304.339 79.8789 304.424 79.8479 304.513 79.8382C304.602 79.8285 304.692 79.8405 304.775 79.8731H304.803C304.881 79.9268 304.942 80.0006 304.981 80.0866C305.021 80.1727 305.036 80.2677 305.025 80.3616Z" fill="black"/>
<path d="M288.418 90.3543V86.407L290.759 85.0469L290.764 88.9997L288.418 90.3543Z" fill="#E6E6E6"/>
<path opacity="0.4" d="M270.939 125.73H270.906L269.797 125.075C269.729 125.018 269.675 124.947 269.641 124.866C269.606 124.784 269.591 124.696 269.597 124.608V94.4957C269.605 94.2404 269.68 93.9916 269.813 93.7739L270.923 94.4124C270.79 94.6284 270.715 94.8751 270.706 95.1285V125.324C270.702 125.407 270.721 125.49 270.763 125.562C270.804 125.634 270.865 125.692 270.939 125.73Z" fill="black"/>
<path d="M308.558 82.4208C308.567 82.3328 308.553 82.2441 308.517 82.1633C308.481 82.0825 308.424 82.0125 308.353 81.9601C308.338 81.9466 308.321 81.9353 308.303 81.9267L307.244 81.3105C307.16 81.277 307.069 81.2645 306.979 81.2742C306.889 81.2839 306.803 81.3154 306.728 81.366L285.534 93.5798L284.912 91.0927C284.868 90.9226 284.758 90.7769 284.607 90.6874L283.498 90.0489C283.397 89.9865 283.281 89.9534 283.162 89.9534C283.044 89.9534 282.928 89.9865 282.827 90.0489L273.808 95.2565C273.594 95.3958 273.417 95.5836 273.29 95.8045C273.162 96.0254 273.089 96.2732 273.076 96.5278V126.629C273.069 126.717 273.084 126.806 273.119 126.887C273.154 126.968 273.207 127.039 273.275 127.096L274.385 127.751C274.466 127.785 274.555 127.797 274.642 127.786C274.73 127.775 274.813 127.742 274.884 127.69L307.81 108.669C308.022 108.529 308.199 108.342 308.326 108.121C308.454 107.9 308.527 107.652 308.542 107.398L308.558 82.4208Z" fill="#FF0000"/>
<path d="M284.591 90.6871C284.489 90.6333 284.374 90.6075 284.258 90.6124C284.142 90.6173 284.029 90.6526 283.931 90.7149L274.912 95.9224C274.698 96.0632 274.521 96.2537 274.396 96.4776L273.287 95.8391C273.409 95.6129 273.586 95.4217 273.803 95.284L282.822 90.0765C282.923 90.014 283.039 89.981 283.158 89.981C283.276 89.981 283.392 90.014 283.493 90.0765L284.591 90.6871Z" fill="#FF0000"/>
<path d="M308.302 81.9269C308.222 81.9013 308.136 81.8945 308.053 81.907C307.969 81.9195 307.89 81.951 307.82 81.9991L286.603 94.2517C286.517 94.3091 286.418 94.3447 286.315 94.3555C286.212 94.3663 286.108 94.3521 286.011 94.3139C285.915 94.2757 285.829 94.2148 285.761 94.1363C285.693 94.0578 285.645 93.9641 285.622 93.8631L285.527 93.5911L306.722 81.3773C306.819 81.3137 306.933 81.279 307.049 81.2774C307.114 81.2769 307.179 81.2921 307.237 81.3218L308.302 81.9269Z" fill="#FF0000"/>
<path d="M308.558 82.4208V107.404C308.545 107.658 308.471 107.906 308.344 108.127C308.217 108.348 308.04 108.536 307.826 108.675L274.823 127.767C274.757 127.805 274.683 127.825 274.607 127.825C274.532 127.826 274.457 127.806 274.391 127.768C274.326 127.73 274.271 127.676 274.233 127.611C274.195 127.545 274.174 127.471 274.174 127.395V97.1995C274.191 96.9457 274.266 96.6992 274.392 96.4788C274.519 96.2584 274.695 96.0701 274.906 95.9282L283.925 90.7151C284.023 90.6539 284.136 90.6192 284.251 90.6143C284.367 90.6095 284.482 90.6346 284.585 90.6874C284.736 90.7769 284.846 90.9226 284.89 91.0926L285.511 93.5854L285.606 93.8518C285.63 93.9528 285.677 94.0466 285.745 94.125C285.813 94.2035 285.899 94.2645 285.995 94.3026C286.092 94.3408 286.196 94.3551 286.299 94.3442C286.402 94.3334 286.501 94.2978 286.588 94.2405L307.804 81.9878C307.874 81.9397 307.953 81.9083 308.037 81.8957C308.121 81.8832 308.206 81.89 308.287 81.9156H308.314C308.399 81.9678 308.467 82.0431 308.51 82.1326C308.553 82.2221 308.57 82.3221 308.558 82.4208Z" fill="#FF0000"/>
<path opacity="0.1" d="M308.558 82.4208V107.404C308.545 107.658 308.471 107.906 308.344 108.127C308.217 108.348 308.04 108.536 307.826 108.675L274.823 127.767C274.757 127.805 274.683 127.825 274.607 127.825C274.532 127.826 274.457 127.806 274.391 127.768C274.326 127.73 274.271 127.676 274.233 127.611C274.195 127.545 274.174 127.471 274.174 127.395V97.1995C274.191 96.9457 274.266 96.6992 274.392 96.4788C274.519 96.2584 274.695 96.0701 274.906 95.9282L283.925 90.7151C284.023 90.6539 284.136 90.6192 284.251 90.6143C284.367 90.6095 284.482 90.6346 284.585 90.6874C284.736 90.7769 284.846 90.9226 284.89 91.0926L285.511 93.5854L285.606 93.8518C285.63 93.9528 285.677 94.0466 285.745 94.125C285.813 94.2035 285.899 94.2645 285.995 94.3026C286.092 94.3408 286.196 94.3551 286.299 94.3442C286.402 94.3334 286.501 94.2978 286.588 94.2405L307.804 81.9878C307.874 81.9397 307.953 81.9083 308.037 81.8957C308.121 81.8832 308.206 81.89 308.287 81.9156H308.314C308.399 81.9678 308.467 82.0431 308.51 82.1326C308.553 82.2221 308.57 82.3221 308.558 82.4208Z" fill="black"/>
<path d="M297.01 89.4879L297.015 85.5407L299.356 84.186V88.1333L297.01 89.4879Z" fill="#F0F0F0"/>
<path opacity="0.3" d="M274.445 127.795H274.412L273.303 127.135C273.235 127.078 273.181 127.007 273.146 126.926C273.112 126.845 273.097 126.756 273.103 126.668V96.5557C273.113 96.3007 273.187 96.0523 273.319 95.834L274.429 96.4724C274.296 96.6904 274.221 96.939 274.212 97.1942V127.396C274.211 127.477 274.232 127.558 274.273 127.628C274.314 127.699 274.373 127.757 274.445 127.795Z" fill="black"/>
<path d="M312.092 84.4809C312.1 84.3935 312.086 84.3054 312.051 84.2249C312.016 84.1443 311.961 84.0739 311.892 84.0201L311.836 83.9868L310.777 83.3706C310.694 83.332 310.603 83.3163 310.512 83.3251C310.422 83.3339 310.335 83.3669 310.261 83.4205L289.067 95.6343L288.446 93.1416C288.4 92.9723 288.29 92.8272 288.141 92.7363L287.031 92.0923C286.93 92.0311 286.814 91.9987 286.696 91.9987C286.577 91.9987 286.461 92.0311 286.36 92.0923L277.341 97.3054C277.128 97.4439 276.951 97.6307 276.824 97.8506C276.696 98.0706 276.623 98.3174 276.609 98.5712V128.728C276.603 128.816 276.618 128.904 276.652 128.986C276.687 129.067 276.741 129.138 276.808 129.195L277.918 129.855C277.999 129.888 278.088 129.9 278.175 129.889C278.263 129.878 278.346 129.846 278.417 129.794L311.343 110.768C311.556 110.629 311.734 110.441 311.861 110.22C311.988 109.999 312.061 109.752 312.075 109.497L312.092 84.4809Z" fill="#FF0000"/>
<path opacity="0.5" d="M288.134 92.7474C288.031 92.6946 287.916 92.6695 287.801 92.6743C287.685 92.6792 287.573 92.7139 287.474 92.7751L278.455 97.9882C278.239 98.126 278.061 98.3171 277.939 98.5434L276.83 97.8994C276.953 97.6743 277.131 97.4835 277.346 97.3442L286.365 92.1367C286.467 92.0766 286.583 92.0449 286.701 92.0449C286.819 92.0449 286.935 92.0766 287.036 92.1367L288.134 92.7474Z" fill="white"/>
<path opacity="0.5" d="M311.836 83.9864C311.755 83.9608 311.67 83.954 311.586 83.9665C311.502 83.979 311.423 84.0105 311.353 84.0585L290.137 96.3112C290.05 96.3685 289.951 96.4041 289.848 96.415C289.745 96.4258 289.641 96.4115 289.544 96.3733C289.448 96.3352 289.362 96.2743 289.294 96.1958C289.227 96.1173 289.179 96.0236 289.155 95.9226L289.061 95.6561L310.255 83.4423C310.353 83.3812 310.466 83.3468 310.582 83.3424C310.648 83.3411 310.714 83.3584 310.771 83.3923L311.836 83.9864Z" fill="white"/>
<path d="M312.092 84.4861V109.469C312.079 109.724 312.006 109.972 311.878 110.193C311.751 110.414 311.573 110.601 311.36 110.74L278.362 129.838C278.296 129.876 278.221 129.896 278.145 129.896C278.069 129.896 277.994 129.876 277.928 129.838C277.862 129.799 277.808 129.744 277.77 129.678C277.732 129.612 277.712 129.537 277.713 129.461V99.2592C277.73 99.0054 277.805 98.7589 277.932 98.5385C278.058 98.3181 278.234 98.1298 278.445 97.9879L287.464 92.7804C287.562 92.7172 287.674 92.6809 287.79 92.6751C287.906 92.6692 288.021 92.6941 288.124 92.7471C288.274 92.8379 288.383 92.983 288.429 93.1523L289.051 95.6451L289.145 95.9115C289.168 96.013 289.215 96.1074 289.283 96.1865C289.35 96.2656 289.436 96.3272 289.533 96.366C289.629 96.4047 289.734 96.4195 289.837 96.409C289.94 96.3985 290.04 96.3631 290.127 96.3057L311.343 84.0475C311.413 84.0004 311.493 83.9699 311.577 83.9583C311.66 83.9468 311.745 83.9545 311.826 83.9809H311.853C311.934 84.0365 311.999 84.1125 312.041 84.2013C312.083 84.29 312.1 84.3883 312.092 84.4861Z" fill="#FF0000"/>
<path d="M305.607 88.6222V84.6805L307.954 83.3203V87.2676L305.607 88.6222Z" fill="#FAFAFA"/>
<path opacity="0.2" d="M277.978 129.838H277.945L276.836 129.178C276.768 129.121 276.714 129.05 276.68 128.969C276.645 128.887 276.63 128.799 276.636 128.711V98.6153C276.646 98.3602 276.72 98.1119 276.852 97.8936L277.962 98.5375C277.829 98.7556 277.755 99.0041 277.745 99.2593V129.455C277.745 129.534 277.767 129.612 277.808 129.68C277.849 129.747 277.908 129.802 277.978 129.838Z" fill="black"/>
<path d="M280.397 108.609L259.586 96.5947L259.58 119.579L280.392 131.598L280.397 108.609Z" fill="#37474F"/>
<path d="M261.039 95.751L259.58 96.5893L280.397 108.609L281.85 107.77L261.039 95.751Z" fill="#455A64"/>
<path d="M279.977 107.326L317.484 85.6519V111.745L279.977 133.419V107.326Z" fill="#455A64"/>
<path d="M294.681 103.251L301.06 99.5645C301.886 99.087 302.557 99.3091 302.557 100.053C302.496 100.514 302.33 100.954 302.07 101.34C301.81 101.725 301.464 102.045 301.06 102.274L294.675 105.966C293.849 106.443 293.178 106.227 293.178 105.477C293.238 105.015 293.406 104.573 293.667 104.186C293.928 103.8 294.275 103.48 294.681 103.251Z" fill="#263238"/>
<path d="M279.977 107.326L278.729 106.604V132.697L279.977 133.419V107.326Z" fill="#263238"/>
<path d="M278.729 106.605L316.236 84.9307L317.484 85.6524L279.977 107.326L278.729 106.605Z" fill="#37474F"/>
<path d="M200.406 205.031V181.12L231.446 163.182V187.093L200.406 205.031Z" fill="#FF0000"/>
<path d="M200.406 181.12L161.611 158.696V182.613L200.406 205.031V181.12Z" fill="#FF0000"/>
<path opacity="0.15" d="M200.406 181.12L161.611 158.696V182.613L200.406 205.031V181.12Z" fill="black"/>
<path d="M200.406 181.12L232.367 162.643L192.646 139.687L160.691 158.163L200.406 181.12Z" fill="#FF0000"/>
<path opacity="0.45" d="M200.406 181.12L232.367 162.643L192.646 139.687L160.691 158.163L200.406 181.12Z" fill="white"/>
<path d="M200.406 181.12V187.099L232.367 168.628V162.644L200.406 181.12Z" fill="#FF0000"/>
<path opacity="0.2" d="M200.406 187.099L231.446 169.161V170.477L200.406 188.409V187.099Z" fill="black"/>
<path d="M160.691 158.163L200.406 181.119V187.099L160.691 164.142V158.163Z" fill="#FF0000"/>
<path opacity="0.2" d="M160.691 158.163L200.406 181.119V187.099L160.691 164.142V158.163Z" fill="black"/>
<path opacity="0.2" d="M200.406 187.099L161.611 164.675V165.991L200.406 188.409V187.099Z" fill="black"/>
<path d="M210.629 184.75L221.229 178.643C221.684 178.377 222.055 178.594 222.055 179.121V185.356C222.04 185.643 221.957 185.922 221.813 186.171C221.67 186.42 221.469 186.631 221.229 186.788L210.629 192.895C210.169 193.156 209.797 192.945 209.797 192.417V186.188C209.812 185.9 209.895 185.619 210.04 185.369C210.185 185.119 210.386 184.907 210.629 184.75Z" fill="#455A64"/>
<path d="M211.307 185.461L220.553 180.12C220.853 179.948 221.108 180.087 221.108 180.442V185.144C221.096 185.336 221.039 185.521 220.943 185.687C220.847 185.853 220.713 185.994 220.553 186.099L211.307 191.462C211.002 191.64 210.752 191.495 210.752 191.146V186.443C210.759 186.247 210.813 186.055 210.909 185.884C211.006 185.713 211.142 185.568 211.307 185.461Z" fill="#F5F5F5"/>
<g opacity="0.5">
<path d="M211.589 186.704C211.567 186.705 211.544 186.699 211.524 186.687C211.505 186.675 211.489 186.658 211.478 186.638C211.469 186.623 211.463 186.606 211.461 186.589C211.458 186.572 211.459 186.554 211.463 186.537C211.467 186.52 211.474 186.504 211.485 186.49C211.495 186.476 211.508 186.464 211.523 186.455L220.254 181.414C220.268 181.404 220.285 181.398 220.302 181.396C220.32 181.393 220.337 181.394 220.354 181.398C220.371 181.402 220.387 181.409 220.401 181.42C220.415 181.43 220.427 181.443 220.437 181.458C220.455 181.49 220.46 181.527 220.45 181.563C220.441 181.598 220.418 181.628 220.387 181.647L211.662 186.688C211.639 186.699 211.614 186.705 211.589 186.704Z" fill="#455A64"/>
<path d="M211.589 187.859C211.567 187.86 211.544 187.854 211.524 187.842C211.505 187.83 211.489 187.813 211.478 187.793C211.469 187.778 211.463 187.761 211.461 187.744C211.458 187.727 211.459 187.709 211.463 187.692C211.467 187.675 211.474 187.659 211.485 187.645C211.495 187.63 211.508 187.619 211.523 187.609L220.226 182.58C220.241 182.57 220.257 182.564 220.275 182.562C220.292 182.559 220.309 182.56 220.326 182.564C220.343 182.568 220.36 182.575 220.374 182.586C220.388 182.596 220.4 182.609 220.409 182.624C220.427 182.656 220.432 182.693 220.423 182.729C220.413 182.764 220.39 182.794 220.359 182.813L211.634 187.854C211.619 187.858 211.604 187.86 211.589 187.859Z" fill="#455A64"/>
<path d="M211.589 189.014C211.567 189.014 211.544 189.008 211.524 188.997C211.505 188.985 211.489 188.968 211.478 188.947C211.469 188.932 211.463 188.916 211.461 188.898C211.458 188.881 211.459 188.864 211.463 188.846C211.467 188.829 211.474 188.813 211.485 188.799C211.495 188.785 211.508 188.773 211.523 188.764L220.254 183.723C220.268 183.714 220.285 183.708 220.302 183.705C220.32 183.703 220.337 183.703 220.354 183.707C220.371 183.711 220.387 183.719 220.401 183.729C220.415 183.74 220.427 183.753 220.437 183.768C220.455 183.799 220.46 183.837 220.45 183.872C220.441 183.908 220.418 183.938 220.387 183.956L211.662 188.997C211.639 189.009 211.614 189.014 211.589 189.014Z" fill="#455A64"/>
<path d="M211.589 190.169C211.567 190.169 211.544 190.163 211.524 190.151C211.505 190.14 211.489 190.123 211.478 190.102C211.469 190.087 211.463 190.071 211.461 190.053C211.458 190.036 211.459 190.018 211.463 190.001C211.467 189.984 211.474 189.968 211.485 189.954C211.495 189.94 211.508 189.928 211.523 189.919L220.254 184.878C220.284 184.86 220.321 184.856 220.355 184.865C220.39 184.874 220.419 184.897 220.437 184.928C220.454 184.959 220.459 184.996 220.449 185.03C220.44 185.064 220.418 185.094 220.387 185.111L211.662 190.152C211.639 190.163 211.614 190.169 211.589 190.169Z" fill="#455A64"/>
</g>
<path opacity="0.1" d="M229.77 161.145L200.406 178.111L163.287 156.648L162.377 157.186L200.406 179.088L230.686 161.672L229.77 161.145Z" fill="black"/>
<path d="M200.406 178.111V154.2L231.446 136.262V160.174L200.406 178.111Z" fill="#FF0000"/>
<path d="M200.406 154.199L161.611 131.776V155.693L200.406 178.111V154.199Z" fill="#FF0000"/>
<path opacity="0.15" d="M200.406 154.199L161.611 131.776V155.693L200.406 178.111V154.199Z" fill="black"/>
<path d="M200.406 154.199L232.367 135.723L192.646 112.767L160.691 131.243L200.406 154.199Z" fill="#FF0000"/>
<path opacity="0.6" d="M200.406 154.199L232.367 135.723L192.646 112.767L160.691 131.243L200.406 154.199Z" fill="white"/>
<path d="M200.406 154.2V160.173L232.367 141.708V135.724L200.406 154.2Z" fill="#FF0000"/>
<path opacity="0.2" d="M200.406 160.173L231.446 142.241V143.556L200.406 161.489V160.173Z" fill="black"/>
<path d="M160.691 131.243L200.406 154.199V160.173L160.691 137.222V131.243Z" fill="#FF0000"/>
<path opacity="0.2" d="M160.691 131.243L200.406 154.199V160.173L160.691 137.222V131.243Z" fill="black"/>
<path opacity="0.2" d="M200.406 160.173L161.611 137.755V139.071L200.406 161.489V160.173Z" fill="black"/>
<path d="M210.629 157.83L221.229 151.723C221.684 151.457 222.055 151.673 222.055 152.201V158.474C222.04 158.761 221.957 159.04 221.813 159.289C221.67 159.538 221.469 159.749 221.229 159.906L210.629 166.013C210.169 166.274 209.797 166.063 209.797 165.536V159.262C209.813 158.975 209.897 158.695 210.041 158.446C210.186 158.197 210.387 157.986 210.629 157.83Z" fill="#455A64"/>
<path d="M211.307 158.541L220.553 153.2C220.853 153.028 221.108 153.167 221.108 153.522V158.224C221.096 158.416 221.039 158.601 220.943 158.767C220.847 158.933 220.713 159.074 220.553 159.179L211.307 164.52C211.002 164.698 210.752 164.553 210.752 164.204V159.501C210.762 159.309 210.818 159.121 210.914 158.954C211.01 158.787 211.145 158.646 211.307 158.541Z" fill="#F5F5F5"/>
<g opacity="0.5">
<path d="M211.589 159.784C211.567 159.785 211.544 159.779 211.524 159.767C211.505 159.755 211.489 159.738 211.478 159.718C211.469 159.703 211.463 159.686 211.461 159.669C211.458 159.652 211.459 159.634 211.463 159.617C211.467 159.6 211.474 159.584 211.485 159.57C211.495 159.556 211.508 159.544 211.523 159.535L220.254 154.494C220.268 154.485 220.285 154.478 220.302 154.476C220.32 154.473 220.337 154.474 220.354 154.478C220.371 154.482 220.387 154.489 220.401 154.5C220.415 154.51 220.427 154.523 220.437 154.538C220.446 154.553 220.453 154.57 220.455 154.588C220.458 154.605 220.457 154.623 220.452 154.641C220.448 154.658 220.439 154.674 220.428 154.688C220.417 154.702 220.403 154.713 220.387 154.721L211.662 159.768C211.639 159.779 211.614 159.785 211.589 159.784Z" fill="#455A64"/>
<path d="M211.589 160.928C211.567 160.928 211.544 160.922 211.524 160.911C211.505 160.899 211.489 160.882 211.478 160.861C211.469 160.846 211.463 160.83 211.461 160.813C211.458 160.795 211.459 160.778 211.463 160.761C211.467 160.744 211.474 160.728 211.485 160.713C211.495 160.699 211.508 160.687 211.523 160.678L220.254 155.637C220.268 155.628 220.285 155.622 220.302 155.619C220.32 155.617 220.337 155.617 220.354 155.621C220.371 155.626 220.387 155.633 220.401 155.643C220.415 155.654 220.427 155.667 220.437 155.682C220.455 155.713 220.46 155.751 220.45 155.786C220.441 155.822 220.418 155.852 220.387 155.87L211.634 160.928C211.619 160.93 211.604 160.93 211.589 160.928Z" fill="#455A64"/>
<path d="M211.589 162.094C211.567 162.094 211.544 162.088 211.524 162.077C211.505 162.065 211.489 162.048 211.478 162.027C211.469 162.012 211.463 161.996 211.461 161.979C211.458 161.961 211.459 161.944 211.463 161.927C211.467 161.91 211.474 161.894 211.485 161.879C211.495 161.865 211.508 161.853 211.523 161.844L220.254 156.803C220.268 156.794 220.285 156.788 220.302 156.785C220.32 156.783 220.337 156.783 220.354 156.787C220.371 156.792 220.387 156.799 220.401 156.809C220.415 156.82 220.427 156.833 220.437 156.848C220.455 156.879 220.46 156.917 220.45 156.952C220.441 156.988 220.418 157.018 220.387 157.036L211.662 162.077C211.639 162.089 211.614 162.094 211.589 162.094Z" fill="#455A64"/>
<path d="M211.589 163.249C211.567 163.249 211.544 163.243 211.524 163.232C211.505 163.22 211.489 163.203 211.478 163.182C211.469 163.167 211.463 163.151 211.461 163.133C211.458 163.116 211.459 163.099 211.463 163.081C211.467 163.064 211.474 163.048 211.485 163.034C211.495 163.02 211.508 163.008 211.523 162.999L220.254 157.958C220.284 157.94 220.321 157.936 220.355 157.945C220.39 157.955 220.419 157.977 220.437 158.008C220.454 158.039 220.459 158.076 220.449 158.11C220.44 158.144 220.418 158.174 220.387 158.191L211.662 163.232C211.639 163.244 211.614 163.249 211.589 163.249Z" fill="#455A64"/>
</g>
</svg>
