<svg width="25" height="25" viewBox="0 0 25 25" fill="none" xmlns="http://www.w3.org/2000/svg">
<path d="M24.4851 6.48887C24.1968 5.41803 23.3525 4.57372 22.2816 4.28542C20.3253 3.75 12.4999 3.75 12.4999 3.75C12.4999 3.75 4.67461 3.75 2.71827 4.26482C1.66803 4.55313 0.803127 5.41803 0.514825 6.48887C0 8.4452 0 12.502 0 12.502C0 12.502 0 16.5794 0.514825 18.5152C0.803127 19.586 1.64744 20.4303 2.71827 20.7186C4.6952 21.254 12.4999 21.254 12.4999 21.254C12.4999 21.254 20.3253 21.254 22.2816 20.7392C23.3525 20.4509 24.1968 19.6066 24.4851 18.5358C24.9999 16.5794 24.9999 12.5226 24.9999 12.5226C24.9999 12.5226 25.0205 8.4452 24.4851 6.48887Z" fill="#FF0000"/>
<path d="M10.0083 16.2498L16.5157 12.5018L10.0083 8.75391V16.2498Z" fill="white"/>
</svg>
